<svg width="41" height="41" viewBox="0 0 41 41" fill="none" xmlns="http://www.w3.org/2000/svg">
<path d="M10.3672 35.4792L35.3672 10.4792L30.3672 5.47925L5.36719 30.4792L10.3672 35.4792Z" stroke="#F66035" stroke-width="2" stroke-linecap="round" stroke-linejoin="round"/>
<path d="M25.3672 10.4792L30.3672 15.4792" stroke="#F66035" stroke-width="2" stroke-linecap="round" stroke-linejoin="round"/>
<path d="M15.3685 5.47925C15.3685 6.3633 15.7197 7.21115 16.3448 7.83627C16.9699 8.46139 17.8178 8.81258 18.7018 8.81258C17.8178 8.81258 16.9699 9.16377 16.3448 9.78889C15.7197 10.414 15.3685 11.2619 15.3685 12.1459C15.3685 11.2619 15.0173 10.414 14.3922 9.78889C13.7671 9.16377 12.9192 8.81258 12.0352 8.81258C12.9192 8.81258 13.7671 8.46139 14.3922 7.83627C15.0173 7.21115 15.3685 6.3633 15.3685 5.47925Z" stroke="#F66035" stroke-width="2" stroke-linecap="round" stroke-linejoin="round"/>
<path d="M32.0326 22.146C32.0326 23.0301 32.3837 23.8779 33.0089 24.503C33.634 25.1281 34.4818 25.4793 35.3659 25.4793C34.4818 25.4793 33.634 25.8305 33.0089 26.4556C32.3837 27.0808 32.0326 27.9286 32.0326 28.8127C32.0326 27.9286 31.6814 27.0808 31.0562 26.4556C30.4311 25.8305 29.5833 25.4793 28.6992 25.4793C29.5833 25.4793 30.4311 25.1281 31.0562 24.503C31.6814 23.8779 32.0326 23.0301 32.0326 22.146Z" stroke="#F66035" stroke-width="2" stroke-linecap="round" stroke-linejoin="round"/>
</svg>
