<svg width="41" height="41" viewBox="0 0 41 41" fill="none" xmlns="http://www.w3.org/2000/svg">
<path d="M32.0352 18.8127V15.4793C32.0352 14.5953 31.684 13.7474 31.0588 13.1223C30.4337 12.4972 29.5859 12.146 28.7018 12.146H15.3685C14.4844 12.146 13.6366 12.4972 13.0115 13.1223C12.3863 13.7474 12.0352 14.5953 12.0352 15.4793V28.8127C12.0352 29.6967 12.3863 30.5446 13.0115 31.1697C13.6366 31.7948 14.4844 32.146 15.3685 32.146H18.7018" stroke="#F66035" stroke-width="2" stroke-linecap="round" stroke-linejoin="round"/>
<path d="M22.0352 22.146L37.0352 27.146L30.3685 30.4793L27.0352 37.146L22.0352 22.146Z" stroke="#F66035" stroke-width="2" stroke-linecap="round" stroke-linejoin="round"/>
<path d="M5.36719 5.47925V5.49591" stroke="#F66035" stroke-width="2" stroke-linecap="round" stroke-linejoin="round"/>
<path d="M12.0352 5.47925V5.49591" stroke="#F66035" stroke-width="2" stroke-linecap="round" stroke-linejoin="round"/>
<path d="M18.6992 5.47925V5.49591" stroke="#F66035" stroke-width="2" stroke-linecap="round" stroke-linejoin="round"/>
<path d="M25.3672 5.47925V5.49591" stroke="#F66035" stroke-width="2" stroke-linecap="round" stroke-linejoin="round"/>
<path d="M5.36719 12.146V12.1627" stroke="#F66035" stroke-width="2" stroke-linecap="round" stroke-linejoin="round"/>
<path d="M5.36719 18.8125V18.8292" stroke="#F66035" stroke-width="2" stroke-linecap="round" stroke-linejoin="round"/>
<path d="M5.36719 25.4792V25.4959" stroke="#F66035" stroke-width="2" stroke-linecap="round" stroke-linejoin="round"/>
</svg>
