<svg width="93" height="25" viewBox="0 0 93 25" fill="none" xmlns="http://www.w3.org/2000/svg">
<path fill-rule="evenodd" clip-rule="evenodd" d="M11.9568 10.5235C11.9605 10.7375 11.9643 10.962 11.9643 11.1931C11.9973 12.982 12.0302 15.0117 11.6656 15.9959C11.3845 16.7779 10.9385 17.4898 10.3579 18.0828C9.77731 18.6759 9.07591 19.1362 8.30164 19.4322L8.23344 19.4605C7.4434 19.7675 6.601 19.9158 5.75398 19.8972H5.33997C3.10046 19.8264 0 18.3631 0 15.7764C0 14.3509 0.705723 11.8728 5.38701 11.3181L5.78222 11.2709C6.60792 11.1765 7.46183 11.0774 8.27343 10.9004C9.5249 10.6243 9.68486 10.1051 9.68486 9.68023C9.70763 9.44784 9.68103 9.21329 9.6068 8.99198C9.5326 8.77068 9.41247 8.56765 9.25437 8.39633C8.79331 7.8228 7.91352 7.54431 6.56558 7.54431C4.02263 7.54431 3.42747 8.70312 3.15928 9.954C3.11438 10.2471 2.95896 10.5116 2.72519 10.693C2.49141 10.8744 2.19711 10.9588 1.9031 10.9287C1.59194 10.933 1.29057 10.8196 1.05907 10.6109C0.827573 10.4023 0.682929 10.1138 0.65397 9.80295C0.651617 9.77782 0.651617 9.75256 0.65397 9.72742C0.733228 8.75454 1.10019 7.82755 1.70785 7.06521C2.76173 5.77895 4.46723 5.12521 6.78199 5.12521C7.87312 5.10886 8.94947 5.37984 9.90365 5.91111C10.8375 6.47756 11.9502 7.64109 11.9502 9.96815C11.9502 10.1425 11.9534 10.3286 11.9568 10.5235ZM5.65285 17.4379C6.7467 17.4379 9.58372 16.7889 9.58372 13.8246V12.4793C9.37585 12.5709 9.15904 12.6405 8.93679 12.687C8.20285 12.8286 7.09486 13.0245 6.41502 13.1283C3.79914 13.5296 2.55472 13.9662 2.55472 15.3539C2.55472 16.6425 4.1614 17.4379 5.65285 17.4379Z" fill="#1E2431"/>
<path fill-rule="evenodd" clip-rule="evenodd" d="M15.0923 5.70818C14.5135 5.70818 14.2266 5.99847 14.2266 6.57671V23.4374C14.2266 24.018 14.5135 24.3082 15.0923 24.3082H15.9132C16.4637 24.3082 16.753 24.018 16.753 23.4374V18.146C16.7555 17.7583 16.7296 17.371 16.6754 16.9872H16.7272C17.1307 17.7233 17.7292 18.3333 18.4565 18.7497C19.1837 19.1662 20.0116 19.373 20.8486 19.3473C24.3137 19.3473 26.8614 16.6166 26.8614 12.3684C26.8614 8.23114 24.603 5.38721 21.0321 5.38721C17.6917 5.38721 16.5625 7.94321 16.5625 7.94321H16.5107C16.545 7.70875 16.5623 7.47214 16.5625 7.23517V6.44688C16.5625 5.99847 16.2731 5.70818 15.6968 5.70818H15.0923ZM24.2808 12.3991C24.2808 15.4271 22.5494 17.1406 20.4487 17.1406C18.0069 17.1406 16.7013 14.797 16.7013 12.4251C16.7013 9.0265 18.5315 7.62459 20.5169 7.63167C22.7329 7.63167 24.2808 9.50088 24.2808 12.3991Z" fill="#1E2431"/>
<path fill-rule="evenodd" clip-rule="evenodd" d="M30.0337 5.70818C29.455 5.70818 29.168 5.99847 29.168 6.57671L29.175 23.4374C29.175 24.018 29.462 24.3082 30.0407 24.3082H30.8547C31.4052 24.3082 31.6944 24.018 31.6944 23.4374V18.146C31.6969 17.7583 31.6709 17.371 31.6168 16.9872H31.6684C32.072 17.7233 32.6705 18.3333 33.398 18.7497C34.1251 19.1662 34.9531 19.373 35.79 19.3473C39.2574 19.3473 41.8028 16.6166 41.8028 12.3684C41.8028 8.23114 39.5444 5.38721 35.9734 5.38721C32.6331 5.38721 31.5039 7.94321 31.5039 7.94321H31.4522C31.4866 7.70875 31.5039 7.47214 31.5039 7.23517V6.44688C31.5039 5.99847 31.2147 5.70818 30.6382 5.70818H30.0337ZM39.2221 12.3991C39.2221 15.4271 37.4907 17.1406 35.3901 17.1406H35.3925C32.9507 17.1406 31.6381 14.797 31.6264 12.4251C31.6264 9.0265 33.4635 7.63167 35.4584 7.63167C37.6742 7.63167 39.2221 9.50088 39.2221 12.3991Z" fill="#1E2431"/>
<path d="M44.5903 7.92194H43.7553C43.6384 7.93463 43.5199 7.92082 43.4089 7.88154C43.2978 7.84226 43.1967 7.77849 43.1135 7.69496C43.0303 7.61139 42.9669 7.5102 42.9276 7.39878C42.8883 7.28735 42.8747 7.16853 42.8874 7.05108V6.70885C42.875 6.59159 42.889 6.47303 42.9285 6.36191C42.9678 6.25079 43.0312 6.14988 43.1147 6.06663C43.1979 5.98334 43.2985 5.91979 43.4095 5.88066C43.5202 5.8415 43.6384 5.82773 43.7553 5.84033H44.5953V5.20781C44.5903 0.992659 48.0296 0.308228 49.401 0.308228H49.7165C50.288 0.308228 50.5772 0.624482 50.5772 1.17675V1.67709C50.5772 2.25768 50.2645 2.49369 49.6599 2.54798C48.6884 2.5999 47.1382 2.83591 47.1382 5.31403V5.84033H49.4223C49.5392 5.82773 49.6574 5.8415 49.7681 5.88066C49.8791 5.91979 49.98 5.98334 50.0632 6.06663C50.1464 6.14988 50.2098 6.25079 50.2494 6.36191C50.2886 6.47303 50.3026 6.59159 50.2902 6.70885V7.05108C50.3029 7.16853 50.2893 7.28735 50.25 7.39878C50.211 7.5102 50.1473 7.61139 50.0641 7.69496C49.9809 7.77849 49.8801 7.84226 49.7687 7.88154C49.6577 7.92082 49.5392 7.93463 49.4223 7.92194H47.1382V18.1672C47.1382 18.7478 46.8512 19.0381 46.2726 19.0381H45.4585C44.908 19.0381 44.5928 18.7478 44.5928 18.1672L44.5903 7.92194Z" fill="#1E2431"/>
<path fill-rule="evenodd" clip-rule="evenodd" d="M64.9948 12.3472C64.9948 8.31614 61.7934 5.39197 57.8271 5.39197C53.8704 5.39197 50.6875 8.28784 50.6875 12.3449C50.6875 16.4019 53.8611 19.352 57.8271 19.352C61.7934 19.352 64.9948 16.3783 64.9948 12.3472ZM62.3955 12.3472C62.3955 15.1392 60.349 17.1406 57.8271 17.1406C55.3336 17.1406 53.2589 15.1086 53.2589 12.3449C53.2589 9.58117 55.3055 7.60577 57.8271 7.60577C60.349 7.60577 62.3955 9.5552 62.3955 12.3472Z" fill="#1E2431"/>
<path d="M67.207 1.30895C67.207 0.731513 67.4965 0.442003 68.0752 0.44043H68.8889C69.4395 0.44043 69.7546 0.730725 69.7546 1.30895V15.085C69.7546 16.5883 70.4112 16.7984 70.9615 16.8503C71.0573 16.8529 71.1517 16.875 71.2386 16.9153C71.3258 16.9557 71.4037 17.0134 71.4678 17.085C71.5318 17.1565 71.5807 17.2404 71.6113 17.3316C71.6419 17.4227 71.654 17.5191 71.6462 17.615V18.2451C71.6462 18.7974 71.4109 19.1396 70.7521 19.1396C69.3408 19.1396 67.207 18.7455 67.207 15.3989V1.30895Z" fill="#1E2431"/>
<path d="M73.9336 6.57666C73.9336 5.99842 74.2488 5.70813 74.7993 5.70813H75.6133C76.192 5.70813 76.479 5.99842 76.479 6.57666V18.1672C76.479 18.7478 76.192 19.0381 75.6133 19.0381H74.8064C74.2559 19.0381 73.9407 18.7478 73.9407 18.1672L73.9336 6.57666Z" fill="#1E2431"/>
<path fill-rule="evenodd" clip-rule="evenodd" d="M93.0012 12.3472C93.0012 8.31614 89.7994 5.39197 85.8335 5.39197C81.865 5.39197 78.6914 8.28784 78.6914 12.3449C78.6914 16.4019 81.8672 19.352 85.8335 19.352C89.7994 19.352 93.0012 16.3783 93.0012 12.3472ZM90.4016 12.3472C90.4016 15.1392 88.3551 17.1406 85.8335 17.1406C83.3397 17.1406 81.265 15.1086 81.265 12.3449C81.265 9.58117 83.3115 7.60577 85.8335 7.60577C88.3551 7.60577 90.4016 9.5552 90.4016 12.3472Z" fill="#1E2431"/>
</svg>
