<svg width="60" height="25" viewBox="0 0 60 25" fill="none" xmlns="http://www.w3.org/2000/svg">
<path fill-rule="evenodd" clip-rule="evenodd" d="M20.7903 19.9454V10.3212C20.7164 8.6092 19.5368 7.33764 17.8641 7.00354C17.0918 6.84968 16.2893 6.80368 15.4982 6.7803C14.2749 6.74485 13.0516 6.77049 11.7642 6.77049V2.57043H8.89453V19.9386H11.7981V9.06548C13.213 9.06548 14.5781 9.02325 15.9386 9.08056C16.7803 9.11677 17.4259 9.60095 17.671 10.4208C17.8512 11.0241 17.9531 11.6719 17.9621 12.3017C17.9945 14.6532 17.9749 19.7319 17.9749 19.9454H20.7903Z" fill="black"/>
<path fill-rule="evenodd" clip-rule="evenodd" d="M25.2662 19.9513C25.2662 19.1165 25.2556 15.123 25.2662 12.7873C25.2692 12.3235 25.3182 11.8544 25.3816 11.3943C25.5845 9.91841 26.3477 9.18911 27.8289 9.05411C28.424 8.99905 29.0236 8.99227 29.6329 8.96361V6.77345C28.2105 6.7991 26.8093 6.65052 25.4382 7.03138C23.871 7.46655 22.8505 8.44247 22.5504 10.0738C22.4463 10.6311 22.3905 11.2035 22.3867 11.7707V19.9513H25.2662Z" fill="black"/>
<path fill-rule="evenodd" clip-rule="evenodd" d="M5.45289 17.6788C3.97242 17.5423 3.20994 16.8138 3.00556 15.3378C2.94221 14.877 2.89318 14.4087 2.89017 13.9441C2.88715 13.024 2.88866 11.0835 2.89017 9.06527H7.18525V6.82911H2.89394C2.8962 4.56731 2.89922 2.67128 2.89017 2.6283H0.0106862C0.000881817 2.78215 -0.00741422 12.3867 0.0106862 14.9622C0.0152113 15.5294 0.0710211 16.1018 0.174344 16.6592C0.47451 18.2905 1.49643 19.2664 3.06363 19.7008C4.43474 20.0824 5.83451 19.9338 7.25841 19.9587V17.7678C6.64752 17.7399 6.04794 17.7331 5.45289 17.6788Z" fill="black"/>
<path fill-rule="evenodd" clip-rule="evenodd" d="M45.8867 6.78113H48.6116C48.7609 6.78113 48.9721 7.00814 49.0347 7.1718C50.1871 10.1667 52.7807 16.9913 52.9104 17.2998C53.2363 16.6481 55.661 10.316 56.8232 7.19593C56.9469 6.86258 57.103 6.76831 57.4552 6.76831H59.9561C59.9063 6.93649 56.6007 14.9957 54.9973 18.9069C54.67 19.7049 54.1368 20.1362 53.2619 20.1076C53.0711 20.1023 52.8803 20.1 52.6902 20.1076C51.7724 20.1461 51.215 19.6966 50.8741 18.8617C49.6154 15.7786 46.3023 7.79099 45.8867 6.78113Z" fill="black"/>
<path fill-rule="evenodd" clip-rule="evenodd" d="M34.2602 24.2553C35.1411 24.2553 35.9496 24.2395 36.7573 24.2636C37.0959 24.2734 37.2619 24.1777 37.4089 23.8496C39.8691 18.3621 42.3466 12.8822 44.8195 7.39928C44.8995 7.22281 44.9643 7.03954 45.0549 6.81328C44.1461 6.81328 43.318 6.82535 42.4891 6.80574C42.2018 6.79895 42.0668 6.89926 41.9536 7.16096C41.305 8.66405 40.6391 10.1588 39.9769 11.6567C39.2099 13.389 38.4422 15.1199 37.6435 16.9231C37.4331 16.4291 37.2498 16.0045 37.0718 15.5792C35.9088 12.7962 34.7504 10.0125 33.5792 7.23487C33.5098 7.07197 33.3408 6.83742 33.2104 6.83289C32.3001 6.7982 31.3883 6.81404 30.4297 6.81404C30.4817 6.96035 30.5074 7.05764 30.5473 7.14739C32.3114 11.0971 34.0618 15.0528 35.8553 18.9881C36.1555 19.6473 36.2377 20.1759 35.8689 20.8487C35.2761 21.9309 34.8077 23.0796 34.2602 24.2553Z" fill="black"/>
<path fill-rule="evenodd" clip-rule="evenodd" d="M59.9579 5.34279L54.1378 2.7054L48.9438 0.347819C48.6511 0.215837 48.3201 0.430026 48.3201 0.750555V2.2544C48.3201 2.48518 48.1428 2.67674 47.9136 2.69484L32.8231 3.9038L14.8516 5.34279H14.8523H59.9579Z" fill="#FF5000"/>
<path fill-rule="evenodd" clip-rule="evenodd" d="M57.2236 19.4872H57.2786C57.3179 19.4872 57.3473 19.4781 57.3676 19.4593C57.388 19.4404 57.3978 19.414 57.3978 19.3793C57.3978 19.3416 57.388 19.3145 57.3691 19.2994C57.3495 19.2843 57.3186 19.2768 57.2771 19.2768H57.2236V19.4872Z" fill="black"/>
<path fill-rule="evenodd" clip-rule="evenodd" d="M57.5506 19.3764C57.5506 19.4677 57.5099 19.5288 57.4284 19.5619L57.617 19.8779H57.4495L57.2964 19.6027H57.2248V19.8779H57.0747V19.1592H57.2829C57.3756 19.1592 57.4428 19.1773 57.4857 19.2135C57.5287 19.2497 57.5506 19.304 57.5506 19.3764Z" fill="black"/>
<path fill-rule="evenodd" clip-rule="evenodd" d="M56.8047 19.5181C56.8047 19.6086 56.8273 19.6923 56.8718 19.7693C56.9171 19.8462 56.9781 19.9073 57.0551 19.9518C57.1328 19.9963 57.2165 20.0189 57.3055 20.0189C57.3952 20.0189 57.4797 19.9963 57.5566 19.9503C57.6343 19.905 57.6954 19.8439 57.7391 19.7677C57.7836 19.6908 57.8062 19.6079 57.8062 19.5181C57.8062 19.4291 57.7836 19.3454 57.7384 19.2677C57.6939 19.19 57.6328 19.129 57.5543 19.0845C57.4774 19.04 57.3937 19.0173 57.3055 19.0173C57.2165 19.0173 57.1335 19.04 57.0566 19.0837C56.9804 19.1274 56.9186 19.1885 56.8733 19.2662C56.8273 19.3431 56.8047 19.4276 56.8047 19.5181Z" fill="black"/>
<path fill-rule="evenodd" clip-rule="evenodd" d="M56.707 19.5181C56.707 19.4118 56.7334 19.313 56.7862 19.2195C56.839 19.1267 56.9122 19.0535 57.0049 19C57.0977 18.9464 57.198 18.92 57.3051 18.92C57.4107 18.92 57.511 18.9464 57.6038 18.9992C57.6965 19.0528 57.7697 19.1252 57.8232 19.2179C57.8768 19.3107 57.9032 19.411 57.9032 19.5181C57.9032 19.6229 57.8775 19.721 57.8262 19.8122C57.775 19.9043 57.7026 19.9774 57.6098 20.0332C57.517 20.0883 57.4152 20.1162 57.3051 20.1162C57.195 20.1162 57.0939 20.0883 57.0012 20.0332C56.9084 19.9789 56.836 19.905 56.784 19.813C56.7327 19.7217 56.707 19.6229 56.707 19.5181Z" fill="black"/>
</svg>
