<svg width="101" height="25" viewBox="0 0 101 25" fill="none" xmlns="http://www.w3.org/2000/svg">
<path fill-rule="evenodd" clip-rule="evenodd" d="M41.4766 15.3927C41.4766 10.5264 45.3691 6.69116 50.266 6.69116C55.2885 6.69116 59.0554 10.4027 59.0136 15.3927C59.0136 20.2588 55.163 24.0529 50.266 24.0529C45.3271 24.0529 41.4766 20.2588 41.4766 15.3927ZM44.9086 15.3927C44.9086 18.403 47.2944 20.8362 50.266 20.8362L50.2661 20.8361C53.2376 20.8361 55.6233 18.3618 55.6233 15.3927C55.6233 12.3822 53.2376 9.9078 50.266 9.9078C47.2944 9.9078 44.9086 12.3822 44.9086 15.3927Z" fill="url(#paint0_linear_1745_9670)"/>
<path d="M69.7223 20.8775C66.527 20.8775 64.1615 18.5269 64.1615 15.4339C64.1615 12.2996 66.5685 9.94903 69.7223 9.94903C71.1332 9.94903 72.5026 10.5677 73.4571 11.6811L75.781 9.41286C74.951 8.38201 72.7932 6.69116 69.6808 6.69116C64.535 6.69116 60.6758 10.444 60.6758 15.3927C60.6758 20.2588 64.6181 24.0529 69.6808 24.0529C71.3407 24.0529 73.2081 23.4755 74.5361 22.4857C74.9926 22.1146 75.4074 21.7435 75.781 21.331L73.4156 19.1041L73.3741 19.1454C72.4612 20.2588 71.1332 20.8775 69.7223 20.8775Z" fill="url(#paint1_linear_1745_9670)"/>
<path fill-rule="evenodd" clip-rule="evenodd" d="M90.9119 8.40282V6.69116H94.4282L94.4701 24.0577H90.9956V22.1791L89.7816 22.9724C88.5258 23.849 87.0606 24.3082 85.6374 24.3082H85.4699C80.6977 24.2247 76.8047 20.3006 76.8047 15.5832C76.8047 10.7407 80.7397 6.8164 85.6374 6.8164C87.1025 6.8164 88.5258 7.15035 89.7816 7.81827L90.9119 8.40282ZM86.2654 21.052L86.3909 21.0102C89.07 20.6344 90.9956 18.4637 90.9538 15.7501V15.0822C90.7026 12.2435 88.3584 10.0309 85.5955 10.0309C82.6653 10.0309 80.2374 12.4939 80.2374 15.5414C80.2374 18.5472 82.6234 21.0102 85.5537 21.052H86.2654Z" fill="url(#paint2_linear_1745_9670)"/>
<path d="M35.7148 0.308228H39.2991V24.0529H35.7148V0.308228Z" fill="url(#paint3_linear_1745_9670)"/>
<path d="M97.4141 0.308228H100.998V24.0529H97.4141V0.308228Z" fill="url(#paint4_linear_1745_9670)"/>
<path fill-rule="evenodd" clip-rule="evenodd" d="M15.7461 15.3927C15.7461 10.5264 19.6294 6.69116 24.5148 6.69116C29.4838 6.69116 33.2418 10.4027 33.2835 15.3927C33.2835 20.2588 29.4419 24.0529 24.5148 24.0529C19.5877 24.0529 15.7461 20.2588 15.7461 15.3927ZM19.1701 15.3927C19.1701 18.403 21.5501 20.8362 24.5148 20.8362V20.8361C27.4376 20.8361 29.8595 18.3618 29.8595 15.3927C29.8595 12.3822 27.4795 9.9078 24.5148 9.9078C21.5501 9.9078 19.1701 12.3822 19.1701 15.3927Z" fill="url(#paint5_linear_1745_9670)"/>
<path d="M6.85533 24.0529C5.52581 24.0529 4.23778 23.8879 2.99134 23.5167C1.74503 23.1456 0.747835 22.7332 0 22.1971L1.41259 19.2691C2.16043 19.764 3.03294 20.1764 4.03002 20.465C5.06869 20.7538 6.10749 20.9187 7.10456 20.9187C9.43115 20.9187 10.5945 20.2588 10.5945 18.9804C10.5945 18.3618 10.3037 17.9082 9.68051 17.6608C9.09883 17.4133 8.14324 17.2071 6.85533 17.0009C5.52581 16.7948 4.40393 16.5474 3.57315 16.2586C2.74211 15.9701 1.99427 15.5164 1.41259 14.8153C0.789439 14.1554 0.4986 13.1657 0.4986 11.9698C0.4986 10.4027 1.16336 9.08299 2.40979 8.13448C3.6977 7.18597 5.44274 6.69116 7.64464 6.69116C8.76639 6.69116 9.88827 6.81499 11.01 7.1035C12.0902 7.35103 13.0043 7.72214 13.7105 8.13448L12.2979 11.0625C10.9269 10.2378 9.34807 9.82546 7.64477 9.82546C6.52289 9.82546 5.65037 9.99027 5.06869 10.3615C4.48714 10.7326 4.1547 11.2274 4.1547 11.8048C4.1547 12.4647 4.48714 12.9595 5.11029 13.2069C5.73345 13.4544 6.73065 13.7431 8.01868 13.9492C9.30647 14.1554 10.3869 14.4029 11.2177 14.6916C12.0487 14.9802 12.7551 15.4339 13.3366 16.0937C13.9183 16.7535 14.2091 17.6608 14.2091 18.8567C14.2091 20.4238 13.5444 21.7023 12.2565 22.6508C10.9269 23.5993 9.09883 24.0529 6.85533 24.0529Z" fill="url(#paint6_linear_1745_9670)"/>
<defs>
<linearGradient id="paint0_linear_1745_9670" x1="58.7808" y1="23.8945" x2="58.7808" y2="7.06236" gradientUnits="userSpaceOnUse">
<stop stop-color="#00AFFF"/>
<stop offset="0.2494" stop-color="#0093FF"/>
<stop offset="0.5046" stop-color="#007FFF"/>
<stop offset="0.7567" stop-color="#0072FF"/>
<stop offset="1" stop-color="#006EFF"/>
</linearGradient>
<linearGradient id="paint1_linear_1745_9670" x1="75.5843" y1="23.9357" x2="75.5843" y2="7.1035" gradientUnits="userSpaceOnUse">
<stop stop-color="#00AFFF"/>
<stop offset="0.2494" stop-color="#0093FF"/>
<stop offset="0.5046" stop-color="#007FFF"/>
<stop offset="0.7567" stop-color="#0072FF"/>
<stop offset="1" stop-color="#006EFF"/>
</linearGradient>
<linearGradient id="paint2_linear_1745_9670" x1="94.1868" y1="24.1061" x2="94.1868" y2="7.06676" gradientUnits="userSpaceOnUse">
<stop stop-color="#00AFFF"/>
<stop offset="0.2494" stop-color="#0093FF"/>
<stop offset="0.5046" stop-color="#007FFF"/>
<stop offset="0.7567" stop-color="#0072FF"/>
<stop offset="1" stop-color="#006EFF"/>
</linearGradient>
<linearGradient id="paint3_linear_1745_9670" x1="38.7623" y1="24.142" x2="38.7623" y2="7.28703" gradientUnits="userSpaceOnUse">
<stop stop-color="#00AFFF"/>
<stop offset="0.2494" stop-color="#0093FF"/>
<stop offset="0.5046" stop-color="#007FFF"/>
<stop offset="0.7567" stop-color="#0072FF"/>
<stop offset="1" stop-color="#006EFF"/>
</linearGradient>
<linearGradient id="paint4_linear_1745_9670" x1="100.47" y1="24.142" x2="100.47" y2="7.28703" gradientUnits="userSpaceOnUse">
<stop stop-color="#00AFFF"/>
<stop offset="0.2494" stop-color="#0093FF"/>
<stop offset="0.5046" stop-color="#007FFF"/>
<stop offset="0.7567" stop-color="#0072FF"/>
<stop offset="1" stop-color="#006EFF"/>
</linearGradient>
<linearGradient id="paint5_linear_1745_9670" x1="33.0108" y1="23.8945" x2="33.0108" y2="7.06236" gradientUnits="userSpaceOnUse">
<stop stop-color="#00AFFF"/>
<stop offset="0.2494" stop-color="#0093FF"/>
<stop offset="0.5046" stop-color="#007FFF"/>
<stop offset="0.7567" stop-color="#0072FF"/>
<stop offset="1" stop-color="#006EFF"/>
</linearGradient>
<linearGradient id="paint6_linear_1745_9670" x1="13.9767" y1="23.8945" x2="13.9767" y2="7.06236" gradientUnits="userSpaceOnUse">
<stop stop-color="#00AFFF"/>
<stop offset="0.2494" stop-color="#0093FF"/>
<stop offset="0.5046" stop-color="#007FFF"/>
<stop offset="0.7567" stop-color="#0072FF"/>
<stop offset="1" stop-color="#006EFF"/>
</linearGradient>
</defs>
</svg>
