<?xml version="1.0" encoding="utf-8"?>
<!-- Generator: Adobe Illustrator 26.2.1, SVG Export Plug-In . SVG Version: 6.00 Build 0)  -->
<svg version="1.1" id="Layer_1" xmlns="http://www.w3.org/2000/svg" xmlns:xlink="http://www.w3.org/1999/xlink" x="0px" y="0px"
	 viewBox="0 0 755 343.3" style="enable-background:new 0 0 755 343.3;" xml:space="preserve">
<style type="text/css">
	.st0{display:none;}
	.st1{display:inline;fill:#F15A24;}
	.st2{display:inline;}
	.st3{fill:#FFFFFF;}
	.st4{fill:#418FDE;}
	.st5{fill:#CE0058;}
	.st6{fill:#48A23F;}
</style>
<g id="Layer_2_00000165934663762037143610000010479927353128717455_" class="st0">
	<rect x="-162.5" y="-266.6" class="st1" width="1080" height="216"/>
</g>
<g id="Layer_1_00000160897593112882215870000016644371470319966848_" class="st0">
	<g class="st2">
		<path class="st3" d="M10.8-201.4c-3.6,0-6.3,1.3-8.4,3.8c-2,2.5-3.1,6-3.1,10.4c0,4.6,1,8.2,2.9,10.5s4.8,3.6,8.5,3.6
			c1.6,0,3.2-0.2,4.7-0.5s3.1-0.7,4.7-1.2v5.3c-3,1.1-6.3,1.7-10.1,1.7c-5.5,0-9.8-1.7-12.8-5c-3-3.4-4.5-8.2-4.5-14.4
			c0-3.9,0.7-7.4,2.2-10.3c1.5-2.9,3.5-5.2,6.2-6.8c2.7-1.6,5.9-2.4,9.6-2.4c3.9,0,7.4,0.8,10.7,2.4l-2.2,5.1
			c-1.3-0.6-2.6-1.1-4.1-1.6C13.8-201.2,12.4-201.4,10.8-201.4z"/>
		<path class="st3" d="M47.8-168.3l-0.9-3.8h-0.3c-0.8,1.3-2,2.4-3.6,3.1c-1.6,0.8-3.3,1.1-5.3,1.1c-3.5,0-6.1-0.9-7.8-2.6
			s-2.6-4.3-2.6-7.8v-18.6h6.1v17.6c0,2.2,0.4,3.8,1.3,4.9c0.9,1.1,2.3,1.6,4.2,1.6c2.6,0,4.4-0.8,5.6-2.3c1.2-1.5,1.8-4.1,1.8-7.7
			v-14.1h6.1v28.6C52.4-168.3,47.8-168.3,47.8-168.3z"/>
		<path class="st3" d="M80.5-176.5c0,2.8-1,4.9-3.1,6.4c-2,1.5-5,2.2-8.7,2.2c-3.8,0-6.9-0.6-9.2-1.7v-5.3c3.4,1.6,6.5,2.3,9.4,2.3
			c3.7,0,5.6-1.1,5.6-3.4c0-0.7-0.2-1.3-0.6-1.8c-0.4-0.5-1.1-1-2-1.5s-2.3-1.1-4-1.8c-3.3-1.3-5.5-2.6-6.7-3.8
			c-1.2-1.3-1.7-2.9-1.7-5c0-2.4,1-4.4,3-5.7c2-1.4,4.7-2,8.1-2c3.4,0,6.5,0.7,9.5,2l-2,4.6c-3.1-1.3-5.7-1.9-7.8-1.9
			c-3.2,0-4.8,0.9-4.8,2.7c0,0.9,0.4,1.7,1.3,2.3s2.7,1.5,5.5,2.6c2.4,0.9,4.1,1.8,5.1,2.5c1.1,0.8,1.9,1.6,2.4,2.6
			S80.5-177.9,80.5-176.5z"/>
		<path class="st3" d="M97.7-172.7c1.5,0,3-0.2,4.5-0.7v4.6c-0.7,0.3-1.5,0.5-2.6,0.7s-2.2,0.3-3.3,0.3c-5.8,0-8.6-3-8.6-9.1v-15.4
			h-3.9v-2.7l4.2-2.2l2.1-6.1h3.8v6.4h8.2v4.6h-8.2v15.3c0,1.5,0.4,2.5,1.1,3.2C95.6-173.1,96.5-172.7,97.7-172.7z"/>
		<path class="st3" d="M133.3-182.7c0,4.7-1.2,8.3-3.6,10.9c-2.4,2.6-5.7,3.9-10,3.9c-2.7,0-5-0.6-7.1-1.8c-2.1-1.2-3.6-2.9-4.7-5.2
			s-1.7-4.9-1.7-7.9c0-4.6,1.2-8.3,3.6-10.9c2.4-2.6,5.7-3.9,10.1-3.9c4.1,0,7.4,1.3,9.8,4C132.1-190.8,133.3-187.2,133.3-182.7z
			 M112.5-182.7c0,6.6,2.4,9.9,7.3,9.9c4.8,0,7.2-3.3,7.2-9.9c0-6.5-2.4-9.8-7.3-9.8c-2.6,0-4.4,0.8-5.6,2.5
			C113-188.3,112.5-185.8,112.5-182.7z"/>
		<path class="st3" d="M164.4-168.3h-6.1V-186c0-2.2-0.4-3.8-1.2-4.9c-0.8-1.1-2.1-1.6-3.9-1.6c-2.3,0-4.1,0.8-5.2,2.3
			s-1.6,4.1-1.6,7.6v14.3h-6.1v-28.6h4.8l0.9,3.8h0.3c0.8-1.4,1.9-2.4,3.5-3.2c1.5-0.7,3.2-1.1,5-1.1c4.4,0,7.3,1.5,8.7,4.5h0.4
			c0.8-1.4,2-2.5,3.6-3.3c1.5-0.8,3.3-1.2,5.3-1.2c3.4,0,5.9,0.9,7.5,2.6s2.3,4.4,2.3,7.9v18.7h-6.1V-186c0-2.2-0.4-3.8-1.3-4.9
			c-0.8-1.1-2.1-1.6-3.9-1.6c-2.4,0-4.1,0.7-5.2,2.2s-1.6,3.7-1.6,6.8L164.4-168.3L164.4-168.3z"/>
		<path class="st3" d="M203.5-167.8c-4.5,0-7.9-1.3-10.4-3.9c-2.5-2.6-3.8-6.2-3.8-10.7c0-4.7,1.2-8.4,3.5-11c2.3-2.7,5.5-4,9.6-4
			c3.8,0,6.8,1.1,9,3.4s3.3,5.5,3.3,9.5v3.3h-19.2c0.1,2.8,0.8,4.9,2.3,6.4c1.4,1.5,3.4,2.2,6,2.2c1.7,0,3.3-0.2,4.7-0.5
			s3-0.8,4.7-1.6v4.9c-1.5,0.7-3,1.2-4.5,1.5C207.1-167.9,205.4-167.8,203.5-167.8z M202.3-192.9c-1.9,0-3.5,0.6-4.6,1.8
			c-1.2,1.2-1.9,3-2.1,5.4h13c0-2.4-0.6-4.2-1.7-5.4C205.8-192.2,204.3-192.9,202.3-192.9z"/>
		<path class="st3" d="M236-197.5c1.2,0,2.2,0.1,3,0.3l-0.6,5.7c-0.9-0.2-1.8-0.3-2.7-0.3c-2.4,0-4.4,0.8-5.9,2.4
			c-1.5,1.6-2.3,3.6-2.3,6.2v15h-6v-28.7h4.8l0.8,5h0.3c0.9-1.7,2.2-3.1,3.7-4.1C232.6-197,234.2-197.5,236-197.5z"/>
		<path class="st3" d="M263.6-176.5c0,2.8-1,4.9-3.1,6.4c-2,1.5-5,2.2-8.7,2.2c-3.8,0-6.9-0.6-9.2-1.7v-5.3c3.4,1.6,6.5,2.3,9.4,2.3
			c3.7,0,5.6-1.1,5.6-3.4c0-0.7-0.2-1.3-0.6-1.8s-1.1-1-2-1.5s-2.3-1.1-4-1.8c-3.3-1.3-5.5-2.6-6.7-3.8c-1.2-1.3-1.7-2.9-1.7-5
			c0-2.4,1-4.4,3-5.7c2-1.4,4.7-2,8.1-2c3.4,0,6.5,0.7,9.5,2l-2,4.6c-3.1-1.3-5.7-1.9-7.8-1.9c-3.2,0-4.8,0.9-4.8,2.7
			c0,0.9,0.4,1.7,1.3,2.3s2.7,1.5,5.5,2.6c2.4,0.9,4.1,1.8,5.1,2.5c1.1,0.8,1.9,1.6,2.4,2.6S263.6-177.9,263.6-176.5z"/>
		<path class="st3" d="M304.1-168.3l-0.9-3.8h-0.3c-0.8,1.3-2,2.4-3.6,3.1c-1.6,0.8-3.3,1.1-5.3,1.1c-3.5,0-6.1-0.9-7.8-2.6
			c-1.7-1.7-2.6-4.3-2.6-7.8v-18.6h6.1v17.6c0,2.2,0.4,3.8,1.3,4.9c0.9,1.1,2.3,1.6,4.2,1.6c2.6,0,4.4-0.8,5.6-2.3s1.8-4.1,1.8-7.7
			v-14.1h6.1v28.6C308.7-168.3,304.1-168.3,304.1-168.3z"/>
		<path class="st3" d="M336.8-176.5c0,2.8-1,4.9-3.1,6.4c-2,1.5-5,2.2-8.7,2.2c-3.8,0-6.9-0.6-9.2-1.7v-5.3c3.4,1.6,6.5,2.3,9.4,2.3
			c3.7,0,5.6-1.1,5.6-3.4c0-0.7-0.2-1.3-0.6-1.8s-1.1-1-2-1.5s-2.3-1.1-4-1.8c-3.3-1.3-5.5-2.6-6.7-3.8c-1.2-1.3-1.7-2.9-1.7-5
			c0-2.4,1-4.4,3-5.7c2-1.4,4.7-2,8.1-2s6.5,0.7,9.5,2l-2,4.6c-3.1-1.3-5.7-1.9-7.8-1.9c-3.2,0-4.8,0.9-4.8,2.7
			c0,0.9,0.4,1.7,1.3,2.3s2.7,1.5,5.5,2.6c2.4,0.9,4.1,1.8,5.1,2.5c1.1,0.8,1.9,1.6,2.4,2.6S336.8-177.9,336.8-176.5z"/>
		<path class="st3" d="M355.9-167.8c-4.5,0-7.9-1.3-10.4-3.9c-2.5-2.6-3.8-6.2-3.8-10.7c0-4.7,1.2-8.4,3.5-11c2.3-2.7,5.5-4,9.6-4
			c3.8,0,6.8,1.1,9,3.4s3.3,5.5,3.3,9.5v3.3H348c0.1,2.8,0.8,4.9,2.3,6.4c1.4,1.5,3.4,2.2,6,2.2c1.7,0,3.3-0.2,4.7-0.5
			s3-0.8,4.7-1.6v4.9c-1.5,0.7-3,1.2-4.5,1.5C359.5-167.9,357.8-167.8,355.9-167.8z M354.7-192.9c-1.9,0-3.5,0.6-4.6,1.8
			c-1.2,1.2-1.9,3-2.1,5.4h13c0-2.4-0.6-4.2-1.7-5.4C358.2-192.2,356.7-192.9,354.7-192.9z"/>
		<path class="st3" d="M406.9-176.5c0,2.8-1,4.9-3.1,6.4c-2,1.5-5,2.2-8.7,2.2c-3.8,0-6.9-0.6-9.2-1.7v-5.3c3.4,1.6,6.5,2.3,9.4,2.3
			c3.7,0,5.6-1.1,5.6-3.4c0-0.7-0.2-1.3-0.6-1.8c-0.4-0.5-1.1-1-2-1.5s-2.3-1.1-4-1.8c-3.3-1.3-5.5-2.6-6.7-3.8
			c-1.2-1.3-1.7-2.9-1.7-5c0-2.4,1-4.4,3-5.7c2-1.4,4.7-2,8.1-2c3.4,0,6.5,0.7,9.5,2l-2,4.6c-3.1-1.3-5.7-1.9-7.8-1.9
			c-3.2,0-4.8,0.9-4.8,2.7c0,0.9,0.4,1.7,1.3,2.3s2.7,1.5,5.5,2.6c2.4,0.9,4.1,1.8,5.1,2.5c1.1,0.8,1.9,1.6,2.4,2.6
			S406.9-177.9,406.9-176.5z"/>
		<path class="st3" d="M426-167.8c-4.5,0-7.9-1.3-10.4-3.9c-2.5-2.6-3.8-6.2-3.8-10.7c0-4.7,1.2-8.4,3.5-11c2.3-2.7,5.5-4,9.6-4
			c3.8,0,6.8,1.1,9,3.4s3.3,5.5,3.3,9.5v3.3h-19.1c0.1,2.8,0.8,4.9,2.3,6.4c1.4,1.5,3.4,2.2,6,2.2c1.7,0,3.3-0.2,4.7-0.5
			s3-0.8,4.7-1.6v4.9c-1.5,0.7-3,1.2-4.5,1.5C429.6-167.9,427.9-167.8,426-167.8z M424.8-192.9c-1.9,0-3.5,0.6-4.6,1.8
			c-1.2,1.2-1.9,3-2.1,5.4h13c0-2.4-0.6-4.2-1.7-5.4C428.3-192.2,426.8-192.9,424.8-192.9z"/>
		<path class="st3" d="M461.9-168.3l-1.2-4h-0.2c-1.4,1.7-2.8,2.9-4.2,3.6c-1.4,0.6-3.2,0.9-5.4,0.9c-2.8,0-5-0.8-6.6-2.3
			s-2.4-3.7-2.4-6.4c0-3,1.1-5.2,3.3-6.7s5.5-2.3,10-2.5l4.9-0.2v-1.5c0-1.8-0.4-3.2-1.3-4.1c-0.9-0.9-2.2-1.4-4-1.4
			c-1.5,0-2.9,0.2-4.2,0.6c-1.3,0.4-2.6,0.9-3.9,1.5l-2-4.3c1.6-0.8,3.3-1.4,5.1-1.9c1.8-0.4,3.6-0.6,5.2-0.6c3.6,0,6.4,0.8,8.2,2.4
			c1.9,1.6,2.8,4.1,2.8,7.5v19.3h-4.1V-168.3z M452.8-172.5c2.2,0,4-0.6,5.3-1.9c1.3-1.2,2-3,2-5.2v-2.5l-3.7,0.2
			c-2.9,0.1-4.9,0.6-6.2,1.4c-1.3,0.9-2,2.2-2,3.9c0,1.3,0.4,2.3,1.1,3C450.2-172.8,451.3-172.5,452.8-172.5z"/>
		<path class="st3" d="M489.3-197.5c1.2,0,2.2,0.1,3,0.3l-0.6,5.7c-0.9-0.2-1.8-0.3-2.7-0.3c-2.4,0-4.4,0.8-5.9,2.4
			c-1.5,1.6-2.3,3.6-2.3,6.2v15h-6.1v-28.7h4.8l0.8,5h0.3c0.9-1.7,2.2-3.1,3.7-4.1C485.9-197,487.5-197.5,489.3-197.5z"/>
		<path class="st3" d="M509.1-167.8c-4.3,0-7.6-1.3-9.9-3.8c-2.3-2.5-3.4-6.2-3.4-10.9c0-4.8,1.2-8.5,3.5-11.1
			c2.4-2.6,5.8-3.9,10.2-3.9c3,0,5.7,0.6,8.2,1.7l-1.8,4.9c-2.6-1-4.7-1.5-6.4-1.5c-5,0-7.4,3.3-7.4,9.9c0,3.2,0.6,5.6,1.9,7.2
			c1.2,1.6,3,2.4,5.4,2.4c2.7,0,5.3-0.7,7.7-2v5.3c-1.1,0.6-2.2,1.1-3.5,1.4C512.4-167.9,510.9-167.8,509.1-167.8z"/>
		<path class="st3" d="M549-168.3h-6.1v-17.6c0-2.2-0.4-3.9-1.3-4.9c-0.9-1.1-2.3-1.6-4.2-1.6c-2.6,0-4.4,0.8-5.6,2.3
			c-1.2,1.5-1.8,4.1-1.8,7.7v14.2h-6.1v-40.4h6.1v10.2c0,1.6-0.1,3.4-0.3,5.3h0.4c0.8-1.4,2-2.4,3.5-3.2c1.5-0.8,3.2-1.1,5.2-1.1
			c6.9,0,10.4,3.5,10.4,10.5v18.6H549z"/>
		<path class="st3" d="M583.7-167.8c-4.5,0-7.9-1.3-10.4-3.9c-2.5-2.6-3.8-6.2-3.8-10.7c0-4.7,1.2-8.4,3.5-11c2.3-2.7,5.5-4,9.6-4
			c3.8,0,6.8,1.1,9,3.4s3.3,5.5,3.3,9.5v3.3h-19.1c0.1,2.8,0.8,4.9,2.3,6.4c1.4,1.5,3.4,2.2,6,2.2c1.7,0,3.3-0.2,4.7-0.5
			s3-0.8,4.7-1.6v4.9c-1.5,0.7-3,1.2-4.5,1.5C587.4-167.9,585.7-167.8,583.7-167.8z M582.6-192.9c-1.9,0-3.5,0.6-4.6,1.8
			c-1.2,1.2-1.9,3-2.1,5.4h13c0-2.4-0.6-4.2-1.7-5.4C586.1-192.2,584.6-192.9,582.6-192.9z"/>
		<path class="st3" d="M627-168.3h-6.1v-17.6c0-2.2-0.4-3.9-1.3-4.9c-0.9-1.1-2.3-1.6-4.2-1.6c-2.6,0-4.5,0.8-5.6,2.3
			c-1.2,1.5-1.8,4.1-1.8,7.6v14.3h-6.1v-28.7h4.8l0.9,3.8h0.3c0.9-1.4,2.1-2.4,3.7-3.2c1.6-0.7,3.3-1.1,5.3-1.1
			c6.9,0,10.3,3.5,10.3,10.5v18.6H627z"/>
		<path class="st3" d="M659.6-196.9v3.3l-4.9,0.9c0.4,0.6,0.8,1.3,1.1,2.2c0.3,0.9,0.4,1.8,0.4,2.8c0,3-1,5.3-3.1,7
			c-2,1.7-4.8,2.5-8.4,2.5c-0.9,0-1.7-0.1-2.5-0.2c-1.3,0.8-2,1.8-2,2.8c0,0.7,0.3,1.1,0.9,1.5c0.6,0.3,1.7,0.5,3.4,0.5h5
			c3.2,0,5.6,0.7,7.2,2c1.6,1.3,2.5,3.3,2.5,5.8c0,3.2-1.3,5.7-4,7.5s-6.5,2.6-11.6,2.6c-3.9,0-6.9-0.7-8.9-2.1
			c-2.1-1.4-3.1-3.3-3.1-5.9c0-1.8,0.6-3.2,1.7-4.4c1.1-1.2,2.7-2,4.7-2.5c-0.8-0.3-1.5-0.9-2-1.7c-0.5-0.8-0.8-1.6-0.8-2.4
			c0-1.1,0.3-2,0.9-2.7c0.6-0.7,1.5-1.5,2.7-2.2c-1.5-0.6-2.7-1.7-3.6-3.1c-0.9-1.4-1.4-3.1-1.4-5.1c0-3.1,1-5.5,2.9-7.2
			c2-1.7,4.7-2.6,8.4-2.6c0.8,0,1.7,0.1,2.5,0.2c0.9,0.1,1.6,0.2,2,0.3h10V-196.9z M637.1-163.9c0,1.3,0.6,2.3,1.8,3s2.8,1.1,5,1.1
			c3.3,0,5.8-0.5,7.4-1.4c1.6-0.9,2.4-2.2,2.4-3.8c0-1.2-0.4-2.1-1.3-2.7c-0.9-0.6-2.5-0.8-5-0.8h-4.6c-1.7,0-3.1,0.4-4.2,1.2
			C637.6-166.4,637.1-165.3,637.1-163.9z M639.7-187.7c0,1.8,0.5,3.2,1.4,4.1c0.9,1,2.2,1.4,4,1.4c3.5,0,5.3-1.9,5.3-5.6
			c0-1.9-0.4-3.3-1.3-4.3c-0.9-1-2.2-1.5-4-1.5s-3.1,0.5-4,1.5S639.7-189.6,639.7-187.7z"/>
		<path class="st3" d="M664.5-204.5c0-1.1,0.3-1.9,0.9-2.5c0.6-0.6,1.4-0.9,2.5-0.9s1.9,0.3,2.5,0.9s0.9,1.4,0.9,2.5
			c0,1-0.3,1.9-0.9,2.4c-0.6,0.6-1.4,0.9-2.5,0.9s-2-0.3-2.5-0.9C664.8-202.7,664.5-203.5,664.5-204.5z M671-168.3h-6.1v-28.6h6.1
			V-168.3z"/>
		<path class="st3" d="M704.9-168.3h-6.1v-17.6c0-2.2-0.4-3.9-1.3-4.9c-0.9-1.1-2.3-1.6-4.2-1.6c-2.6,0-4.5,0.8-5.6,2.3
			c-1.2,1.5-1.8,4.1-1.8,7.6v14.3h-6.1v-28.7h4.8l0.9,3.8h0.3c0.9-1.4,2.1-2.4,3.7-3.2c1.6-0.7,3.3-1.1,5.3-1.1
			c6.9,0,10.3,3.5,10.3,10.5v18.6H704.9z"/>
		<path class="st3" d="M725.8-167.8c-4.5,0-7.9-1.3-10.4-3.9c-2.5-2.6-3.8-6.2-3.8-10.7c0-4.7,1.2-8.4,3.5-11c2.3-2.7,5.5-4,9.6-4
			c3.8,0,6.8,1.1,9,3.4s3.3,5.5,3.3,9.5v3.3h-19.1c0.1,2.8,0.8,4.9,2.3,6.4c1.4,1.5,3.4,2.2,6,2.2c1.7,0,3.3-0.2,4.7-0.5
			s3-0.8,4.7-1.6v4.9c-1.5,0.7-3,1.2-4.5,1.5C729.5-167.9,727.8-167.8,725.8-167.8z M724.7-192.9c-1.9,0-3.5,0.6-4.6,1.8
			c-1.2,1.2-1.9,3-2.1,5.4h13c0-2.4-0.6-4.2-1.7-5.4C728.2-192.2,726.6-192.9,724.7-192.9z"/>
		<path class="st3" d="M763.1-176.5c0,2.8-1,4.9-3.1,6.4c-2,1.5-5,2.2-8.7,2.2c-3.8,0-6.9-0.6-9.2-1.7v-5.3c3.4,1.6,6.5,2.3,9.4,2.3
			c3.7,0,5.6-1.1,5.6-3.4c0-0.7-0.2-1.3-0.6-1.8c-0.4-0.5-1.1-1-2-1.5s-2.3-1.1-4-1.8c-3.3-1.3-5.5-2.6-6.7-3.8
			c-1.2-1.3-1.7-2.9-1.7-5c0-2.4,1-4.4,3-5.7c2-1.4,4.7-2,8.1-2c3.4,0,6.5,0.7,9.5,2l-2,4.6c-3.1-1.3-5.7-1.9-7.8-1.9
			c-3.2,0-4.8,0.9-4.8,2.7c0,0.9,0.4,1.7,1.3,2.3s2.7,1.5,5.5,2.6c2.4,0.9,4.1,1.8,5.1,2.5c1.1,0.8,1.9,1.6,2.4,2.6
			S763.1-177.9,763.1-176.5z"/>
		<path class="st3" d="M103.2-109.1c1.5,0,3-0.2,4.5-0.7v4.6c-0.7,0.3-1.5,0.5-2.6,0.7s-2.2,0.3-3.3,0.3c-5.8,0-8.6-3-8.6-9.1v-15.4
			h-3.9v-2.7l4.2-2.2l2.1-6.1h3.8v6.4h8.2v4.6h-8.2v15.3c0,1.5,0.4,2.5,1.1,3.2C101-109.5,102-109.1,103.2-109.1z"/>
		<path class="st3" d="M138.7-119.1c0,4.7-1.2,8.3-3.6,10.9c-2.4,2.6-5.7,3.9-10,3.9c-2.7,0-5-0.6-7.1-1.8s-3.6-2.9-4.7-5.2
			s-1.7-4.9-1.7-7.9c0-4.6,1.2-8.3,3.6-10.9c2.4-2.6,5.7-3.9,10.1-3.9c4.1,0,7.4,1.3,9.8,4C137.5-127.2,138.7-123.6,138.7-119.1z
			 M117.9-119.1c0,6.6,2.4,9.9,7.3,9.9c4.8,0,7.2-3.3,7.2-9.9c0-6.5-2.4-9.8-7.3-9.8c-2.6,0-4.4,0.8-5.6,2.5
			C118.5-124.7,117.9-122.2,117.9-119.1z"/>
		<path class="st3" d="M173.9-128.7h-7v24h-6.1v-24h-4.7v-2.9l4.7-1.9v-1.9c0-3.4,0.8-5.9,2.4-7.5c1.6-1.6,4-2.4,7.3-2.4
			c2.1,0,4.2,0.4,6.3,1.1l-1.6,4.6c-1.5-0.5-2.9-0.7-4.3-0.7s-2.4,0.4-3,1.3c-0.6,0.9-0.9,2.1-0.9,3.8v1.9h7L173.9-128.7
			L173.9-128.7z M178.4-140.9c0-1.1,0.3-1.9,0.9-2.5c0.6-0.6,1.4-0.9,2.5-0.9s1.9,0.3,2.5,0.9c0.6,0.6,0.9,1.4,0.9,2.5
			c0,1-0.3,1.9-0.9,2.4c-0.6,0.6-1.4,0.9-2.5,0.9s-2-0.3-2.5-0.9C178.7-139.1,178.4-139.9,178.4-140.9z M184.8-104.7h-6.1v-28.6h6.1
			V-104.7z"/>
		<path class="st3" d="M218.7-104.7h-6.1v-17.6c0-2.2-0.4-3.9-1.3-4.9c-0.9-1.1-2.3-1.6-4.2-1.6c-2.6,0-4.5,0.8-5.6,2.3
			c-1.2,1.5-1.8,4.1-1.8,7.6v14.3h-6.2v-28.6h4.8l0.9,3.8h0.3c0.9-1.4,2.1-2.4,3.7-3.2c1.6-0.7,3.3-1.1,5.3-1.1
			c6.9,0,10.3,3.5,10.3,10.5L218.7-104.7L218.7-104.7z"/>
		<path class="st3" d="M236.8-104.2c-3.6,0-6.4-1.3-8.4-3.9c-2-2.6-3-6.2-3-10.9s1-8.3,3-11c2-2.6,4.8-3.9,8.4-3.9
			c3.8,0,6.6,1.4,8.6,4.2h0.3c-0.3-2.1-0.4-3.7-0.4-4.9V-145h6.1v40.3h-4.8l-1.1-3.8h-0.3C243.4-105.6,240.6-104.2,236.8-104.2z
			 M238.5-109.1c2.5,0,4.3-0.7,5.5-2.1c1.1-1.4,1.7-3.7,1.8-6.8v-0.9c0-3.6-0.6-6.2-1.8-7.7c-1.2-1.5-3-2.3-5.5-2.3
			c-2.1,0-3.8,0.9-4.9,2.6c-1.2,1.7-1.7,4.2-1.7,7.4s0.6,5.6,1.7,7.3C234.5-110,236.2-109.1,238.5-109.1z"/>
		<path class="st3" d="M297.4-104.7l-3.7-13.4c-0.4-1.4-1.3-4.7-2.4-9.9h-0.2c-1,4.7-1.8,8-2.4,9.9l-3.8,13.3h-6.7l-8-28.6h6.2
			l3.6,14.1c0.8,3.5,1.4,6.5,1.8,9h0.2c0.2-1.3,0.4-2.7,0.8-4.3s0.7-2.9,0.9-3.7l4.3-15.1h6.7l4.2,15.1c0.3,0.8,0.6,2.1,1,3.9
			c0.4,1.7,0.6,3.1,0.7,4.1h0.2c0.3-2.1,0.9-5.1,1.8-8.9l3.7-14.1h6.1l-8.1,28.6L297.4-104.7L297.4-104.7z"/>
		<path class="st3" d="M342.4-104.7h-6.1v-17.6c0-2.2-0.4-3.9-1.3-4.9c-0.9-1.1-2.3-1.6-4.2-1.6c-2.6,0-4.4,0.8-5.6,2.3
			s-1.8,4.1-1.8,7.7v14.2h-6.1v-40.3h6.1v10.2c0,1.6-0.1,3.4-0.3,5.3h0.4c0.8-1.4,2-2.4,3.5-3.2s3.2-1.1,5.2-1.1
			c6.9,0,10.4,3.5,10.4,10.5v18.5H342.4z"/>
		<path class="st3" d="M368.8-104.7l-1.2-4h-0.2c-1.4,1.7-2.8,2.9-4.2,3.6c-1.4,0.6-3.2,0.9-5.4,0.9c-2.8,0-5-0.8-6.6-2.3
			s-2.4-3.7-2.4-6.4c0-3,1.1-5.2,3.3-6.7s5.5-2.3,10-2.5l4.9-0.2v-1.5c0-1.8-0.4-3.2-1.3-4.1c-0.9-0.9-2.2-1.4-4-1.4
			c-1.5,0-2.9,0.2-4.2,0.6c-1.3,0.4-2.6,0.9-3.9,1.5l-2-4.3c1.6-0.8,3.3-1.4,5.1-1.9c1.8-0.4,3.6-0.6,5.2-0.6c3.6,0,6.4,0.8,8.2,2.4
			c1.9,1.6,2.8,4.1,2.8,7.5v19.3L368.8-104.7L368.8-104.7z M359.7-108.9c2.2,0,4-0.6,5.3-1.9c1.3-1.2,2-3,2-5.2v-2.5l-3.7,0.2
			c-2.9,0.1-4.9,0.6-6.2,1.4c-1.3,0.9-2,2.2-2,3.9c0,1.3,0.4,2.3,1.1,3C357.1-109.2,358.2-108.9,359.7-108.9z"/>
		<path class="st3" d="M392.3-109.1c1.5,0,3-0.2,4.5-0.7v4.6c-0.7,0.3-1.5,0.5-2.6,0.7s-2.2,0.3-3.3,0.3c-5.8,0-8.6-3-8.6-9.1v-15.4
			h-3.9v-2.7l4.2-2.2l2.1-6.1h3.8v6.4h8.2v4.6h-8.2v15.3c0,1.5,0.4,2.5,1.1,3.2C390.2-109.5,391.1-109.1,392.3-109.1z"/>
		<path class="st3" d="M426.9-109.1c1.5,0,3-0.2,4.5-0.7v4.6c-0.7,0.3-1.5,0.5-2.6,0.7s-2.2,0.3-3.3,0.3c-5.8,0-8.6-3-8.6-9.1v-15.4
			H413v-2.7l4.2-2.2l2.1-6.1h3.8v6.4h8.2v4.6h-8.2v15.3c0,1.5,0.4,2.5,1.1,3.2C424.7-109.5,425.7-109.1,426.9-109.1z"/>
		<path class="st3" d="M462.3-104.7h-6.1v-17.6c0-2.2-0.4-3.9-1.3-4.9c-0.9-1.1-2.3-1.6-4.2-1.6c-2.6,0-4.4,0.8-5.6,2.3
			c-1.2,1.5-1.8,4.1-1.8,7.7v14.2h-6.1v-40.3h6.1v10.2c0,1.6-0.1,3.4-0.3,5.3h0.4c0.8-1.4,2-2.4,3.5-3.2s3.2-1.1,5.2-1.1
			c6.9,0,10.4,3.5,10.4,10.5v18.5H462.3z"/>
		<path class="st3" d="M483.2-104.2c-4.5,0-7.9-1.3-10.4-3.9c-2.5-2.6-3.8-6.2-3.8-10.7c0-4.7,1.2-8.4,3.5-11c2.3-2.7,5.5-4,9.6-4
			c3.8,0,6.8,1.1,9,3.4c2.2,2.3,3.3,5.5,3.3,9.5v3.3h-19.1c0.1,2.8,0.8,4.9,2.3,6.4c1.4,1.5,3.4,2.2,6,2.2c1.7,0,3.3-0.2,4.7-0.5
			s3-0.8,4.7-1.6v4.9c-1.5,0.7-3,1.2-4.5,1.5C486.9-104.3,485.2-104.2,483.2-104.2z M482.1-129.3c-1.9,0-3.5,0.6-4.6,1.8
			c-1.2,1.2-1.9,3-2.1,5.4h13c0-2.4-0.6-4.2-1.7-5.4C485.6-128.6,484-129.3,482.1-129.3z"/>
		<path class="st3" d="M496.9-133.3h6.6l5.8,16.2c0.9,2.3,1.5,4.5,1.8,6.5h0.2c0.2-0.9,0.4-2.1,0.9-3.5c0.5-1.4,2.6-7.8,6.6-19.3
			h6.6L513.2-101c-2.2,6-5.9,8.9-11.1,8.9c-1.3,0-2.7-0.1-3.9-0.4v-4.8c0.9,0.2,2,0.3,3.1,0.3c2.9,0,5-1.7,6.2-5.1l1.1-2.7
			L496.9-133.3z"/>
		<path class="st3" d="M568.6-104.7h-6.1v-17.6c0-2.2-0.4-3.9-1.3-4.9c-0.9-1.1-2.3-1.6-4.2-1.6c-2.6,0-4.5,0.8-5.6,2.3
			c-1.2,1.5-1.8,4.1-1.8,7.6v14.3h-6.1v-28.6h4.8l0.9,3.8h0.3c0.9-1.4,2.1-2.4,3.7-3.2c1.6-0.7,3.3-1.1,5.3-1.1
			c6.9,0,10.3,3.5,10.3,10.5v18.5H568.6z"/>
		<path class="st3" d="M589.6-104.2c-4.5,0-7.9-1.3-10.4-3.9c-2.5-2.6-3.8-6.2-3.8-10.7c0-4.7,1.2-8.4,3.5-11c2.3-2.7,5.5-4,9.6-4
			c3.8,0,6.8,1.1,9,3.4c2.2,2.3,3.3,5.5,3.3,9.5v3.3h-19.1c0.1,2.8,0.8,4.9,2.3,6.4c1.4,1.5,3.4,2.2,6,2.2c1.7,0,3.3-0.2,4.7-0.5
			s3-0.8,4.7-1.6v4.9c-1.5,0.7-3,1.2-4.5,1.5C593.3-104.3,591.5-104.2,589.6-104.2z M588.5-129.3c-1.9,0-3.5,0.6-4.6,1.8
			c-1.2,1.2-1.9,3-2.1,5.4h13c0-2.4-0.6-4.2-1.7-5.4C591.9-128.6,590.4-129.3,588.5-129.3z"/>
		<path class="st3" d="M620.1-104.2c-4.5,0-7.9-1.3-10.4-3.9c-2.5-2.6-3.8-6.2-3.8-10.7c0-4.7,1.2-8.4,3.5-11c2.3-2.7,5.5-4,9.6-4
			c3.8,0,6.8,1.1,9,3.4c2.2,2.3,3.3,5.5,3.3,9.5v3.3h-19.1c0.1,2.8,0.8,4.9,2.3,6.4c1.4,1.5,3.4,2.2,6,2.2c1.7,0,3.3-0.2,4.7-0.5
			s3-0.8,4.7-1.6v4.9c-1.5,0.7-3,1.2-4.5,1.5C623.8-104.3,622.1-104.2,620.1-104.2z M619-129.3c-1.9,0-3.5,0.6-4.6,1.8
			c-1.2,1.2-1.9,3-2.1,5.4h13c0-2.4-0.6-4.2-1.7-5.4C622.5-128.6,620.9-129.3,619-129.3z"/>
		<path class="st3" d="M647.8-104.2c-3.6,0-6.4-1.3-8.4-3.9c-2-2.6-3-6.2-3-10.9s1-8.3,3-11c2-2.6,4.8-3.9,8.4-3.9
			c3.8,0,6.6,1.4,8.6,4.2h0.3c-0.3-2.1-0.4-3.7-0.4-4.9V-145h6.1v40.3h-4.8l-1.1-3.8h-0.3C654.4-105.6,651.6-104.2,647.8-104.2z
			 M649.4-109.1c2.5,0,4.3-0.7,5.5-2.1c1.1-1.4,1.7-3.7,1.8-6.8v-0.9c0-3.6-0.6-6.2-1.8-7.7c-1.2-1.5-3-2.3-5.5-2.3
			c-2.1,0-3.8,0.9-4.9,2.6c-1.2,1.7-1.7,4.2-1.7,7.4s0.6,5.6,1.7,7.3C645.5-110,647.2-109.1,649.4-109.1z"/>
	</g>
</g>
<g id="Layer_1_copy" class="st0">
	<g class="st2">
		<path class="st3" d="M64.7-178.6c0,3.4-1.2,6-3.6,7.9c-2.4,1.9-5.8,2.9-10.1,2.9s-7.8-0.7-10.5-2v-5.8c1.7,0.8,3.6,1.4,5.5,1.9
			s3.7,0.7,5.4,0.7c2.4,0,4.3-0.5,5.4-1.4c1.2-0.9,1.7-2.2,1.7-3.8c0-1.4-0.5-2.6-1.6-3.6s-3.3-2.1-6.6-3.5c-3.5-1.4-5.9-3-7.3-4.8
			c-1.4-1.8-2.1-4-2.1-6.5c0-3.2,1.1-5.6,3.4-7.5c2.2-1.8,5.3-2.7,9-2.7c3.6,0,7.2,0.8,10.8,2.4l-2,5c-3.4-1.4-6.4-2.1-9-2.1
			c-2,0-3.5,0.4-4.6,1.3c-1,0.9-1.6,2-1.6,3.5c0,1,0.2,1.8,0.6,2.5c0.4,0.7,1.1,1.4,2,2c0.9,0.6,2.7,1.4,5.1,2.5
			c2.8,1.2,4.8,2.2,6.1,3.2s2.2,2.1,2.8,3.4C64.4-181.8,64.7-180.3,64.7-178.6z"/>
		<path class="st3" d="M82-172.7c1.5,0,3-0.2,4.5-0.7v4.6c-0.7,0.3-1.5,0.5-2.6,0.7s-2.2,0.3-3.3,0.3c-5.8,0-8.6-3-8.6-9.1v-15.4
			h-3.9v-2.7l4.2-2.2l2.1-6.1h3.8v6.4h8.2v4.6h-8.2v15.3c0,1.5,0.4,2.5,1.1,3.2C79.8-173.1,80.8-172.7,82-172.7z"/>
		<path class="st3" d="M110.1-168.3l-1.2-4h-0.2c-1.4,1.7-2.8,2.9-4.2,3.6c-1.4,0.6-3.2,0.9-5.4,0.9c-2.8,0-5-0.8-6.6-2.3
			s-2.4-3.7-2.4-6.4c0-3,1.1-5.2,3.3-6.7s5.5-2.3,10-2.5l4.9-0.2v-1.5c0-1.8-0.4-3.2-1.3-4.1c-0.9-0.9-2.2-1.4-4-1.4
			c-1.5,0-2.9,0.2-4.2,0.6c-1.3,0.4-2.6,0.9-3.9,1.5l-2-4.3c1.6-0.8,3.3-1.4,5.1-1.9c1.8-0.4,3.6-0.6,5.2-0.6c3.6,0,6.4,0.8,8.2,2.4
			c1.9,1.6,2.8,4.1,2.8,7.5v19.3h-4.1V-168.3z M101-172.5c2.2,0,4-0.6,5.3-1.9c1.3-1.2,2-3,2-5.2v-2.5l-3.7,0.2
			c-2.9,0.1-4.9,0.6-6.2,1.4c-1.3,0.9-2,2.2-2,3.9c0,1.3,0.4,2.3,1.1,3C98.4-172.8,99.5-172.5,101-172.5z"/>
		<path class="st3" d="M148.1-168.3H142v-17.6c0-2.2-0.4-3.9-1.3-4.9c-0.9-1.1-2.3-1.6-4.2-1.6c-2.6,0-4.5,0.8-5.6,2.3
			c-1.2,1.5-1.8,4.1-1.8,7.6v14.3H123v-28.7h4.8l0.9,3.8h0.3c0.9-1.4,2.1-2.4,3.7-3.2c1.6-0.7,3.3-1.1,5.3-1.1
			c6.9,0,10.3,3.5,10.3,10.5v18.6H148.1z"/>
		<path class="st3" d="M166.2-167.8c-3.6,0-6.4-1.3-8.4-3.9c-2-2.6-3-6.2-3-10.9s1-8.3,3-11c2-2.6,4.8-3.9,8.4-3.9
			c3.8,0,6.6,1.4,8.6,4.2h0.3c-0.3-2.1-0.4-3.7-0.4-4.9v-10.4h6.1v40.3H176l-1.1-3.8h-0.3C172.8-169.2,170-167.8,166.2-167.8z
			 M167.8-172.7c2.5,0,4.3-0.7,5.5-2.1c1.1-1.4,1.7-3.7,1.8-6.8v-0.9c0-3.6-0.6-6.2-1.8-7.7c-1.2-1.5-3-2.3-5.5-2.3
			c-2.1,0-3.8,0.9-4.9,2.6c-1.2,1.7-1.7,4.2-1.7,7.4s0.6,5.6,1.7,7.3C163.9-173.6,165.6-172.7,167.8-172.7z"/>
		<path class="st3" d="M228.7-182.7c0,4.7-1.2,8.3-3.6,10.9c-2.4,2.6-5.7,3.9-10,3.9c-2.7,0-5-0.6-7.1-1.8c-2.1-1.2-3.6-2.9-4.7-5.2
			s-1.7-4.9-1.7-7.9c0-4.6,1.2-8.3,3.6-10.9c2.4-2.6,5.7-3.9,10.1-3.9c4.1,0,7.4,1.3,9.8,4C227.5-190.8,228.7-187.2,228.7-182.7z
			 M207.9-182.7c0,6.6,2.4,9.9,7.3,9.9c4.8,0,7.2-3.3,7.2-9.9c0-6.5-2.4-9.8-7.3-9.8c-2.6,0-4.4,0.8-5.6,2.5
			C208.5-188.3,207.9-185.8,207.9-182.7z"/>
		<path class="st3" d="M255.9-168.3l-0.9-3.8h-0.3c-0.8,1.3-2,2.4-3.6,3.1c-1.6,0.8-3.3,1.1-5.3,1.1c-3.5,0-6.1-0.9-7.8-2.6
			c-1.7-1.7-2.6-4.3-2.6-7.8v-18.6h6.1v17.6c0,2.2,0.4,3.8,1.3,4.9c0.9,1.1,2.3,1.6,4.2,1.6c2.6,0,4.4-0.8,5.6-2.3s1.8-4.1,1.8-7.7
			v-14.1h6.1v28.6C260.5-168.3,255.9-168.3,255.9-168.3z"/>
		<path class="st3" d="M280-172.7c1.5,0,3-0.2,4.5-0.7v4.6c-0.7,0.3-1.5,0.5-2.6,0.7s-2.2,0.3-3.3,0.3c-5.8,0-8.6-3-8.6-9.1v-15.4
			h-3.9v-2.7l4.2-2.2l2.1-6.1h3.8v6.4h8.2v4.6h-8.2v15.3c0,1.5,0.4,2.5,1.1,3.2C277.9-173.1,278.8-172.7,280-172.7z"/>
		<path class="st3" d="M321.9-168.3l-1.2-4h-0.2c-1.4,1.7-2.8,2.9-4.2,3.6c-1.4,0.6-3.2,0.9-5.4,0.9c-2.8,0-5-0.8-6.6-2.3
			s-2.4-3.7-2.4-6.4c0-3,1.1-5.2,3.3-6.7c2.2-1.5,5.5-2.3,10-2.5l4.9-0.2v-1.5c0-1.8-0.4-3.2-1.3-4.1c-0.9-0.9-2.2-1.4-4-1.4
			c-1.5,0-2.9,0.2-4.2,0.6c-1.3,0.4-2.6,0.9-3.9,1.5l-2-4.3c1.6-0.8,3.3-1.4,5.1-1.9c1.8-0.4,3.6-0.6,5.2-0.6c3.6,0,6.4,0.8,8.2,2.4
			c1.9,1.6,2.8,4.1,2.8,7.5v19.3h-4.1V-168.3z M312.8-172.5c2.2,0,4-0.6,5.3-1.9c1.3-1.2,2-3,2-5.2v-2.5l-3.7,0.2
			c-2.9,0.1-4.9,0.6-6.2,1.4c-1.3,0.9-2,2.2-2,3.9c0,1.3,0.4,2.3,1.1,3C310.2-172.8,311.3-172.5,312.8-172.5z"/>
		<path class="st3" d="M353.9-176.5c0,2.8-1,4.9-3.1,6.4c-2,1.5-5,2.2-8.7,2.2c-3.8,0-6.9-0.6-9.2-1.7v-5.3c3.4,1.6,6.5,2.3,9.4,2.3
			c3.7,0,5.6-1.1,5.6-3.4c0-0.7-0.2-1.3-0.6-1.8s-1.1-1-2-1.5s-2.3-1.1-4-1.8c-3.3-1.3-5.5-2.6-6.7-3.8c-1.2-1.3-1.7-2.9-1.7-5
			c0-2.4,1-4.4,3-5.7c2-1.4,4.7-2,8.1-2s6.5,0.7,9.5,2l-2,4.6c-3.1-1.3-5.7-1.9-7.8-1.9c-3.2,0-4.8,0.9-4.8,2.7
			c0,0.9,0.4,1.7,1.3,2.3s2.7,1.5,5.5,2.6c2.4,0.9,4.1,1.8,5.1,2.5c1.1,0.8,1.9,1.6,2.4,2.6S353.9-177.9,353.9-176.5z"/>
		<path class="st3" d="M384.9-172.7c1.5,0,3-0.2,4.5-0.7v4.6c-0.7,0.3-1.5,0.5-2.6,0.7s-2.2,0.3-3.3,0.3c-5.8,0-8.6-3-8.6-9.1v-15.4
			H371v-2.7l4.2-2.2l2.1-6.1h3.8v6.4h8.2v4.6h-8.2v15.3c0,1.5,0.4,2.5,1.1,3.2C382.8-173.1,383.7-172.7,384.9-172.7z"/>
		<path class="st3" d="M420.3-168.3h-6.1v-17.6c0-2.2-0.4-3.9-1.3-4.9c-0.9-1.1-2.3-1.6-4.2-1.6c-2.6,0-4.4,0.8-5.6,2.3
			c-1.2,1.5-1.8,4.1-1.8,7.7v14.2h-6.1v-40.4h6.1v10.2c0,1.6-0.1,3.4-0.3,5.3h0.4c0.8-1.4,2-2.4,3.5-3.2c1.5-0.8,3.2-1.1,5.2-1.1
			c6.9,0,10.4,3.5,10.4,10.5v18.6H420.3z"/>
		<path class="st3" d="M441.3-167.8c-4.5,0-7.9-1.3-10.4-3.9c-2.5-2.6-3.8-6.2-3.8-10.7c0-4.7,1.2-8.4,3.5-11c2.3-2.7,5.5-4,9.6-4
			c3.8,0,6.8,1.1,9,3.4s3.3,5.5,3.3,9.5v3.3h-19.1c0.1,2.8,0.8,4.9,2.3,6.4c1.4,1.5,3.4,2.2,6,2.2c1.7,0,3.3-0.2,4.7-0.5
			s3-0.8,4.7-1.6v4.9c-1.5,0.7-3,1.2-4.5,1.5C444.9-167.9,443.2-167.8,441.3-167.8z M440.1-192.9c-1.9,0-3.5,0.6-4.6,1.8
			c-1.2,1.2-1.9,3-2.1,5.4h13c0-2.4-0.6-4.2-1.7-5.4C443.6-192.2,442.1-192.9,440.1-192.9z"/>
		<path class="st3" d="M483.7-172.7c1.5,0,3-0.2,4.5-0.7v4.6c-0.7,0.3-1.5,0.5-2.6,0.7s-2.2,0.3-3.3,0.3c-5.8,0-8.6-3-8.6-9.1v-15.4
			h-3.9v-2.7l4.2-2.2l2.1-6.1h3.8v6.4h8.2v4.6h-8.2v15.3c0,1.5,0.4,2.5,1.1,3.2C481.6-173.1,482.5-172.7,483.7-172.7z"/>
		<path class="st3" d="M519.3-182.7c0,4.7-1.2,8.3-3.6,10.9c-2.4,2.6-5.7,3.9-10,3.9c-2.7,0-5-0.6-7.1-1.8c-2.1-1.2-3.6-2.9-4.7-5.2
			c-1.1-2.3-1.7-4.9-1.7-7.9c0-4.6,1.2-8.3,3.6-10.9c2.4-2.6,5.7-3.9,10.1-3.9c4.1,0,7.4,1.3,9.8,4
			C518.1-190.8,519.3-187.2,519.3-182.7z M498.4-182.7c0,6.6,2.4,9.9,7.3,9.9c4.8,0,7.2-3.3,7.2-9.9c0-6.5-2.4-9.8-7.3-9.8
			c-2.6,0-4.4,0.8-5.6,2.5C499-188.3,498.4-185.8,498.4-182.7z"/>
		<path class="st3" d="M540.8-167.8c-3.6,0-6.4-1.3-8.4-3.9H532c0.2,2.4,0.4,3.9,0.4,4.4v11.7h-6.1v-41.3h4.9
			c0.1,0.5,0.4,1.8,0.9,3.8h0.3c1.9-2.9,4.7-4.3,8.5-4.3c3.6,0,6.4,1.3,8.3,3.9c2,2.6,3,6.2,3,10.9c0,4.7-1,8.3-3,10.9
			C547.2-169.1,544.4-167.8,540.8-167.8z M539.3-192.5c-2.4,0-4.2,0.7-5.3,2.1c-1.1,1.4-1.7,3.7-1.7,6.8v0.9c0,3.5,0.6,6,1.7,7.6
			c1.1,1.6,2.9,2.3,5.4,2.3c2.1,0,3.7-0.9,4.9-2.6c1.1-1.7,1.7-4.2,1.7-7.4s-0.6-5.6-1.7-7.3C543.2-191.8,541.5-192.5,539.3-192.5z"
			/>
		<path class="st3" d="M587.6-197.5c1.2,0,2.2,0.1,3,0.3l-0.6,5.7c-0.9-0.2-1.8-0.3-2.7-0.3c-2.4,0-4.4,0.8-5.9,2.4
			c-1.5,1.6-2.3,3.6-2.3,6.2v15H573v-28.7h4.8l0.8,5h0.3c0.9-1.7,2.2-3.1,3.7-4.1C584.2-197,585.8-197.5,587.6-197.5z"/>
		<path class="st3" d="M608.4-167.8c-4.5,0-7.9-1.3-10.4-3.9c-2.5-2.6-3.8-6.2-3.8-10.7c0-4.7,1.2-8.4,3.5-11c2.3-2.7,5.5-4,9.6-4
			c3.8,0,6.8,1.1,9,3.4s3.3,5.5,3.3,9.5v3.3h-19.1c0.1,2.8,0.8,4.9,2.3,6.4c1.4,1.5,3.4,2.2,6,2.2c1.7,0,3.3-0.2,4.7-0.5
			s3-0.8,4.7-1.6v4.9c-1.5,0.7-3,1.2-4.5,1.5C612.1-167.9,610.4-167.8,608.4-167.8z M607.3-192.9c-1.9,0-3.5,0.6-4.6,1.8
			c-1.2,1.2-1.9,3-2.1,5.4h13c0-2.4-0.6-4.2-1.7-5.4C610.7-192.2,609.2-192.9,607.3-192.9z"/>
		<path class="st3" d="M645.7-176.5c0,2.8-1,4.9-3.1,6.4c-2,1.5-5,2.2-8.7,2.2c-3.8,0-6.9-0.6-9.2-1.7v-5.3c3.4,1.6,6.5,2.3,9.4,2.3
			c3.7,0,5.6-1.1,5.6-3.4c0-0.7-0.2-1.3-0.6-1.8c-0.4-0.5-1.1-1-2-1.5s-2.3-1.1-4-1.8c-3.3-1.3-5.5-2.6-6.7-3.8
			c-1.2-1.3-1.7-2.9-1.7-5c0-2.4,1-4.4,3-5.7c2-1.4,4.7-2,8.1-2c3.4,0,6.5,0.7,9.5,2l-2,4.6c-3.1-1.3-5.7-1.9-7.8-1.9
			c-3.2,0-4.8,0.9-4.8,2.7c0,0.9,0.4,1.7,1.3,2.3s2.7,1.5,5.5,2.6c2.4,0.9,4.1,1.8,5.1,2.5c1.1,0.8,1.9,1.6,2.4,2.6
			S645.7-177.9,645.7-176.5z"/>
		<path class="st3" d="M672.4-168.3l-0.9-3.8h-0.3c-0.8,1.3-2,2.4-3.6,3.1c-1.6,0.8-3.3,1.1-5.3,1.1c-3.5,0-6.1-0.9-7.8-2.6
			s-2.6-4.3-2.6-7.8v-18.6h6.1v17.6c0,2.2,0.4,3.8,1.3,4.9c0.9,1.1,2.3,1.6,4.2,1.6c2.6,0,4.4-0.8,5.6-2.3c1.2-1.5,1.8-4.1,1.8-7.7
			v-14.1h6.1v28.6C677-168.3,672.4-168.3,672.4-168.3z"/>
		<path class="st3" d="M692-168.3h-6.1v-40.3h6.1V-168.3z"/>
		<path class="st3" d="M711.3-172.7c1.5,0,3-0.2,4.5-0.7v4.6c-0.7,0.3-1.5,0.5-2.6,0.7s-2.2,0.3-3.3,0.3c-5.8,0-8.6-3-8.6-9.1v-15.4
			h-3.9v-2.7l4.2-2.2l2.1-6.1h3.8v6.4h8.2v4.6h-8.2v15.3c0,1.5,0.4,2.5,1.1,3.2C709.2-173.1,710.1-172.7,711.3-172.7z"/>
		<path class="st3" d="M205.6-104.7l-3.7-13.4c-0.4-1.4-1.3-4.7-2.4-9.9h-0.2c-1,4.7-1.8,8-2.4,9.9l-3.8,13.3h-6.7l-8-28.6h6.2
			l3.6,14.1c0.8,3.5,1.4,6.5,1.8,9h0.2c0.2-1.3,0.4-2.7,0.8-4.3s0.7-2.9,0.9-3.7l4.3-15.1h6.7l4.2,15.1c0.3,0.8,0.6,2.1,1,3.9
			c0.4,1.7,0.6,3.1,0.7,4.1h0.2c0.3-2.1,0.9-5.1,1.8-8.9l3.7-14.1h6.1l-8.1,28.6L205.6-104.7L205.6-104.7z"/>
		<path class="st3" d="M225-140.9c0-1.1,0.3-1.9,0.9-2.5c0.6-0.6,1.4-0.9,2.5-0.9s1.9,0.3,2.5,0.9c0.6,0.6,0.9,1.4,0.9,2.5
			c0,1-0.3,1.9-0.9,2.4c-0.6,0.6-1.4,0.9-2.5,0.9s-2-0.3-2.5-0.9C225.3-139.1,225-139.9,225-140.9z M231.5-104.7h-6.1v-28.6h6.1
			V-104.7z"/>
		<path class="st3" d="M250.8-109.1c1.5,0,3-0.2,4.5-0.7v4.6c-0.7,0.3-1.5,0.5-2.6,0.7s-2.2,0.3-3.3,0.3c-5.8,0-8.6-3-8.6-9.1v-15.4
			h-3.9v-2.7l4.2-2.2l2.1-6.1h3.8v6.4h8.2v4.6H247v15.3c0,1.5,0.4,2.5,1.1,3.2C248.7-109.5,249.7-109.1,250.8-109.1z"/>
		<path class="st3" d="M286.2-104.7h-6.1v-17.6c0-2.2-0.4-3.9-1.3-4.9c-0.9-1.1-2.3-1.6-4.2-1.6c-2.6,0-4.4,0.8-5.6,2.3
			s-1.8,4.1-1.8,7.7v14.2h-6.1v-40.3h6.1v10.2c0,1.6-0.1,3.4-0.3,5.3h0.4c0.8-1.4,2-2.4,3.5-3.2s3.2-1.1,5.2-1.1
			c6.9,0,10.4,3.5,10.4,10.5v18.5H286.2z"/>
		<path class="st3" d="M327.7-112.9c0,2.8-1,4.9-3.1,6.4c-2,1.5-5,2.2-8.7,2.2c-3.8,0-6.9-0.6-9.2-1.7v-5.3c3.4,1.6,6.5,2.3,9.4,2.3
			c3.7,0,5.6-1.1,5.6-3.4c0-0.7-0.2-1.3-0.6-1.8s-1.1-1-2-1.5s-2.3-1.1-4-1.8c-3.3-1.3-5.5-2.6-6.7-3.8c-1.2-1.3-1.7-2.9-1.7-5
			c0-2.4,1-4.4,3-5.7c2-1.4,4.7-2,8.1-2s6.5,0.7,9.5,2l-2,4.6c-3.1-1.3-5.7-1.9-7.8-1.9c-3.2,0-4.8,0.9-4.8,2.7
			c0,0.9,0.4,1.7,1.3,2.3s2.7,1.5,5.5,2.6c2.4,0.9,4.1,1.8,5.1,2.5c1.1,0.8,1.9,1.6,2.4,2.6S327.7-114.3,327.7-112.9z"/>
		<path class="st3" d="M346.7-104.2c-4.5,0-7.9-1.3-10.4-3.9c-2.5-2.6-3.8-6.2-3.8-10.7c0-4.7,1.2-8.4,3.5-11c2.3-2.7,5.5-4,9.6-4
			c3.8,0,6.8,1.1,9,3.4c2.2,2.3,3.3,5.5,3.3,9.5v3.3h-19.1c0.1,2.8,0.8,4.9,2.3,6.4c1.4,1.5,3.4,2.2,6,2.2c1.7,0,3.3-0.2,4.7-0.5
			s3-0.8,4.7-1.6v4.9c-1.5,0.7-3,1.2-4.5,1.5C350.4-104.3,348.7-104.2,346.7-104.2z M345.6-129.3c-1.9,0-3.5,0.6-4.6,1.8
			c-1.2,1.2-1.9,3-2.1,5.4h13c0-2.4-0.6-4.2-1.7-5.4C349.1-128.6,347.5-129.3,345.6-129.3z"/>
		<path class="st3" d="M382.7-104.7l-1.2-4h-0.2c-1.4,1.7-2.8,2.9-4.2,3.6c-1.4,0.6-3.2,0.9-5.4,0.9c-2.8,0-5-0.8-6.6-2.3
			s-2.4-3.7-2.4-6.4c0-3,1.1-5.2,3.3-6.7s5.5-2.3,10-2.5l4.9-0.2v-1.5c0-1.8-0.4-3.2-1.3-4.1c-0.9-0.9-2.2-1.4-4-1.4
			c-1.5,0-2.9,0.2-4.2,0.6c-1.3,0.4-2.6,0.9-3.9,1.5l-2-4.3c1.6-0.8,3.3-1.4,5.1-1.9c1.8-0.4,3.6-0.6,5.2-0.6c3.6,0,6.4,0.8,8.2,2.4
			c1.9,1.6,2.8,4.1,2.8,7.5v19.3L382.7-104.7L382.7-104.7z M373.6-108.9c2.2,0,4-0.6,5.3-1.9c1.3-1.2,2-3,2-5.2v-2.5l-3.7,0.2
			c-2.9,0.1-4.9,0.6-6.2,1.4c-1.3,0.9-2,2.2-2,3.9c0,1.3,0.4,2.3,1.1,3C371-109.2,372.1-108.9,373.6-108.9z"/>
		<path class="st3" d="M410-133.9c1.2,0,2.2,0.1,3,0.3l-0.6,5.7c-0.9-0.2-1.8-0.3-2.7-0.3c-2.4,0-4.4,0.8-5.9,2.4
			c-1.5,1.6-2.3,3.6-2.3,6.2v15h-6v-28.6h4.8l0.8,5h0.3c0.9-1.7,2.2-3.1,3.7-4.1C406.6-133.4,408.3-133.9,410-133.9z"/>
		<path class="st3" d="M429.9-104.2c-4.3,0-7.6-1.3-9.9-3.8c-2.3-2.5-3.4-6.2-3.4-10.9c0-4.8,1.2-8.5,3.5-11.1
			c2.4-2.6,5.8-3.9,10.2-3.9c3,0,5.7,0.6,8.2,1.7l-1.8,4.9c-2.6-1-4.7-1.5-6.4-1.5c-5,0-7.4,3.3-7.4,9.9c0,3.2,0.6,5.6,1.9,7.2
			c1.2,1.6,3,2.4,5.4,2.4c2.7,0,5.3-0.7,7.7-2v5.3c-1.1,0.6-2.2,1.1-3.5,1.4C433.2-104.3,431.7-104.2,429.9-104.2z"/>
		<path class="st3" d="M469.8-104.7h-6.1v-17.6c0-2.2-0.4-3.9-1.3-4.9c-0.9-1.1-2.3-1.6-4.2-1.6c-2.6,0-4.4,0.8-5.6,2.3
			c-1.2,1.5-1.8,4.1-1.8,7.7v14.2h-6.1v-40.3h6.1v10.2c0,1.6-0.1,3.4-0.3,5.3h0.4c0.8-1.4,2-2.4,3.5-3.2s3.2-1.1,5.2-1.1
			c6.9,0,10.4,3.5,10.4,10.5v18.5H469.8z"/>
		<path class="st3" d="M509.9-104.7l-1.2-4h-0.2c-1.4,1.7-2.8,2.9-4.2,3.6c-1.4,0.6-3.2,0.9-5.4,0.9c-2.8,0-5-0.8-6.6-2.3
			s-2.4-3.7-2.4-6.4c0-3,1.1-5.2,3.3-6.7s5.5-2.3,10-2.5l4.9-0.2v-1.5c0-1.8-0.4-3.2-1.3-4.1c-0.9-0.9-2.2-1.4-4-1.4
			c-1.5,0-2.9,0.2-4.2,0.6c-1.3,0.4-2.6,0.9-3.9,1.5l-2-4.3c1.6-0.8,3.3-1.4,5.1-1.9c1.8-0.4,3.6-0.6,5.2-0.6c3.6,0,6.4,0.8,8.2,2.4
			c1.9,1.6,2.8,4.1,2.8,7.5v19.3L509.9-104.7L509.9-104.7z M500.9-108.9c2.2,0,4-0.6,5.3-1.9c1.3-1.2,2-3,2-5.2v-2.5l-3.7,0.2
			c-2.9,0.1-4.9,0.6-6.2,1.4c-1.3,0.9-2,2.2-2,3.9c0,1.3,0.4,2.3,1.1,3C498.2-109.2,499.3-108.9,500.9-108.9z"/>
		<path class="st3" d="M532.4-104.2c-3.6,0-6.4-1.3-8.4-3.9c-2-2.6-3-6.2-3-10.9s1-8.3,3-11c2-2.6,4.8-3.9,8.4-3.9
			c3.8,0,6.6,1.4,8.6,4.2h0.3c-0.3-2.1-0.4-3.7-0.4-4.9V-145h6.1v40.3h-4.8l-1.1-3.8h-0.3C539-105.6,536.2-104.2,532.4-104.2z
			 M534-109.1c2.5,0,4.3-0.7,5.5-2.1c1.1-1.4,1.7-3.7,1.8-6.8v-0.9c0-3.6-0.6-6.2-1.8-7.7c-1.2-1.5-3-2.3-5.5-2.3
			c-2.1,0-3.8,0.9-4.9,2.6c-1.2,1.7-1.7,4.2-1.7,7.4s0.6,5.6,1.7,7.3C530.1-110,531.8-109.1,534-109.1z"/>
		<path class="st3" d="M575-112.9c0,2.8-1,4.9-3.1,6.4c-2,1.5-5,2.2-8.7,2.2c-3.8,0-6.9-0.6-9.2-1.7v-5.3c3.4,1.6,6.5,2.3,9.4,2.3
			c3.7,0,5.6-1.1,5.6-3.4c0-0.7-0.2-1.3-0.6-1.8c-0.4-0.5-1.1-1-2-1.5s-2.3-1.1-4-1.8c-3.3-1.3-5.5-2.6-6.7-3.8
			c-1.2-1.3-1.7-2.9-1.7-5c0-2.4,1-4.4,3-5.7c2-1.4,4.7-2,8.1-2c3.4,0,6.5,0.7,9.5,2l-2,4.6c-3.1-1.3-5.7-1.9-7.8-1.9
			c-3.2,0-4.8,0.9-4.8,2.7c0,0.9,0.4,1.7,1.3,2.3s2.7,1.5,5.5,2.6c2.4,0.9,4.1,1.8,5.1,2.5c1.1,0.8,1.9,1.6,2.4,2.6
			S575-114.3,575-112.9z"/>
	</g>
</g>
<g id="Layer_1_copy_2" class="st0">
	<g class="st2">
		<path class="st3" d="M8.9-168.3H2.7v-32.5H-8.4v-5.3H20v5.3H8.9L8.9-168.3L8.9-168.3z"/>
		<path class="st3" d="M45.4-168.3l-0.9-3.8h-0.3c-0.8,1.3-2,2.4-3.6,3.1c-1.6,0.8-3.3,1.1-5.3,1.1c-3.5,0-6.1-0.9-7.8-2.6
			s-2.6-4.3-2.6-7.8v-18.6H31v17.6c0,2.2,0.4,3.8,1.3,4.9c0.9,1.1,2.3,1.6,4.2,1.6c2.6,0,4.4-0.8,5.6-2.3c1.2-1.5,1.8-4.1,1.8-7.7
			v-14.1H50v28.6C50-168.3,45.4-168.3,45.4-168.3z"/>
		<path class="st3" d="M73.4-197.5c1.2,0,2.2,0.1,3,0.3l-0.6,5.7c-0.9-0.2-1.8-0.3-2.7-0.3c-2.4,0-4.4,0.8-5.9,2.4
			c-1.5,1.6-2.3,3.6-2.3,6.2v15h-6.1v-28.7h4.8l0.8,5h0.3c0.9-1.7,2.2-3.1,3.7-4.1C70-197,71.6-197.5,73.4-197.5z"/>
		<path class="st3" d="M106.9-168.3h-6.1v-17.6c0-2.2-0.4-3.9-1.3-4.9c-0.9-1.1-2.3-1.6-4.2-1.6c-2.6,0-4.5,0.8-5.6,2.3
			c-1.2,1.5-1.8,4.1-1.8,7.6v14.3h-6.1v-28.7h4.8l0.9,3.8h0.3c0.9-1.4,2.1-2.4,3.7-3.2c1.6-0.7,3.3-1.1,5.3-1.1
			c6.9,0,10.3,3.5,10.3,10.5v18.6H106.9z"/>
		<path class="st3" d="M148.3-176.5c0,2.8-1,4.9-3.1,6.4c-2,1.5-5,2.2-8.7,2.2c-3.8,0-6.9-0.6-9.2-1.7v-5.3c3.4,1.6,6.5,2.3,9.4,2.3
			c3.7,0,5.6-1.1,5.6-3.4c0-0.7-0.2-1.3-0.6-1.8s-1.1-1-2-1.5s-2.3-1.1-4-1.8c-3.3-1.3-5.5-2.6-6.7-3.8c-1.2-1.3-1.7-2.9-1.7-5
			c0-2.4,1-4.4,3-5.7c2-1.4,4.7-2,8.1-2s6.5,0.7,9.5,2l-2,4.6c-3.1-1.3-5.7-1.9-7.8-1.9c-3.2,0-4.8,0.9-4.8,2.7
			c0,0.9,0.4,1.7,1.3,2.3s2.7,1.5,5.5,2.6c2.4,0.9,4.1,1.8,5.1,2.5c1.1,0.8,1.9,1.6,2.4,2.6S148.3-177.9,148.3-176.5z"/>
		<path class="st3" d="M167.4-167.8c-4.5,0-7.9-1.3-10.4-3.9c-2.5-2.6-3.8-6.2-3.8-10.7c0-4.7,1.2-8.4,3.5-11c2.3-2.7,5.5-4,9.6-4
			c3.8,0,6.8,1.1,9,3.4s3.3,5.5,3.3,9.5v3.3h-19.1c0.1,2.8,0.8,4.9,2.3,6.4c1.4,1.5,3.4,2.2,6,2.2c1.7,0,3.3-0.2,4.7-0.5
			s3-0.8,4.7-1.6v4.9c-1.5,0.7-3,1.2-4.5,1.5C171.1-167.9,169.4-167.8,167.4-167.8z M166.3-192.9c-1.9,0-3.5,0.6-4.6,1.8
			c-1.2,1.2-1.9,3-2.1,5.4h13c0-2.4-0.6-4.2-1.7-5.4C169.8-192.2,168.2-192.9,166.3-192.9z"/>
		<path class="st3" d="M203.4-168.3l-1.2-4H202c-1.4,1.7-2.8,2.9-4.2,3.6c-1.4,0.6-3.2,0.9-5.4,0.9c-2.8,0-5-0.8-6.6-2.3
			s-2.4-3.7-2.4-6.4c0-3,1.1-5.2,3.3-6.7c2.2-1.5,5.5-2.3,10-2.5l4.9-0.2v-1.5c0-1.8-0.4-3.2-1.3-4.1c-0.9-0.9-2.2-1.4-4-1.4
			c-1.5,0-2.9,0.2-4.2,0.6c-1.3,0.4-2.6,0.9-3.9,1.5l-2-4.3c1.6-0.8,3.3-1.4,5.1-1.9c1.8-0.4,3.6-0.6,5.2-0.6c3.6,0,6.4,0.8,8.2,2.4
			c1.9,1.6,2.8,4.1,2.8,7.5v19.3h-4.1V-168.3z M194.3-172.5c2.2,0,4-0.6,5.3-1.9c1.3-1.2,2-3,2-5.2v-2.5l-3.7,0.2
			c-2.9,0.1-4.9,0.6-6.2,1.4c-1.3,0.9-2,2.2-2,3.9c0,1.3,0.4,2.3,1.1,3C191.6-172.8,192.8-172.5,194.3-172.5z"/>
		<path class="st3" d="M230.7-197.5c1.2,0,2.2,0.1,3,0.3l-0.6,5.7c-0.9-0.2-1.8-0.3-2.7-0.3c-2.4,0-4.4,0.8-5.9,2.4
			c-1.5,1.6-2.3,3.6-2.3,6.2v15h-6.1v-28.7h4.8l0.8,5h0.3c0.9-1.7,2.2-3.1,3.7-4.1C227.3-197,229-197.5,230.7-197.5z"/>
		<path class="st3" d="M250.6-167.8c-4.3,0-7.6-1.3-9.9-3.8s-3.4-6.2-3.4-10.9c0-4.8,1.2-8.5,3.5-11.1c2.4-2.6,5.8-3.9,10.2-3.9
			c3,0,5.7,0.6,8.2,1.7l-1.8,4.9c-2.6-1-4.7-1.5-6.4-1.5c-5,0-7.4,3.3-7.4,9.9c0,3.2,0.6,5.6,1.9,7.2c1.2,1.6,3,2.4,5.4,2.4
			c2.7,0,5.3-0.7,7.7-2v5.3c-1.1,0.6-2.2,1.1-3.5,1.4C253.8-167.9,252.3-167.8,250.6-167.8z"/>
		<path class="st3" d="M290.5-168.3h-6.1v-17.6c0-2.2-0.4-3.9-1.3-4.9c-0.9-1.1-2.3-1.6-4.2-1.6c-2.6,0-4.4,0.8-5.6,2.3
			s-1.8,4.1-1.8,7.7v14.2h-6.1v-40.4h6.1v10.2c0,1.6-0.1,3.4-0.3,5.3h0.4c0.8-1.4,2-2.4,3.5-3.2c1.5-0.8,3.2-1.1,5.2-1.1
			c6.9,0,10.4,3.5,10.4,10.5v18.6H290.5z"/>
		<path class="st3" d="M311.4-167.8c-4.5,0-7.9-1.3-10.4-3.9c-2.5-2.6-3.8-6.2-3.8-10.7c0-4.7,1.2-8.4,3.5-11c2.3-2.7,5.5-4,9.6-4
			c3.8,0,6.8,1.1,9,3.4s3.3,5.5,3.3,9.5v3.3h-19.1c0.1,2.8,0.8,4.9,2.3,6.4c1.4,1.5,3.4,2.2,6,2.2c1.7,0,3.3-0.2,4.7-0.5
			s3-0.8,4.7-1.6v4.9c-1.5,0.7-3,1.2-4.5,1.5C315.1-167.9,313.4-167.8,311.4-167.8z M310.3-192.9c-1.9,0-3.5,0.6-4.6,1.8
			c-1.2,1.2-1.9,3-2.1,5.4h13c0-2.4-0.6-4.2-1.7-5.4C313.8-192.2,312.3-192.9,310.3-192.9z"/>
		<path class="st3" d="M344-197.5c1.2,0,2.2,0.1,3,0.3l-0.6,5.7c-0.9-0.2-1.8-0.3-2.7-0.3c-2.4,0-4.4,0.8-5.9,2.4
			c-1.5,1.6-2.3,3.6-2.3,6.2v15h-6v-28.7h4.8l0.8,5h0.3c0.9-1.7,2.2-3.1,3.7-4.1C340.6-197,342.2-197.5,344-197.5z"/>
		<path class="st3" d="M371.5-176.5c0,2.8-1,4.9-3.1,6.4c-2,1.5-5,2.2-8.7,2.2c-3.8,0-6.9-0.6-9.2-1.7v-5.3c3.4,1.6,6.5,2.3,9.4,2.3
			c3.7,0,5.6-1.1,5.6-3.4c0-0.7-0.2-1.3-0.6-1.8c-0.4-0.5-1.1-1-2-1.5s-2.3-1.1-4-1.8c-3.3-1.3-5.5-2.6-6.7-3.8
			c-1.2-1.3-1.7-2.9-1.7-5c0-2.4,1-4.4,3-5.7c2-1.4,4.7-2,8.1-2c3.4,0,6.5,0.7,9.5,2l-2,4.6c-3.1-1.3-5.7-1.9-7.8-1.9
			c-3.2,0-4.8,0.9-4.8,2.7c0,0.9,0.4,1.7,1.3,2.3s2.7,1.5,5.5,2.6c2.4,0.9,4.1,1.8,5.1,2.5c1.1,0.8,1.9,1.6,2.4,2.6
			S371.5-177.9,371.5-176.5z"/>
		<path class="st3" d="M391.5-204.5c0-1.1,0.3-1.9,0.9-2.5c0.6-0.6,1.4-0.9,2.5-0.9s1.9,0.3,2.5,0.9s0.9,1.4,0.9,2.5
			c0,1-0.3,1.9-0.9,2.4c-0.6,0.6-1.4,0.9-2.5,0.9s-2-0.3-2.5-0.9C391.8-202.7,391.5-203.5,391.5-204.5z M398-168.3h-6.1v-28.6h6.1
			V-168.3z"/>
		<path class="st3" d="M431.8-168.3h-6.1v-17.6c0-2.2-0.4-3.9-1.3-4.9c-0.9-1.1-2.3-1.6-4.2-1.6c-2.6,0-4.5,0.8-5.6,2.3
			c-1.2,1.5-1.8,4.1-1.8,7.6v14.3h-6.1v-28.7h4.8l0.9,3.8h0.3c0.9-1.4,2.1-2.4,3.7-3.2c1.6-0.7,3.3-1.1,5.3-1.1
			c6.9,0,10.3,3.5,10.3,10.5v18.6H431.8z"/>
		<path class="st3" d="M451-172.7c1.5,0,3-0.2,4.5-0.7v4.6c-0.7,0.3-1.5,0.5-2.6,0.7s-2.2,0.3-3.3,0.3c-5.8,0-8.6-3-8.6-9.1v-15.4
			h-3.9v-2.7l4.2-2.2l2.1-6.1h3.8v6.4h8.2v4.6h-8.2v15.3c0,1.5,0.4,2.5,1.1,3.2C448.8-173.1,449.8-172.7,451-172.7z"/>
		<path class="st3" d="M486.5-182.7c0,4.7-1.2,8.3-3.6,10.9c-2.4,2.6-5.7,3.9-10,3.9c-2.7,0-5-0.6-7.1-1.8c-2.1-1.2-3.6-2.9-4.7-5.2
			c-1.1-2.3-1.7-4.9-1.7-7.9c0-4.6,1.2-8.3,3.6-10.9c2.4-2.6,5.7-3.9,10.1-3.9c4.1,0,7.4,1.3,9.8,4
			C485.3-190.8,486.5-187.2,486.5-182.7z M465.7-182.7c0,6.6,2.4,9.9,7.3,9.9c4.8,0,7.2-3.3,7.2-9.9c0-6.5-2.4-9.8-7.3-9.8
			c-2.6,0-4.4,0.8-5.6,2.5C466.3-188.3,465.7-185.8,465.7-182.7z"/>
		<path class="st3" d="M513.4-168.3h-6.1v-40.3h6.1V-168.3z"/>
		<path class="st3" d="M534.6-167.8c-4.5,0-7.9-1.3-10.4-3.9c-2.5-2.6-3.8-6.2-3.8-10.7c0-4.7,1.2-8.4,3.5-11c2.3-2.7,5.5-4,9.6-4
			c3.8,0,6.8,1.1,9,3.4s3.3,5.5,3.3,9.5v3.3h-19.1c0.1,2.8,0.8,4.9,2.3,6.4c1.4,1.5,3.4,2.2,6,2.2c1.7,0,3.3-0.2,4.7-0.5
			s3-0.8,4.7-1.6v4.9c-1.5,0.7-3,1.2-4.5,1.5C538.2-167.9,536.5-167.8,534.6-167.8z M533.4-192.9c-1.9,0-3.5,0.6-4.6,1.8
			c-1.2,1.2-1.9,3-2.1,5.4h13c0-2.4-0.6-4.2-1.7-5.4C536.9-192.2,535.4-192.9,533.4-192.9z"/>
		<path class="st3" d="M570.5-168.3l-1.2-4h-0.2c-1.4,1.7-2.8,2.9-4.2,3.6c-1.4,0.6-3.2,0.9-5.4,0.9c-2.8,0-5-0.8-6.6-2.3
			s-2.4-3.7-2.4-6.4c0-3,1.1-5.2,3.3-6.7s5.5-2.3,10-2.5l4.9-0.2v-1.5c0-1.8-0.4-3.2-1.3-4.1c-0.9-0.9-2.2-1.4-4-1.4
			c-1.5,0-2.9,0.2-4.2,0.6c-1.3,0.4-2.6,0.9-3.9,1.5l-2-4.3c1.6-0.8,3.3-1.4,5.1-1.9c1.8-0.4,3.6-0.6,5.2-0.6c3.6,0,6.4,0.8,8.2,2.4
			c1.9,1.6,2.8,4.1,2.8,7.5v19.3h-4.1V-168.3z M561.4-172.5c2.2,0,4-0.6,5.3-1.9c1.3-1.2,2-3,2-5.2v-2.5l-3.7,0.2
			c-2.9,0.1-4.9,0.6-6.2,1.4c-1.3,0.9-2,2.2-2,3.9c0,1.3,0.4,2.3,1.1,3C558.8-172.8,559.9-172.5,561.4-172.5z"/>
		<path class="st3" d="M593-167.8c-3.6,0-6.4-1.3-8.4-3.9c-2-2.6-3-6.2-3-10.9s1-8.3,3-11c2-2.6,4.8-3.9,8.4-3.9
			c3.8,0,6.6,1.4,8.6,4.2h0.3c-0.3-2.1-0.4-3.7-0.4-4.9v-10.4h6.1v40.3h-4.8l-1.1-3.8h-0.3C599.6-169.2,596.8-167.8,593-167.8z
			 M594.6-172.7c2.5,0,4.3-0.7,5.5-2.1c1.1-1.4,1.7-3.7,1.8-6.8v-0.9c0-3.6-0.6-6.2-1.8-7.7s-3-2.3-5.5-2.3c-2.1,0-3.8,0.9-4.9,2.6
			c-1.2,1.7-1.7,4.2-1.7,7.4s0.6,5.6,1.7,7.3C590.7-173.6,592.4-172.7,594.6-172.7z"/>
		<path class="st3" d="M635.6-176.5c0,2.8-1,4.9-3.1,6.4c-2,1.5-5,2.2-8.7,2.2c-3.8,0-6.9-0.6-9.2-1.7v-5.3c3.4,1.6,6.5,2.3,9.4,2.3
			c3.7,0,5.6-1.1,5.6-3.4c0-0.7-0.2-1.3-0.6-1.8c-0.4-0.5-1.1-1-2-1.5s-2.3-1.1-4-1.8c-3.3-1.3-5.5-2.6-6.7-3.8
			c-1.2-1.3-1.7-2.9-1.7-5c0-2.4,1-4.4,3-5.7c2-1.4,4.7-2,8.1-2c3.4,0,6.5,0.7,9.5,2l-2,4.6c-3.1-1.3-5.7-1.9-7.8-1.9
			c-3.2,0-4.8,0.9-4.8,2.7c0,0.9,0.4,1.7,1.3,2.3s2.7,1.5,5.5,2.6c2.4,0.9,4.1,1.8,5.1,2.5c1.1,0.8,1.9,1.6,2.4,2.6
			S635.6-177.9,635.6-176.5z"/>
		<path class="st3" d="M679.4-168.3l-3.7-13.4c-0.4-1.4-1.3-4.7-2.4-9.9h-0.2c-1,4.7-1.8,8-2.4,9.9l-3.8,13.3h-6.7l-8-28.6h6.2
			l3.6,14.1c0.8,3.5,1.4,6.5,1.8,9h0.2c0.2-1.3,0.4-2.7,0.8-4.3c0.4-1.6,0.7-2.9,0.9-3.7L670-197h6.7l4.2,15.1
			c0.3,0.8,0.6,2.1,1,3.9c0.4,1.7,0.6,3.1,0.7,4.1h0.2c0.3-2.1,0.9-5.1,1.8-8.9l3.7-14.1h6.1l-8.1,28.6H679.4z"/>
		<path class="st3" d="M698.9-204.5c0-1.1,0.3-1.9,0.9-2.5c0.6-0.6,1.4-0.9,2.5-0.9s1.9,0.3,2.5,0.9s0.9,1.4,0.9,2.5
			c0,1-0.3,1.9-0.9,2.4c-0.6,0.6-1.4,0.9-2.5,0.9s-2-0.3-2.5-0.9C699.2-202.7,698.9-203.5,698.9-204.5z M705.3-168.3h-6.1v-28.6h6.1
			V-168.3z"/>
		<path class="st3" d="M724.7-172.7c1.5,0,3-0.2,4.5-0.7v4.6c-0.7,0.3-1.5,0.5-2.6,0.7s-2.2,0.3-3.3,0.3c-5.8,0-8.6-3-8.6-9.1v-15.4
			h-3.9v-2.7l4.2-2.2l2.1-6.1h3.8v6.4h8.2v4.6h-8.2v15.3c0,1.5,0.4,2.5,1.1,3.2C722.5-173.1,723.5-172.7,724.7-172.7z"/>
		<path class="st3" d="M760-168.3h-6.1v-17.6c0-2.2-0.4-3.9-1.3-4.9c-0.9-1.1-2.3-1.6-4.2-1.6c-2.6,0-4.4,0.8-5.6,2.3
			c-1.2,1.5-1.8,4.1-1.8,7.7v14.2h-6.1v-40.4h6.1v10.2c0,1.6-0.1,3.4-0.3,5.3h0.4c0.8-1.4,2-2.4,3.5-3.2c1.5-0.8,3.2-1.1,5.2-1.1
			c6.9,0,10.4,3.5,10.4,10.5v18.6H760z"/>
		<path class="st3" d="M120.3-104.7h-6.2v-17.1H96.7v17.1h-6.2v-37.9h6.2v15.5h17.4v-15.5h6.2L120.3-104.7L120.3-104.7z"/>
		<path class="st3" d="M129.3-140.9c0-1.1,0.3-1.9,0.9-2.5c0.6-0.6,1.4-0.9,2.5-0.9s1.9,0.3,2.5,0.9c0.6,0.6,0.9,1.4,0.9,2.5
			c0,1-0.3,1.9-0.9,2.4c-0.6,0.6-1.4,0.9-2.5,0.9s-2-0.3-2.5-0.9C129.6-139.1,129.3-139.9,129.3-140.9z M135.7-104.7h-6.1v-28.6h6.1
			V-104.7z"/>
		<path class="st3" d="M159-133.9c3.6,0,6.4,1.3,8.3,3.9c2,2.6,3,6.2,3,10.9s-1,8.3-3,11c-2,2.6-4.8,3.9-8.4,3.9s-6.4-1.3-8.4-3.9
			h-0.4l-1.1,3.4h-4.6V-145h6.1v9.6c0,0.7,0,1.8-0.1,3.2s-0.1,2.3-0.2,2.7h0.3C152.4-132.4,155.3-133.9,159-133.9z M157.5-128.9
			c-2.5,0-4.2,0.7-5.3,2.2c-1.1,1.4-1.6,3.9-1.7,7.2v0.4c0,3.5,0.6,6,1.7,7.6s2.9,2.3,5.4,2.3c2.2,0,3.8-0.9,4.9-2.6
			c1.1-1.7,1.7-4.2,1.7-7.4C164.1-125.6,161.9-128.9,157.5-128.9z"/>
		<path class="st3" d="M197.6-104.7l-0.9-3.8h-0.2c-0.8,1.3-2,2.4-3.6,3.1c-1.6,0.8-3.3,1.1-5.3,1.1c-3.5,0-6.1-0.9-7.8-2.6
			c-1.7-1.7-2.6-4.3-2.6-7.8v-18.7h6.1v17.6c0,2.2,0.4,3.8,1.3,4.9c0.9,1.1,2.3,1.6,4.2,1.6c2.6,0,4.4-0.8,5.6-2.3s1.8-4.1,1.8-7.7
			v-14.3h6.1v28.6h-4.7V-104.7z"/>
		<path class="st3" d="M247.3-115c0,3.4-1.2,6-3.6,7.9s-5.8,2.9-10.1,2.9c-4.3,0-7.8-0.7-10.5-2v-5.8c1.7,0.8,3.6,1.4,5.5,1.9
			s3.7,0.7,5.4,0.7c2.4,0,4.3-0.5,5.4-1.4c1.2-0.9,1.7-2.2,1.7-3.8c0-1.4-0.5-2.6-1.6-3.6s-3.3-2.1-6.6-3.5c-3.5-1.4-5.9-3-7.3-4.8
			c-1.4-1.8-2.1-4-2.1-6.5c0-3.2,1.1-5.6,3.4-7.5c2.2-1.8,5.3-2.7,9-2.7c3.6,0,7.2,0.8,10.8,2.4l-2,5c-3.4-1.4-6.4-2.1-9-2.1
			c-2,0-3.5,0.4-4.6,1.3c-1,0.9-1.6,2-1.6,3.5c0,1,0.2,1.8,0.6,2.5s1.1,1.4,2,2c0.9,0.6,2.7,1.4,5.1,2.5c2.8,1.2,4.8,2.2,6.1,3.2
			c1.3,1,2.2,2.1,2.8,3.4C247-118.2,247.3-116.7,247.3-115z"/>
		<path class="st3" d="M266.5-104.2c-4.5,0-7.9-1.3-10.4-3.9c-2.5-2.6-3.8-6.2-3.8-10.7c0-4.7,1.2-8.4,3.5-11c2.3-2.7,5.5-4,9.6-4
			c3.8,0,6.8,1.1,9,3.4c2.2,2.3,3.3,5.5,3.3,9.5v3.3h-19.2c0.1,2.8,0.8,4.9,2.3,6.4c1.4,1.5,3.4,2.2,6,2.2c1.7,0,3.3-0.2,4.7-0.5
			s3-0.8,4.7-1.6v4.9c-1.5,0.7-3,1.2-4.5,1.5C270.2-104.3,268.4-104.2,266.5-104.2z M265.4-129.3c-1.9,0-3.5,0.6-4.6,1.8
			c-1.2,1.2-1.9,3-2.1,5.4h13c0-2.4-0.6-4.2-1.7-5.4C268.8-128.6,267.3-129.3,265.4-129.3z"/>
		<path class="st3" d="M302.4-104.7l-1.2-4H301c-1.4,1.7-2.8,2.9-4.2,3.6c-1.4,0.6-3.2,0.9-5.4,0.9c-2.8,0-5-0.8-6.6-2.3
			s-2.4-3.7-2.4-6.4c0-3,1.1-5.2,3.3-6.7c2.2-1.5,5.5-2.3,10-2.5l4.9-0.2v-1.5c0-1.8-0.4-3.2-1.3-4.1c-0.9-0.9-2.2-1.4-4-1.4
			c-1.5,0-2.9,0.2-4.2,0.6c-1.3,0.4-2.6,0.9-3.9,1.5l-2-4.3c1.6-0.8,3.3-1.4,5.1-1.9c1.8-0.4,3.6-0.6,5.2-0.6c3.6,0,6.4,0.8,8.2,2.4
			c1.9,1.6,2.8,4.1,2.8,7.5v19.3L302.4-104.7L302.4-104.7z M293.4-108.9c2.2,0,4-0.6,5.3-1.9c1.3-1.2,2-3,2-5.2v-2.5l-3.7,0.2
			c-2.9,0.1-4.9,0.6-6.2,1.4c-1.3,0.9-2,2.2-2,3.9c0,1.3,0.4,2.3,1.1,3C290.7-109.2,291.9-108.9,293.4-108.9z"/>
		<path class="st3" d="M329.8-133.9c1.2,0,2.2,0.1,3,0.3l-0.6,5.7c-0.9-0.2-1.8-0.3-2.7-0.3c-2.4,0-4.4,0.8-5.9,2.4
			c-1.5,1.6-2.3,3.6-2.3,6.2v15h-6.1v-28.6h4.8l0.8,5h0.3c0.9-1.7,2.2-3.1,3.7-4.1C326.4-133.4,328-133.9,329.8-133.9z"/>
		<path class="st3" d="M349.7-104.2c-4.3,0-7.6-1.3-9.9-3.8s-3.4-6.2-3.4-10.9c0-4.8,1.2-8.5,3.5-11.1c2.4-2.6,5.8-3.9,10.2-3.9
			c3,0,5.7,0.6,8.2,1.7l-1.8,4.9c-2.6-1-4.7-1.5-6.4-1.5c-5,0-7.4,3.3-7.4,9.9c0,3.2,0.6,5.6,1.9,7.2c1.2,1.6,3,2.4,5.4,2.4
			c2.7,0,5.3-0.7,7.7-2v5.3c-1.1,0.6-2.2,1.1-3.5,1.4C352.9-104.3,351.4-104.2,349.7-104.2z"/>
		<path class="st3" d="M389.5-104.7h-6.1v-17.6c0-2.2-0.4-3.9-1.3-4.9c-0.9-1.1-2.3-1.6-4.2-1.6c-2.6,0-4.4,0.8-5.6,2.3
			c-1.2,1.5-1.8,4.1-1.8,7.7v14.2h-6.1v-40.3h6.1v10.2c0,1.6-0.1,3.4-0.3,5.3h0.4c0.8-1.4,2-2.4,3.5-3.2s3.2-1.1,5.2-1.1
			c6.9,0,10.4,3.5,10.4,10.5v18.5H389.5z"/>
		<path class="st3" d="M428.8-104.7l-11-31.6h-0.2c0.3,4.7,0.4,9.1,0.4,13.2v18.4h-5.6v-37.9h8.7l10.5,30.1h0.2l10.8-30.1h8.7v37.8
			h-6v-18.7c0-1.9,0-4.3,0.1-7.3c0.1-3,0.2-4.8,0.2-5.5h-0.2L434-104.8L428.8-104.7L428.8-104.7z"/>
		<path class="st3" d="M478.6-104.7l-1.2-4h-0.2c-1.4,1.7-2.8,2.9-4.2,3.6c-1.4,0.6-3.2,0.9-5.4,0.9c-2.8,0-5-0.8-6.6-2.3
			s-2.4-3.7-2.4-6.4c0-3,1.1-5.2,3.3-6.7s5.5-2.3,10-2.5l4.9-0.2v-1.5c0-1.8-0.4-3.2-1.3-4.1c-0.9-0.9-2.2-1.4-4-1.4
			c-1.5,0-2.9,0.2-4.2,0.6c-1.3,0.4-2.6,0.9-3.9,1.5l-2-4.3c1.6-0.8,3.3-1.4,5.1-1.9c1.8-0.4,3.6-0.6,5.2-0.6c3.6,0,6.4,0.8,8.2,2.4
			c1.9,1.6,2.8,4.1,2.8,7.5v19.3L478.6-104.7L478.6-104.7z M469.5-108.9c2.2,0,4-0.6,5.3-1.9c1.3-1.2,2-3,2-5.2v-2.5l-3.7,0.2
			c-2.9,0.1-4.9,0.6-6.2,1.4c-1.3,0.9-2,2.2-2,3.9c0,1.3,0.4,2.3,1.1,3C466.9-109.2,468-108.9,469.5-108.9z"/>
		<path class="st3" d="M505.9-133.9c1.2,0,2.2,0.1,3,0.3l-0.6,5.7c-0.9-0.2-1.8-0.3-2.7-0.3c-2.4,0-4.4,0.8-5.9,2.4
			c-1.5,1.6-2.3,3.6-2.3,6.2v15h-6.1v-28.6h4.8l0.8,5h0.3c0.9-1.7,2.2-3.1,3.7-4.1C502.5-133.4,504.2-133.9,505.9-133.9z"/>
		<path class="st3" d="M520.2-119.8l3.4-4.3l8.6-9.2h7L527.7-121l12.2,16.3h-7.1l-9.2-12.6l-3.3,2.7v9.8h-6v-40.3h6v19.6L520-120
			h0.2V-119.8z"/>
		<path class="st3" d="M557.1-104.2c-4.5,0-7.9-1.3-10.4-3.9c-2.5-2.6-3.8-6.2-3.8-10.7c0-4.7,1.2-8.4,3.5-11c2.3-2.7,5.5-4,9.6-4
			c3.8,0,6.8,1.1,9,3.4c2.2,2.3,3.3,5.5,3.3,9.5v3.3h-19.1c0.1,2.8,0.8,4.9,2.3,6.4c1.4,1.5,3.4,2.2,6,2.2c1.7,0,3.3-0.2,4.7-0.5
			s3-0.8,4.7-1.6v4.9c-1.5,0.7-3,1.2-4.5,1.5C560.8-104.3,559-104.2,557.1-104.2z M556-129.3c-1.9,0-3.5,0.6-4.6,1.8
			c-1.2,1.2-1.9,3-2.1,5.4h13c0-2.4-0.6-4.2-1.7-5.4C559.4-128.6,557.9-129.3,556-129.3z"/>
		<path class="st3" d="M585.8-109.1c1.5,0,3-0.2,4.5-0.7v4.6c-0.7,0.3-1.5,0.5-2.6,0.7s-2.2,0.3-3.3,0.3c-5.8,0-8.6-3-8.6-9.1v-15.4
			h-3.9v-2.7l4.2-2.2l2.1-6.1h3.8v6.4h8.2v4.6H582v15.3c0,1.5,0.4,2.5,1.1,3.2C583.6-109.5,584.6-109.1,585.8-109.1z"/>
		<path class="st3" d="M595.6-140.9c0-1.1,0.3-1.9,0.9-2.5c0.6-0.6,1.4-0.9,2.5-0.9s1.9,0.3,2.5,0.9c0.6,0.6,0.9,1.4,0.9,2.5
			c0,1-0.3,1.9-0.9,2.4c-0.6,0.6-1.4,0.9-2.5,0.9s-2-0.3-2.5-0.9C595.9-139.1,595.6-139.9,595.6-140.9z M602-104.7h-6.1v-28.6h6.1
			V-104.7z"/>
		<path class="st3" d="M635.9-104.7h-6.1v-17.6c0-2.2-0.4-3.9-1.3-4.9c-0.9-1.1-2.3-1.6-4.2-1.6c-2.6,0-4.5,0.8-5.6,2.3
			c-1.2,1.5-1.8,4.1-1.8,7.6v14.3h-6.1v-28.6h4.8l0.9,3.8h0.3c0.9-1.4,2.1-2.4,3.7-3.2c1.6-0.7,3.3-1.1,5.3-1.1
			c6.9,0,10.3,3.5,10.3,10.5v18.5H635.9z"/>
		<path class="st3" d="M668.5-133.3v3.3l-4.9,0.9c0.4,0.6,0.8,1.3,1.1,2.2s0.4,1.8,0.4,2.8c0,3-1,5.3-3.1,7c-2,1.7-4.8,2.5-8.4,2.5
			c-0.9,0-1.7-0.1-2.5-0.2c-1.3,0.8-2,1.8-2,2.8c0,0.7,0.3,1.1,0.9,1.5c0.6,0.3,1.7,0.5,3.4,0.5h5c3.2,0,5.6,0.7,7.2,2
			c1.6,1.3,2.5,3.3,2.5,5.8c0,3.2-1.3,5.7-4,7.5s-6.5,2.6-11.6,2.6c-3.9,0-6.9-0.7-8.9-2.1c-2.1-1.4-3.1-3.3-3.1-5.9
			c0-1.8,0.6-3.2,1.7-4.4c1.1-1.2,2.7-2,4.7-2.5c-0.8-0.3-1.5-0.9-2-1.7s-0.8-1.6-0.8-2.4c0-1.1,0.3-2,0.9-2.7
			c0.6-0.7,1.5-1.5,2.7-2.2c-1.5-0.6-2.7-1.7-3.6-3.1c-0.9-1.4-1.4-3.1-1.4-5.1c0-3.1,1-5.5,2.9-7.2c2-1.7,4.7-2.6,8.4-2.6
			c0.8,0,1.7,0.1,2.5,0.2c0.9,0.1,1.6,0.2,2,0.3h10V-133.3z M646.1-100.3c0,1.3,0.6,2.3,1.8,3s2.8,1.1,5,1.1c3.3,0,5.8-0.5,7.4-1.4
			c1.6-0.9,2.4-2.2,2.4-3.8c0-1.2-0.4-2.1-1.3-2.7s-2.5-0.8-5-0.8h-4.6c-1.7,0-3.1,0.4-4.2,1.2C646.6-102.8,646.1-101.7,646.1-100.3
			z M648.7-124.1c0,1.8,0.5,3.2,1.4,4.1c0.9,1,2.2,1.4,4,1.4c3.5,0,5.3-1.9,5.3-5.6c0-1.9-0.4-3.3-1.3-4.3c-0.9-1-2.2-1.5-4-1.5
			s-3.1,0.5-4,1.5C649.1-127.5,648.7-126,648.7-124.1z"/>
	</g>
</g>
<g id="Layer_1_copy_3" class="st0">
	<g class="st2">
		<path class="st3" d="M-76.6-168.3v-37.9h6.2v32.6h16v5.3H-76.6z"/>
		<path class="st3" d="M-36-167.8c-4.5,0-7.9-1.3-10.4-3.9c-2.5-2.6-3.8-6.2-3.8-10.7c0-4.7,1.2-8.4,3.5-11c2.3-2.7,5.5-4,9.6-4
			c3.8,0,6.8,1.1,9,3.4s3.3,5.5,3.3,9.5v3.3h-19.1c0.1,2.8,0.8,4.9,2.3,6.4c1.4,1.5,3.4,2.2,6,2.2c1.7,0,3.3-0.2,4.7-0.5
			c1.4-0.3,3-0.8,4.7-1.6v4.9c-1.5,0.7-3,1.2-4.5,1.5C-32.3-167.9-34.1-167.8-36-167.8z M-37.1-192.9c-1.9,0-3.5,0.6-4.6,1.8
			c-1.2,1.2-1.9,3-2.1,5.4h13c0-2.4-0.6-4.2-1.7-5.4C-33.7-192.2-35.2-192.9-37.1-192.9z"/>
		<path class="st3" d="M-7.3-172.7c1.5,0,3-0.2,4.5-0.7v4.6c-0.7,0.3-1.5,0.5-2.6,0.7s-2.2,0.3-3.3,0.3c-5.8,0-8.6-3-8.6-9.1v-15.4
			h-3.9v-2.7l4.2-2.2l2.1-6.1h3.8v6.4h8.2v4.6h-8.2v15.3c0,1.5,0.4,2.5,1.1,3.2C-9.5-173.1-8.5-172.7-7.3-172.7z"/>
		<path class="st3" d="M47.1-168.3h-6.2v-17.1H23.5v17.1h-6.2v-37.9h6.2v15.5h17.4v-15.5h6.2L47.1-168.3L47.1-168.3z"/>
		<path class="st3" d="M56.1-204.5c0-1.1,0.3-1.9,0.9-2.5c0.6-0.6,1.4-0.9,2.5-0.9s1.9,0.3,2.5,0.9s0.9,1.4,0.9,2.5
			c0,1-0.3,1.9-0.9,2.4c-0.6,0.6-1.4,0.9-2.5,0.9s-2-0.3-2.5-0.9C56.4-202.7,56.1-203.5,56.1-204.5z M62.5-168.3h-6.1v-28.6h6.1
			V-168.3z"/>
		<path class="st3" d="M85.8-197.5c3.6,0,6.4,1.3,8.3,3.9c2,2.6,3,6.2,3,10.9s-1,8.3-3,11c-2,2.6-4.8,3.9-8.4,3.9
			c-3.6,0-6.4-1.3-8.4-3.9h-0.4l-1.1,3.4h-4.6v-40.3h6.1v9.6c0,0.7,0,1.8-0.1,3.2c-0.1,1.4-0.1,2.3-0.2,2.7h0.3
			C79.2-196,82.1-197.5,85.8-197.5z M84.3-192.5c-2.5,0-4.2,0.7-5.3,2.2c-1.1,1.4-1.6,3.9-1.7,7.2v0.4c0,3.5,0.6,6,1.7,7.6
			c1.1,1.6,2.9,2.3,5.4,2.3c2.2,0,3.8-0.9,4.9-2.6c1.1-1.7,1.7-4.2,1.7-7.4C90.9-189.2,88.7-192.5,84.3-192.5z"/>
		<path class="st3" d="M124.4-168.3l-0.9-3.8h-0.3c-0.8,1.3-2,2.4-3.6,3.1c-1.6,0.8-3.3,1.1-5.3,1.1c-3.5,0-6.1-0.9-7.8-2.6
			c-1.7-1.7-2.6-4.3-2.6-7.8v-18.6h6.1v17.6c0,2.2,0.4,3.8,1.3,4.9c0.9,1.1,2.3,1.6,4.2,1.6c2.6,0,4.4-0.8,5.6-2.3s1.8-4.1,1.8-7.7
			v-14.1h6.1v28.6C129-168.3,124.4-168.3,124.4-168.3z"/>
		<path class="st3" d="M176.8-168.3h-6.1v-17.6c0-2.2-0.4-3.9-1.3-4.9c-0.9-1.1-2.3-1.6-4.2-1.6c-2.6,0-4.4,0.8-5.6,2.3
			s-1.8,4.1-1.8,7.7v14.2h-6.1v-40.4h6.1v10.2c0,1.6-0.1,3.4-0.3,5.3h0.4c0.8-1.4,2-2.4,3.5-3.2c1.5-0.8,3.2-1.1,5.2-1.1
			c6.9,0,10.4,3.5,10.4,10.5v18.6H176.8z"/>
		<path class="st3" d="M197.8-167.8c-4.5,0-7.9-1.3-10.4-3.9c-2.5-2.6-3.8-6.2-3.8-10.7c0-4.7,1.2-8.4,3.5-11c2.3-2.7,5.5-4,9.6-4
			c3.8,0,6.8,1.1,9,3.4s3.3,5.5,3.3,9.5v3.3h-19.1c0.1,2.8,0.8,4.9,2.3,6.4c1.4,1.5,3.4,2.2,6,2.2c1.7,0,3.3-0.2,4.7-0.5
			s3-0.8,4.7-1.6v4.9c-1.5,0.7-3,1.2-4.5,1.5C201.5-167.9,199.7-167.8,197.8-167.8z M196.7-192.9c-1.9,0-3.5,0.6-4.6,1.8
			c-1.2,1.2-1.9,3-2.1,5.4h13c0-2.4-0.6-4.2-1.7-5.4C200.1-192.2,198.6-192.9,196.7-192.9z"/>
		<path class="st3" d="M221.9-168.3h-6.1v-40.3h6.1V-168.3z"/>
		<path class="st3" d="M245.1-167.8c-3.6,0-6.4-1.3-8.4-3.9h-0.4c0.2,2.4,0.4,3.9,0.4,4.4v11.7h-6.1v-41.3h4.9
			c0.1,0.5,0.4,1.8,0.9,3.8h0.3c1.9-2.9,4.7-4.3,8.5-4.3c3.6,0,6.4,1.3,8.3,3.9c2,2.6,3,6.2,3,10.9c0,4.7-1,8.3-3,10.9
			C251.5-169.1,248.7-167.8,245.1-167.8z M243.6-192.5c-2.4,0-4.2,0.7-5.3,2.1c-1.1,1.4-1.7,3.7-1.7,6.8v0.9c0,3.5,0.6,6,1.7,7.6
			c1.1,1.6,2.9,2.3,5.4,2.3c2.1,0,3.7-0.9,4.9-2.6c1.1-1.7,1.7-4.2,1.7-7.4s-0.6-5.6-1.7-7.3C247.5-191.8,245.8-192.5,243.6-192.5z"
			/>
		<path class="st3" d="M273-196.9h6.6l5.8,16.2c0.9,2.3,1.5,4.5,1.8,6.5h0.2c0.2-0.9,0.4-2.1,0.9-3.5c0.5-1.4,2.6-7.8,6.6-19.3h6.6
			l-12.2,32.4c-2.2,6-5.9,8.9-11.1,8.9c-1.3,0-2.7-0.1-3.9-0.4v-4.8c0.9,0.2,2,0.3,3.1,0.3c2.9,0,5-1.7,6.2-5.1l1.1-2.7L273-196.9z"
			/>
		<path class="st3" d="M331.2-182.7c0,4.7-1.2,8.3-3.6,10.9c-2.4,2.6-5.7,3.9-10,3.9c-2.7,0-5-0.6-7.1-1.8c-2.1-1.2-3.6-2.9-4.7-5.2
			s-1.7-4.9-1.7-7.9c0-4.6,1.2-8.3,3.6-10.9c2.4-2.6,5.7-3.9,10.1-3.9c4.1,0,7.4,1.3,9.8,4C330-190.8,331.2-187.2,331.2-182.7z
			 M310.4-182.7c0,6.6,2.4,9.9,7.3,9.9c4.8,0,7.2-3.3,7.2-9.9c0-6.5-2.4-9.8-7.3-9.8c-2.6,0-4.4,0.8-5.6,2.5
			C310.9-188.3,310.4-185.8,310.4-182.7z"/>
		<path class="st3" d="M358.4-168.3l-0.9-3.8h-0.3c-0.8,1.3-2,2.4-3.6,3.1c-1.6,0.8-3.3,1.1-5.3,1.1c-3.5,0-6.1-0.9-7.8-2.6
			c-1.7-1.7-2.6-4.3-2.6-7.8v-18.6h6.1v17.6c0,2.2,0.4,3.8,1.3,4.9c0.9,1.1,2.3,1.6,4.2,1.6c2.6,0,4.4-0.8,5.6-2.3
			c1.2-1.5,1.8-4.1,1.8-7.7v-14.1h6.1v28.6C363-168.3,358.4-168.3,358.4-168.3z"/>
		<path class="st3" d="M400.1-167.8c-3.6,0-6.4-1.3-8.4-3.9h-0.4c0.2,2.4,0.4,3.9,0.4,4.4v11.7h-6.1v-41.3h4.9
			c0.1,0.5,0.4,1.8,0.9,3.8h0.3c1.9-2.9,4.7-4.3,8.5-4.3c3.6,0,6.4,1.3,8.3,3.9c2,2.6,3,6.2,3,10.9c0,4.7-1,8.3-3,10.9
			C406.5-169.1,403.7-167.8,400.1-167.8z M398.6-192.5c-2.4,0-4.2,0.7-5.3,2.1c-1.1,1.4-1.7,3.7-1.7,6.8v0.9c0,3.5,0.6,6,1.7,7.6
			c1.1,1.6,2.9,2.3,5.4,2.3c2.1,0,3.7-0.9,4.9-2.6c1.1-1.7,1.7-4.2,1.7-7.4s-0.6-5.6-1.7-7.3C402.5-191.8,400.8-192.5,398.6-192.5z"
			/>
		<path class="st3" d="M438.8-168.3l-0.9-3.8h-0.3c-0.8,1.3-2,2.4-3.6,3.1c-1.6,0.8-3.3,1.1-5.3,1.1c-3.5,0-6.1-0.9-7.8-2.6
			s-2.6-4.3-2.6-7.8v-18.6h6.1v17.6c0,2.2,0.4,3.8,1.3,4.9c0.9,1.1,2.3,1.6,4.2,1.6c2.6,0,4.4-0.8,5.6-2.3c1.2-1.5,1.8-4.1,1.8-7.7
			v-14.1h6.1v28.6C443.4-168.3,438.8-168.3,438.8-168.3z"/>
		<path class="st3" d="M462.9-172.7c1.5,0,3-0.2,4.5-0.7v4.6c-0.7,0.3-1.5,0.5-2.6,0.7s-2.2,0.3-3.3,0.3c-5.8,0-8.6-3-8.6-9.1v-15.4
			H449v-2.7l4.2-2.2l2.1-6.1h3.8v6.4h8.2v4.6h-8.2v15.3c0,1.5,0.4,2.5,1.1,3.2C460.8-173.1,461.7-172.7,462.9-172.7z"/>
		<path class="st3" d="M482.5-196.9h6.6l5.8,16.2c0.9,2.3,1.5,4.5,1.8,6.5h0.2c0.2-0.9,0.4-2.1,0.9-3.5c0.5-1.4,2.6-7.8,6.6-19.3
			h6.6l-12.2,32.4c-2.2,6-5.9,8.9-11.1,8.9c-1.3,0-2.7-0.1-3.9-0.4v-4.8c0.9,0.2,2,0.3,3.1,0.3c2.9,0,5-1.7,6.2-5.1l1.1-2.7
			L482.5-196.9z"/>
		<path class="st3" d="M540.7-182.7c0,4.7-1.2,8.3-3.6,10.9c-2.4,2.6-5.7,3.9-10,3.9c-2.7,0-5-0.6-7.1-1.8c-2.1-1.2-3.6-2.9-4.7-5.2
			c-1.1-2.3-1.7-4.9-1.7-7.9c0-4.6,1.2-8.3,3.6-10.9c2.4-2.6,5.7-3.9,10.1-3.9c4.1,0,7.4,1.3,9.8,4
			C539.4-190.8,540.7-187.2,540.7-182.7z M519.8-182.7c0,6.6,2.4,9.9,7.3,9.9c4.8,0,7.2-3.3,7.2-9.9c0-6.5-2.4-9.8-7.3-9.8
			c-2.6,0-4.4,0.8-5.6,2.5C520.4-188.3,519.8-185.8,519.8-182.7z"/>
		<path class="st3" d="M567.8-168.3l-0.9-3.8h-0.3c-0.8,1.3-2,2.4-3.6,3.1c-1.6,0.8-3.3,1.1-5.3,1.1c-3.5,0-6.1-0.9-7.8-2.6
			s-2.6-4.3-2.6-7.8v-18.6h6.1v17.6c0,2.2,0.4,3.8,1.3,4.9c0.9,1.1,2.3,1.6,4.2,1.6c2.6,0,4.4-0.8,5.6-2.3c1.2-1.5,1.8-4.1,1.8-7.7
			v-14.1h6.1v28.6C572.4-168.3,567.8-168.3,567.8-168.3z"/>
		<path class="st3" d="M595.8-197.5c1.2,0,2.2,0.1,3,0.3l-0.6,5.7c-0.9-0.2-1.8-0.3-2.7-0.3c-2.4,0-4.4,0.8-5.9,2.4
			c-1.5,1.6-2.3,3.6-2.3,6.2v15h-6.1v-28.7h4.8l0.8,5h0.3c0.9-1.7,2.2-3.1,3.7-4.1C592.4-197,594-197.5,595.8-197.5z"/>
		<path class="st3" d="M632.5-197.5c3.6,0,6.4,1.3,8.3,3.9c2,2.6,3,6.2,3,10.9s-1,8.3-3,11c-2,2.6-4.8,3.9-8.4,3.9
			c-3.6,0-6.4-1.3-8.4-3.9h-0.4l-1.1,3.4h-4.6v-40.3h6.1v9.6c0,0.7,0,1.8-0.1,3.2c-0.1,1.4-0.1,2.3-0.2,2.7h0.3
			C625.9-196,628.8-197.5,632.5-197.5z M630.9-192.5c-2.5,0-4.2,0.7-5.3,2.2c-1.1,1.4-1.6,3.9-1.7,7.2v0.4c0,3.5,0.6,6,1.7,7.6
			c1.1,1.6,2.9,2.3,5.4,2.3c2.2,0,3.8-0.9,4.9-2.6c1.1-1.7,1.7-4.2,1.7-7.4C637.6-189.2,635.4-192.5,630.9-192.5z"/>
		<path class="st3" d="M671.1-168.3l-0.9-3.8h-0.3c-0.8,1.3-2,2.4-3.6,3.1c-1.6,0.8-3.3,1.1-5.3,1.1c-3.5,0-6.1-0.9-7.8-2.6
			s-2.6-4.3-2.6-7.8v-18.6h6.1v17.6c0,2.2,0.4,3.8,1.3,4.9c0.9,1.1,2.3,1.6,4.2,1.6c2.6,0,4.4-0.8,5.6-2.3c1.2-1.5,1.8-4.1,1.8-7.7
			v-14.1h6.1v28.6C675.7-168.3,671.1-168.3,671.1-168.3z"/>
		<path class="st3" d="M703.8-176.5c0,2.8-1,4.9-3.1,6.4c-2,1.5-5,2.2-8.7,2.2c-3.8,0-6.9-0.6-9.2-1.7v-5.3c3.4,1.6,6.5,2.3,9.4,2.3
			c3.7,0,5.6-1.1,5.6-3.4c0-0.7-0.2-1.3-0.6-1.8c-0.4-0.5-1.1-1-2-1.5s-2.3-1.1-4-1.8c-3.3-1.3-5.5-2.6-6.7-3.8
			c-1.2-1.3-1.7-2.9-1.7-5c0-2.4,1-4.4,3-5.7c2-1.4,4.7-2,8.1-2c3.4,0,6.5,0.7,9.5,2l-2,4.6c-3.1-1.3-5.7-1.9-7.8-1.9
			c-3.2,0-4.8,0.9-4.8,2.7c0,0.9,0.4,1.7,1.3,2.3s2.7,1.5,5.5,2.6c2.4,0.9,4.1,1.8,5.1,2.5c1.1,0.8,1.9,1.6,2.4,2.6
			S703.8-177.9,703.8-176.5z"/>
		<path class="st3" d="M710-204.5c0-1.1,0.3-1.9,0.9-2.5c0.6-0.6,1.4-0.9,2.5-0.9s1.9,0.3,2.5,0.9s0.9,1.4,0.9,2.5
			c0,1-0.3,1.9-0.9,2.4c-0.6,0.6-1.4,0.9-2.5,0.9s-2-0.3-2.5-0.9C710.3-202.7,710-203.5,710-204.5z M716.4-168.3h-6.1v-28.6h6.1
			V-168.3z"/>
		<path class="st3" d="M750.3-168.3h-6.1v-17.6c0-2.2-0.4-3.9-1.3-4.9c-0.9-1.1-2.3-1.6-4.2-1.6c-2.6,0-4.5,0.8-5.6,2.3
			c-1.2,1.5-1.8,4.1-1.8,7.6v14.3h-6.1v-28.7h4.8l0.9,3.8h0.3c0.9-1.4,2.1-2.4,3.7-3.2c1.6-0.7,3.3-1.1,5.3-1.1
			c6.9,0,10.3,3.5,10.3,10.5v18.6H750.3z"/>
		<path class="st3" d="M771.3-167.8c-4.5,0-7.9-1.3-10.4-3.9c-2.5-2.6-3.8-6.2-3.8-10.7c0-4.7,1.2-8.4,3.5-11c2.3-2.7,5.5-4,9.6-4
			c3.8,0,6.8,1.1,9,3.4s3.3,5.5,3.3,9.5v3.3h-19.1c0.1,2.8,0.8,4.9,2.3,6.4c1.4,1.5,3.4,2.2,6,2.2c1.7,0,3.3-0.2,4.7-0.5
			s3-0.8,4.7-1.6v4.9c-1.5,0.7-3,1.2-4.5,1.5C775-167.9,773.2-167.8,771.3-167.8z M770.2-192.9c-1.9,0-3.5,0.6-4.6,1.8
			c-1.2,1.2-1.9,3-2.1,5.4h13c0-2.4-0.6-4.2-1.7-5.4C773.6-192.2,772.1-192.9,770.2-192.9z"/>
		<path class="st3" d="M808.6-176.5c0,2.8-1,4.9-3.1,6.4c-2,1.5-5,2.2-8.7,2.2c-3.8,0-6.9-0.6-9.2-1.7v-5.3c3.4,1.6,6.5,2.3,9.4,2.3
			c3.7,0,5.6-1.1,5.6-3.4c0-0.7-0.2-1.3-0.6-1.8c-0.4-0.5-1.1-1-2-1.5s-2.3-1.1-4-1.8c-3.3-1.3-5.5-2.6-6.7-3.8
			c-1.2-1.3-1.7-2.9-1.7-5c0-2.4,1-4.4,3-5.7c2-1.4,4.7-2,8.1-2c3.4,0,6.5,0.7,9.5,2l-2,4.6c-3.1-1.3-5.7-1.9-7.8-1.9
			c-3.2,0-4.8,0.9-4.8,2.7c0,0.9,0.4,1.7,1.3,2.3s2.7,1.5,5.5,2.6c2.4,0.9,4.1,1.8,5.1,2.5c1.1,0.8,1.9,1.6,2.4,2.6
			S808.6-177.9,808.6-176.5z"/>
		<path class="st3" d="M834.4-176.5c0,2.8-1,4.9-3.1,6.4c-2,1.5-5,2.2-8.7,2.2c-3.8,0-6.9-0.6-9.2-1.7v-5.3c3.4,1.6,6.5,2.3,9.4,2.3
			c3.7,0,5.6-1.1,5.6-3.4c0-0.7-0.2-1.3-0.6-1.8c-0.4-0.5-1.1-1-2-1.5s-2.3-1.1-4-1.8c-3.3-1.3-5.5-2.6-6.7-3.8
			c-1.2-1.3-1.7-2.9-1.7-5c0-2.4,1-4.4,3-5.7c2-1.4,4.7-2,8.1-2c3.4,0,6.5,0.7,9.5,2l-2,4.6c-3.1-1.3-5.7-1.9-7.8-1.9
			c-3.2,0-4.8,0.9-4.8,2.7c0,0.9,0.4,1.7,1.3,2.3s2.7,1.5,5.5,2.6c2.4,0.9,4.1,1.8,5.1,2.5c1.1,0.8,1.9,1.6,2.4,2.6
			S834.4-177.9,834.4-176.5z"/>
		<path class="st3" d="M112-140.9c0-1.1,0.3-1.9,0.9-2.5c0.6-0.6,1.4-0.9,2.5-0.9s1.9,0.3,2.5,0.9c0.6,0.6,0.9,1.4,0.9,2.5
			c0,1-0.3,1.9-0.9,2.4c-0.6,0.6-1.4,0.9-2.5,0.9s-2-0.3-2.5-0.9C112.3-139.1,112-139.9,112-140.9z M118.4-104.7h-6.1v-28.6h6.1
			V-104.7z"/>
		<path class="st3" d="M152.3-104.7h-6.1v-17.6c0-2.2-0.4-3.9-1.3-4.9c-0.9-1.1-2.3-1.6-4.2-1.6c-2.6,0-4.5,0.8-5.6,2.3
			c-1.2,1.5-1.8,4.1-1.8,7.6v14.3h-6.1v-28.6h4.8l0.9,3.8h0.3c0.9-1.4,2.1-2.4,3.7-3.2c1.6-0.7,3.3-1.1,5.3-1.1
			c6.9,0,10.3,3.5,10.3,10.5v18.5H152.3z"/>
		<path class="st3" d="M188.9-128.7h-7v24h-6.1v-24h-4.7v-2.9l4.7-1.9v-1.9c0-3.4,0.8-5.9,2.4-7.5c1.6-1.6,4-2.4,7.3-2.4
			c2.1,0,4.2,0.4,6.3,1.1l-1.6,4.6c-1.5-0.5-2.9-0.7-4.3-0.7s-2.4,0.4-3,1.3c-0.6,0.9-0.9,2.1-0.9,3.8v1.9h7L188.9-128.7
			L188.9-128.7z"/>
		<path class="st3" d="M208.3-133.9c1.2,0,2.2,0.1,3,0.3l-0.6,5.7c-0.9-0.2-1.8-0.3-2.7-0.3c-2.4,0-4.4,0.8-5.9,2.4
			c-1.5,1.6-2.3,3.6-2.3,6.2v15h-6.1v-28.6h4.8l0.8,5h0.3c0.9-1.7,2.2-3.1,3.7-4.1C204.9-133.4,206.5-133.9,208.3-133.9z"/>
		<path class="st3" d="M242-119.1c0,4.7-1.2,8.3-3.6,10.9c-2.4,2.6-5.7,3.9-10,3.9c-2.7,0-5-0.6-7.1-1.8s-3.6-2.9-4.7-5.2
			s-1.7-4.9-1.7-7.9c0-4.6,1.2-8.3,3.6-10.9c2.4-2.6,5.7-3.9,10.1-3.9c4.1,0,7.4,1.3,9.8,4C240.8-127.2,242-123.6,242-119.1z
			 M221.2-119.1c0,6.6,2.4,9.9,7.3,9.9c4.8,0,7.2-3.3,7.2-9.9c0-6.5-2.4-9.8-7.3-9.8c-2.6,0-4.4,0.8-5.6,2.5
			C221.7-124.7,221.2-122.2,221.2-119.1z"/>
		<path class="st3" d="M274.2-104.7h-6.1v-17.6c0-2.2-0.4-3.9-1.3-4.9c-0.9-1.1-2.3-1.6-4.2-1.6c-2.6,0-4.5,0.8-5.6,2.3
			c-1.2,1.5-1.8,4.1-1.8,7.6v14.3h-6.1v-28.6h4.8l0.9,3.8h0.3c0.9-1.4,2.1-2.4,3.7-3.2c1.6-0.7,3.3-1.1,5.3-1.1
			c6.9,0,10.3,3.5,10.3,10.5v18.5H274.2z"/>
		<path class="st3" d="M293.3-109.1c1.5,0,3-0.2,4.5-0.7v4.6c-0.7,0.3-1.5,0.5-2.6,0.7s-2.2,0.3-3.3,0.3c-5.8,0-8.6-3-8.6-9.1v-15.4
			h-3.9v-2.7l4.2-2.2l2.1-6.1h3.8v6.4h8.2v4.6h-8.2v15.3c0,1.5,0.4,2.5,1.1,3.2C291.1-109.5,292.1-109.1,293.3-109.1z"/>
		<path class="st3" d="M342.6-119.1c0,4.7-1.2,8.3-3.6,10.9c-2.4,2.6-5.7,3.9-10,3.9c-2.7,0-5-0.6-7.1-1.8s-3.6-2.9-4.7-5.2
			s-1.7-4.9-1.7-7.9c0-4.6,1.2-8.3,3.6-10.9c2.4-2.6,5.7-3.9,10.1-3.9c4.1,0,7.4,1.3,9.8,4C341.4-127.2,342.6-123.6,342.6-119.1z
			 M321.8-119.1c0,6.6,2.4,9.9,7.3,9.9c4.8,0,7.2-3.3,7.2-9.9c0-6.5-2.4-9.8-7.3-9.8c-2.6,0-4.4,0.8-5.6,2.5
			C322.4-124.7,321.8-122.2,321.8-119.1z"/>
		<path class="st3" d="M364-128.7h-7v24h-6.1v-24h-4.7v-2.9l4.7-1.9v-1.9c0-3.4,0.8-5.9,2.4-7.5c1.6-1.6,4-2.4,7.3-2.4
			c2.1,0,4.2,0.4,6.3,1.1l-1.6,4.6c-1.5-0.5-2.9-0.7-4.3-0.7c-1.4,0-2.4,0.4-3,1.3c-0.6,0.9-0.9,2.1-0.9,3.8v1.9h7v4.6H364z"/>
		<path class="st3" d="M394.1-104.2c-4.3,0-7.6-1.3-9.9-3.8s-3.4-6.2-3.4-10.9c0-4.8,1.2-8.5,3.5-11.1c2.4-2.6,5.8-3.9,10.2-3.9
			c3,0,5.7,0.6,8.2,1.7l-1.8,4.9c-2.6-1-4.7-1.5-6.4-1.5c-5,0-7.4,3.3-7.4,9.9c0,3.2,0.6,5.6,1.9,7.2c1.2,1.6,3,2.4,5.4,2.4
			c2.7,0,5.3-0.7,7.7-2v5.3c-1.1,0.6-2.2,1.1-3.5,1.4C397.4-104.3,395.9-104.2,394.1-104.2z"/>
		<path class="st3" d="M429-104.7l-0.9-3.8h-0.3c-0.8,1.3-2,2.4-3.6,3.1c-1.6,0.8-3.3,1.1-5.3,1.1c-3.5,0-6.1-0.9-7.8-2.6
			c-1.7-1.7-2.6-4.3-2.6-7.8v-18.7h6.1v17.6c0,2.2,0.4,3.8,1.3,4.9c0.9,1.1,2.3,1.6,4.2,1.6c2.6,0,4.4-0.8,5.6-2.3
			c1.2-1.5,1.8-4.1,1.8-7.7v-14.3h6.1v28.6H429V-104.7z"/>
		<path class="st3" d="M461.7-112.9c0,2.8-1,4.9-3.1,6.4c-2,1.5-5,2.2-8.7,2.2c-3.8,0-6.9-0.6-9.2-1.7v-5.3c3.4,1.6,6.5,2.3,9.4,2.3
			c3.7,0,5.6-1.1,5.6-3.4c0-0.7-0.2-1.3-0.6-1.8c-0.4-0.5-1.1-1-2-1.5s-2.3-1.1-4-1.8c-3.3-1.3-5.5-2.6-6.7-3.8
			c-1.2-1.3-1.7-2.9-1.7-5c0-2.4,1-4.4,3-5.7c2-1.4,4.7-2,8.1-2c3.4,0,6.5,0.7,9.5,2l-2,4.6c-3.1-1.3-5.7-1.9-7.8-1.9
			c-3.2,0-4.8,0.9-4.8,2.7c0,0.9,0.4,1.7,1.3,2.3s2.7,1.5,5.5,2.6c2.4,0.9,4.1,1.8,5.1,2.5c1.1,0.8,1.9,1.6,2.4,2.6
			S461.7-114.3,461.7-112.9z"/>
		<path class="st3" d="M478.9-109.1c1.5,0,3-0.2,4.5-0.7v4.6c-0.7,0.3-1.5,0.5-2.6,0.7s-2.2,0.3-3.3,0.3c-5.8,0-8.6-3-8.6-9.1v-15.4
			H465v-2.7l4.2-2.2l2.1-6.1h3.8v6.4h8.2v4.6h-8.2v15.3c0,1.5,0.4,2.5,1.1,3.2C476.8-109.5,477.8-109.1,478.9-109.1z"/>
		<path class="st3" d="M514.5-119.1c0,4.7-1.2,8.3-3.6,10.9c-2.4,2.6-5.7,3.9-10,3.9c-2.7,0-5-0.6-7.1-1.8s-3.6-2.9-4.7-5.2
			c-1.1-2.3-1.7-4.9-1.7-7.9c0-4.6,1.2-8.3,3.6-10.9c2.4-2.6,5.7-3.9,10.1-3.9c4.1,0,7.4,1.3,9.8,4
			C513.3-127.2,514.5-123.6,514.5-119.1z M493.7-119.1c0,6.6,2.4,9.9,7.3,9.9c4.8,0,7.2-3.3,7.2-9.9c0-6.5-2.4-9.8-7.3-9.8
			c-2.6,0-4.4,0.8-5.6,2.5C494.2-124.7,493.7-122.2,493.7-119.1z"/>
		<path class="st3" d="M545.6-104.7h-6.1v-17.6c0-2.2-0.4-3.8-1.2-4.9c-0.8-1.1-2.1-1.6-3.9-1.6c-2.3,0-4.1,0.8-5.2,2.3
			c-1.1,1.5-1.6,4.1-1.6,7.6v14.3h-6.1v-28.6h4.8l0.9,3.8h0.3c0.8-1.4,1.9-2.4,3.5-3.2c1.5-0.7,3.2-1.1,5-1.1c4.4,0,7.3,1.5,8.7,4.5
			h0.4c0.8-1.4,2-2.5,3.6-3.3c1.5-0.8,3.3-1.2,5.3-1.2c3.4,0,5.9,0.9,7.5,2.6c1.6,1.7,2.3,4.4,2.3,7.9v18.7h-6.1v-17.6
			c0-2.2-0.4-3.8-1.3-4.9c-0.8-1.1-2.1-1.6-3.9-1.6c-2.4,0-4.1,0.7-5.2,2.2c-1.1,1.5-1.6,3.7-1.6,6.8v14.9H545.6z"/>
		<path class="st3" d="M584.7-104.2c-4.5,0-7.9-1.3-10.4-3.9c-2.5-2.6-3.8-6.2-3.8-10.7c0-4.7,1.2-8.4,3.5-11c2.3-2.7,5.5-4,9.6-4
			c3.8,0,6.8,1.1,9,3.4c2.2,2.3,3.3,5.5,3.3,9.5v3.3h-19.1c0.1,2.8,0.8,4.9,2.3,6.4c1.4,1.5,3.4,2.2,6,2.2c1.7,0,3.3-0.2,4.7-0.5
			s3-0.8,4.7-1.6v4.9c-1.5,0.7-3,1.2-4.5,1.5C588.3-104.3,586.6-104.2,584.7-104.2z M583.5-129.3c-1.9,0-3.5,0.6-4.6,1.8
			c-1.2,1.2-1.9,3-2.1,5.4h13c0-2.4-0.6-4.2-1.7-5.4C587-128.6,585.5-129.3,583.5-129.3z"/>
		<path class="st3" d="M617.2-133.9c1.2,0,2.2,0.1,3,0.3l-0.6,5.7c-0.9-0.2-1.8-0.3-2.7-0.3c-2.4,0-4.4,0.8-5.9,2.4
			c-1.5,1.6-2.3,3.6-2.3,6.2v15h-6.1v-28.6h4.8l0.8,5h0.3c0.9-1.7,2.2-3.1,3.7-4.1C613.8-133.4,615.5-133.9,617.2-133.9z"/>
		<path class="st3" d="M644.8-112.9c0,2.8-1,4.9-3.1,6.4c-2,1.5-5,2.2-8.7,2.2c-3.8,0-6.9-0.6-9.2-1.7v-5.3c3.4,1.6,6.5,2.3,9.4,2.3
			c3.7,0,5.6-1.1,5.6-3.4c0-0.7-0.2-1.3-0.6-1.8c-0.4-0.5-1.1-1-2-1.5s-2.3-1.1-4-1.8c-3.3-1.3-5.5-2.6-6.7-3.8
			c-1.2-1.3-1.7-2.9-1.7-5c0-2.4,1-4.4,3-5.7c2-1.4,4.7-2,8.1-2c3.4,0,6.5,0.7,9.5,2l-2,4.6c-3.1-1.3-5.7-1.9-7.8-1.9
			c-3.2,0-4.8,0.9-4.8,2.7c0,0.9,0.4,1.7,1.3,2.3s2.7,1.5,5.5,2.6c2.4,0.9,4.1,1.8,5.1,2.5c1.1,0.8,1.9,1.6,2.4,2.6
			S644.8-114.3,644.8-112.9z"/>
	</g>
</g>
<g id="Layer_6">
	<g>
		<g>
			<g>
				<path d="M46.9,261.1c0-2,1.2-2.9,3.3-2.9c1.3,0,2.5,0.5,2.9,0.7v33.4h19.3v5.4H46.9V261.1z"/>
				<path d="M91.8,298.6c-9.1,0-15.4-6.6-15.4-15.4c0-8.7,6.3-15.4,15.4-15.4c9,0,15.3,6.6,15.3,15.4
					C107.1,291.9,100.9,298.6,91.8,298.6z M91.8,272.7c-5.8,0-9.2,4.4-9.2,10.5c0,6.2,3.5,10.5,9.2,10.5s9.1-4.4,9.1-10.5
					C101,277,97.5,272.7,91.8,272.7z"/>
				<path d="M119.2,283.2c0,7.1,4.3,10.4,9.6,10.4c3.8,0,6.6-1.7,7.1-2.1l2.5,4.1c-1.4,1-4.8,2.9-10.4,2.9
					c-8.5,0-15.1-5.5-15.1-15.1c0-9.7,6.7-15.4,15.3-15.4c5.2,0,7.8,1.5,8.6,2.1c0.7,0.6,1.4,1.4,1.4,2.6c0,0.9-0.6,2.4-1.8,3.3
					c-0.9-0.9-3.5-3.1-7.8-3.1C123.4,272.8,119.2,276.4,119.2,283.2z"/>
				<path d="M147,274.9c-0.9-0.5-1.6-1.6-1.6-2.9c0-1.3,0.8-2.1,2-2.8c1.3-0.6,3.6-1.3,7-1.3c9.2,0,14.9,3.2,14.9,12.3v17.2
					c-1.4,0.3-5.9,1-12.9,1c-11.5,0-13.7-4.5-13.7-9.3c0-6,3.4-9.6,13.3-9.6c3.5,0,6.6,0.2,7.5,0.3v-0.3c0-0.6-0.1-1.2-0.2-1.7
					c-0.6-3.6-3.2-5.5-8.6-5.5C150.3,272.4,148,274.2,147,274.9z M163.5,284.1c-0.4-0.1-4.1-0.5-6.8-0.5c-5.8,0-8.1,1.7-8.1,5.4
					c0,3.1,1.7,5.2,8,5.2c3.9,0,6.1-0.4,6.8-0.6v-9.5H163.5z"/>
				<path d="M178.5,257.9c0-1.8,1.2-2.7,3.2-2.7c1.3,0,2.4,0.4,2.8,0.6v41.8h-6V257.9z"/>
				<path d="M197.2,298.6c-2.5,0-4.4-2-4.4-4.3c0-2.5,1.9-4.4,4.4-4.4c2.4,0,4.3,1.9,4.3,4.4C201.4,296.6,199.5,298.6,197.2,298.6z"
					/>
				<path d="M237.1,297.6h-13.9v-36.1c0-2.2,1.2-3.5,3.7-3.5h10.2c12.9,0,20.9,7.8,20.9,19.7C258,289.8,250,297.6,237.1,297.6z
					 M236.8,263.3h-7.4v29.2h7.4c9.6,0,14.8-6.2,14.8-14.6C251.6,269.3,246.4,263.3,236.8,263.3z"/>
				<path d="M269.1,262.5c-2,0-3.7-1.6-3.7-3.6s1.7-3.6,3.7-3.6c2.1,0,3.7,1.6,3.7,3.6C272.8,260.9,271.2,262.5,269.1,262.5z
					 M266.2,271.5c0-1.9,1.1-2.7,3.2-2.7c1.3,0,2.4,0.3,2.8,0.5v28.4h-6V271.5z"/>
				<path d="M303.6,292.1c4.1,2.3,4.8,5.6,4.8,7.5c0,6.2-5.7,10.1-13.9,10.1c-8.7,0-13.3-3.1-13.7-3.6l2.5-4.4
					c0.7,0.6,4.5,3.2,10.6,3.2c4.6,0,8.2-1.6,8.2-5.6c0-1.4-0.8-3.5-3.3-4.6c-1.2,0.5-3.3,0.8-4.8,0.8c-8.3,0-14.3-5.8-14.3-13.9
					c0-8.1,6.2-13.8,14.3-13.8c1.8,0,3.6,0.3,5.2,0.9h9c2,0,2.7,0.9,2.7,2.5c0,1.1-0.5,2-0.7,2.3H305c2.5,2.2,3.3,5.6,3.3,8.4
					C308.3,286.3,306.5,289.6,303.6,292.1z M294.1,272.5c-5.1,0-8.3,3.7-8.3,9.1c0,5.5,3.3,9.2,8.3,9.2s8.3-3.7,8.3-9.2
					C302.3,276.1,299.1,272.5,294.1,272.5z"/>
				<path d="M320.5,262.5c-2,0-3.7-1.6-3.7-3.6s1.7-3.6,3.7-3.6c2.1,0,3.7,1.6,3.7,3.6S322.5,262.5,320.5,262.5z M317.5,271.5
					c0-1.9,1.1-2.7,3.2-2.7c1.3,0,2.4,0.3,2.8,0.5v28.4h-6V271.5z"/>
				<path d="M340.4,273.7v14.8c0,3.9,1.8,5,4.7,5c2.5,0,4.4-1.3,4.8-1.6l2.3,3.7c-0.6,0.5-3.3,2.8-8.3,2.8c-6.6,0-9.4-3.9-9.4-9.1
					v-15.6h-2.6c-1.8,0-2.8-0.8-2.8-2.5c0-1.2,0.5-2.2,0.7-2.5h4.7v-6.3c0-1.8,1.2-2.7,3.2-2.7c1.3,0,2.4,0.4,2.8,0.6v8.4h7.4
					c1.8,0,2.7,0.8,2.7,2.5c0,1.2-0.5,2.2-0.6,2.5L340.4,273.7L340.4,273.7z"/>
				<path d="M358.5,274.9c-0.9-0.5-1.6-1.6-1.6-2.9c0-1.3,0.8-2.1,2-2.8c1.3-0.6,3.6-1.3,7-1.3c9.2,0,14.9,3.2,14.9,12.3v17.2
					c-1.4,0.3-5.9,1-12.9,1c-11.5,0-13.7-4.5-13.7-9.3c0-6,3.4-9.6,13.3-9.6c3.5,0,6.6,0.2,7.5,0.3v-0.3c0-0.6-0.1-1.2-0.2-1.7
					c-0.6-3.6-3.2-5.5-8.6-5.5C361.8,272.4,359.6,274.2,358.5,274.9z M375,284.1c-0.4-0.1-4.1-0.5-6.8-0.5c-5.8,0-8.1,1.7-8.1,5.4
					c0,3.1,1.7,5.2,8,5.2c3.9,0,6.1-0.4,6.8-0.6L375,284.1L375,284.1z"/>
				<path d="M390.1,257.9c0-1.8,1.1-2.7,3.2-2.7c1.3,0,2.4,0.4,2.8,0.6v41.8h-6V257.9z"/>
				<path d="M408.7,298.6c-2.5,0-4.4-2-4.4-4.3c0-2.5,1.9-4.4,4.4-4.4c2.4,0,4.3,1.9,4.3,4.4C413,296.6,411.1,298.6,408.7,298.6z"/>
				<path d="M447.4,262c-6.2,0-8.3,2.9-8.3,6.1c0,3.4,2.2,4.9,7.1,6.2l4.8,1.2c7.5,1.8,11.9,4.7,11.9,11.2c0,7-4.4,12-15,12
					c-9.4,0-14.6-3.8-15.6-4.7l2.9-4.4c1.3,0.9,5.5,4.3,12.7,4.3c6.3,0,8.7-2.4,8.7-6.3c0-3.9-3.2-5.3-7.3-6.4l-5.1-1.3
					c-5.8-1.5-11.1-4.4-11.1-11c0-5.9,3.8-11.6,14.4-11.6c7.2,0,10.6,2,11.8,2.8c1.3,0.9,1.8,2,1.8,2.9c0,1.8-1.8,3.1-2.5,3.6
					C457,264.8,453.6,262,447.4,262z"/>
				<path d="M484.7,298.6c-9.1,0-15.4-6.6-15.4-15.4c0-8.7,6.3-15.4,15.4-15.4c9,0,15.3,6.6,15.3,15.4
					C500,291.9,493.7,298.6,484.7,298.6z M484.7,272.7c-5.8,0-9.2,4.4-9.2,10.5c0,6.2,3.5,10.5,9.2,10.5s9.1-4.4,9.1-10.5
					C493.8,277,490.4,272.7,484.7,272.7z"/>
				<path d="M507.7,257.9c0-1.8,1.2-2.7,3.2-2.7c1.3,0,2.4,0.4,2.8,0.6v41.8h-6V257.9z"/>
				<path d="M543.5,271.5c0-1.8,1.1-2.7,3.1-2.7c1.3,0,2.4,0.4,2.8,0.6v28.3c-1,0.3-5.8,0.8-10.5,0.8c-7,0-11.1-1.7-13.6-4.9
					c-1.6-2-2.4-4.7-2.4-8.1v-13.9c0-1.8,1.1-2.7,3.1-2.7c1.3,0,2.4,0.4,2.8,0.6v15.4c0,5.8,2.6,8.7,9.7,8.7c2.7,0,4.3-0.2,4.9-0.4
					v-21.7H543.5z"/>
				<path d="M566,273.7v14.8c0,3.9,1.8,5,4.7,5c2.5,0,4.4-1.3,4.8-1.6l2.3,3.7c-0.6,0.5-3.3,2.8-8.3,2.8c-6.6,0-9.4-3.9-9.4-9.1
					v-15.6h-2.6c-1.8,0-2.8-0.8-2.8-2.5c0-1.2,0.5-2.2,0.7-2.5h4.7v-6.3c0-1.8,1.2-2.7,3.2-2.7c1.3,0,2.4,0.4,2.8,0.6v8.4h7.4
					c1.8,0,2.7,0.8,2.7,2.5c0,1.2-0.5,2.2-0.6,2.5L566,273.7L566,273.7z"/>
				<path d="M584.9,262.5c-2,0-3.7-1.6-3.7-3.6s1.7-3.6,3.7-3.6c2.1,0,3.7,1.6,3.7,3.6C588.6,260.9,586.9,262.5,584.9,262.5z
					 M581.9,271.5c0-1.9,1.2-2.7,3.2-2.7c1.3,0,2.4,0.3,2.8,0.5v28.4h-6V271.5z"/>
				<path d="M611.1,298.6c-9.1,0-15.4-6.6-15.4-15.4c0-8.7,6.3-15.4,15.4-15.4c9,0,15.3,6.6,15.3,15.4
					C626.4,291.9,620.1,298.6,611.1,298.6z M611.1,272.7c-5.7,0-9.2,4.4-9.2,10.5c0,6.2,3.5,10.5,9.2,10.5s9.2-4.4,9.2-10.5
					C620.2,277,616.7,272.7,611.1,272.7z"/>
				<path d="M654.8,297.6v-16.2c0-5.6-2.6-8.6-8.3-8.6c-3.9,0-6.2,1-6.8,1.3v23.5h-5.9v-27.2c0.6-0.3,5.8-2.5,13.1-2.5
					c8.5,0,13.9,4.6,13.9,11.9v17.9h-6V297.6z"/>
				<path d="M673.9,276.4c0,2.1,1.8,3,5.3,3.6l4.9,0.7c7.4,1.1,10.2,3.9,10.2,8.4c0,5.5-4.3,9.4-13.1,9.4c-8.2,0-13-3-13.6-3.6
					l2.4-4.1c0.6,0.5,4.8,3,11.2,3c4.4,0,6.8-1.1,6.8-3.9c0-2.2-1.4-3.3-6-3.9l-4-0.6c-6.4-0.9-10.1-3.4-10.1-8.5
					c0-4.7,3.1-9,12.5-9c5.3,0,8.3,1.1,9.8,1.8c1.6,0.8,2.4,1.8,2.4,2.9c0,1.6-1,2.5-1.9,3c-0.3-0.3-3.3-3.3-10-3.3
					C675.8,272.4,673.9,273.9,673.9,276.4z"/>
				<path d="M705.2,298.6c-2.5,0-4.4-2-4.4-4.3c0-2.5,1.9-4.4,4.4-4.4c2.4,0,4.3,1.9,4.3,4.4C709.4,296.6,707.5,298.6,705.2,298.6z"
					/>
			</g>
			<g>
				<path d="M215.3,91.5c-16.4,0.6-25.5,8.8-26.6,9.8V43.2c-2-0.7-8.6-3.1-14.7-3.3c-8.6-0.3-15.2,1.9-18,6
					c-1.5,2.3-2.4,5.1-2.4,9.5v151.3H189v-58c0-19.2,10.2-24.4,20.8-24.4c9.7,0,19.9,3.1,19.9,21.3v61.1h35.4v-68.3
					C264.9,102.3,240.6,90.6,215.3,91.5z"/>
				<path d="M308.6,94.8c-5.6,0-10,1.2-13.4,3.5s-5,6.4-5,12.1v96.4h35.3V98c-0.9-0.3-2.9-0.9-6.1-1.9
					C316.2,95.2,312.6,94.8,308.6,94.8z"/>
				<path d="M417.4,91.7c-16.5-0.6-29.6,9.4-32.2,12.1v-49c-0.9-0.3-2.9-0.9-6.1-1.9c-3.2-1-6.7-1.4-10.7-1.4
					c-5.6,0-10.1,1.2-13.5,3.5c-3.4,2.4-5.1,6.4-5.1,12.1v78.6c0,49.5,30.5,64.2,61.1,64.2c25.4,0,60.6-16.4,60.6-59.1
					C471.6,124.2,455,93,417.4,91.7z M410.1,177.4c-18.4,0-25.2-14.3-25.2-26.7c0-9.7,6.3-26.7,25.2-26.7
					c18.6,0,25.2,15.9,25.2,26.7C435.3,164.4,426.9,177.4,410.1,177.4z"/>
				<path d="M595.6,96.2c-3.2-0.9-6.8-1.4-10.8-1.4c-5.6,0-10,1.2-13.4,3.5s-5,6.4-5,12.1v44.2c0,15.2-6.9,22.9-20.7,22.9
					s-20.7-7.6-20.7-22.9V98.1c-0.9-0.3-3-0.9-6.2-1.9c-3.2-0.9-6.8-1.4-10.7-1.4c-5.6,0-10,1.2-13.4,3.5s-5.1,6.4-5.1,12.1v50.7
					c0,12.9,4.8,48.8,56.1,48.8c50.3,0,56-35.9,56-48.8V98C600.9,97.8,598.8,97.1,595.6,96.2z"/>
				<path class="st4" d="M289.8,59.9c0-10,8.1-18,18-18s18,8.1,18,18c0,10-8.1,18-18,18S289.8,69.9,289.8,59.9z"/>
				<path class="st5" d="M489.7,59.9c0-10,8.1-18,18-18c10,0,18,8.1,18,18c0,10-8.1,18-18,18C497.7,77.9,489.7,69.9,489.7,59.9z"/>
				<path class="st6" d="M566.4,59.9c0-10,8.1-18,18-18c10,0,18,8.1,18,18c0,10-8.1,18-18,18C574.4,77.9,566.4,69.9,566.4,59.9z"/>
				<g>
					<path d="M616.4,100.6h-3.3v-1.2h8.1v1.2h-3.3v9.9h-1.4L616.4,100.6L616.4,100.6z"/>
					<path d="M623.1,99.4h1.7l2.1,5.9l0.8,2.3h0.1l0.8-2.3l2.1-5.9h1.7v11.1h-1.3v-6.1c0-1,0.1-2.3,0.2-3.3h-0.1l-0.9,2.5l-2.1,5.8
						h-0.8l-2.1-5.8l-0.9-2.5h-0.1c0.1,1,0.2,2.3,0.2,3.3v6.1h-1.3V99.4H623.1z"/>
				</g>
			</g>
		</g>
	</g>
</g>
</svg>
