<svg width="51" height="33" viewBox="0 0 51 33" fill="none" xmlns="http://www.w3.org/2000/svg">
<path fill-rule="evenodd" clip-rule="evenodd" d="M8.05637 21.7836C8.64046 21.2163 8.976 20.4029 8.976 19.5447C8.976 18.6728 8.66945 17.9752 8.05637 17.3645C7.83751 17.146 7.60345 17.0736 7.45778 17.0592C7.69113 16.8558 7.90997 16.3905 7.90997 15.693C7.90997 14.8637 7.7346 14.1517 7.15123 13.5555C6.55264 12.9585 5.94027 12.6394 4.59742 12.6394L0 12.6539V22.7286H5.40037C6.69901 22.7286 7.48748 22.3646 8.05637 21.7836ZM2.78642 14.965V16.4332H4.21696C4.52351 16.4332 4.72787 16.3312 4.84454 16.2154C4.97572 16.0845 5.06341 15.8956 5.06341 15.6923C5.06341 15.2849 4.74237 14.9643 4.33363 14.9643H2.78642V14.965ZM5.89535 19.5447C5.89535 19.1229 5.54459 18.7886 5.13587 18.7886H2.78642V20.3298H4.94673C5.31124 20.3298 5.53082 20.2285 5.662 20.0976C5.80767 19.9521 5.89535 19.7633 5.89535 19.5447Z" fill="#2E3645"/>
<path d="M40.5962 12.6394V18.7834C40.5962 19.9769 40.1703 21.0254 39.3181 21.8558C38.4657 22.7 37.4226 23.1362 36.2032 23.1362C34.9986 23.1362 33.97 22.7 33.1026 21.8558C32.2502 21.0254 31.8242 19.9769 31.8242 18.7834V12.6394H34.9986V18.7834C34.9986 19.453 35.5415 19.9769 36.2032 19.9769C36.8797 19.9769 37.4226 19.453 37.4226 18.7834V12.6394H40.5962Z" fill="#2E3645"/>
<path d="M47.8268 12.6394V17.2273L44.5672 12.6394L41.4102 12.6539V22.7141H44.5672V18.0691L47.8414 22.7286L47.8705 22.7141H50.9982V12.6394H47.8268Z" fill="#2E3645"/>
<path d="M31.1088 12.6394H27.126L24.3808 16.1283V12.6394H21.2148V17.684V22.7286H24.3808V19.2389L27.126 22.7286H31.1088L27.2616 17.684L31.1088 12.6394Z" fill="#2E3645"/>
<path fill-rule="evenodd" clip-rule="evenodd" d="M14.9337 23.1363C16.443 23.1363 17.7173 22.595 18.7866 21.5408C19.8558 20.4721 20.3976 19.1848 20.3984 17.6913C20.3984 16.184 19.8565 14.896 18.7866 13.8418C17.7166 12.7731 16.443 12.2318 14.9337 12.2318C13.4245 12.2318 12.1509 12.7731 11.0809 13.8418C10.0263 14.896 9.48438 16.184 9.48438 17.6913C9.48438 19.1848 10.0263 20.4721 11.0809 21.5408C12.1509 22.595 13.4252 23.1363 14.9337 23.1363ZM14.9337 15.4082C15.5643 15.4082 16.091 15.6282 16.5456 16.0813C17.014 16.5206 17.2336 17.0619 17.2336 17.6913C17.2336 18.3208 17.014 18.8628 16.5456 19.3159C16.091 19.7552 15.5636 19.9745 14.9337 19.9745C14.2886 19.9745 13.762 19.7552 13.3074 19.3159C12.8688 18.8621 12.6484 18.3208 12.6484 17.6913C12.6484 17.0619 12.8688 16.5206 13.3074 16.0813C13.762 15.6282 14.2893 15.4082 14.9337 15.4082Z" fill="#2E3645"/>
<path fill-rule="evenodd" clip-rule="evenodd" d="M36.4914 0.308228H36.4929L43.0529 6.19487L40.6845 7.8422L44.3336 5.7095L49.476 10.1502L50.7944 11.1108H21.3164L27.4503 5.55158L28.5103 5.8877L30.6198 4.12736L31.5043 4.97495L30.8292 6.01087L36.4914 0.308228ZM36.445 1.48758L31.1409 6.86207L34.806 5.04159L34.8605 5.74646L35.2474 4.96407L35.3564 6.37236C35.3564 6.37236 37.2974 3.98901 37.3797 3.89774C37.3848 3.89195 37.395 3.88905 37.4088 3.88905C37.6172 3.88905 38.7224 4.47944 38.7224 4.47944L36.445 1.48758ZM30.2439 5.17417L29.5814 6.60851L29.3543 6.39699L27.2821 8.68905C27.2821 8.68905 27.2765 8.38987 27.2734 8.28118C27.2734 8.26525 27.2589 8.25874 27.2349 8.25874C27.093 8.25874 26.6093 8.49128 26.6093 8.49128L27.2523 7.16705L25.9213 7.4503L27.6047 6.14706L28.2257 6.78381L30.2439 5.17417ZM44.3983 6.4513L40.8535 8.50358H40.8688L44.3395 7.61256L44.3568 8.52242L45.0616 7.77772L46.0147 7.75019L44.3983 6.4513Z" fill="#1D57C7"/>
<path d="M18.156 8.86877L15.7798 11.1108H13.668L15.7798 8.86877H18.156Z" fill="#2E3645"/>
<path d="M48.4492 32.3082H48.7559L50.9992 28.8433H50.6933L49.4925 30.7363L49.0285 28.8433H48.7409L49.2959 31.019L48.4492 32.3082Z" fill="#666666"/>
<path d="M46.2813 31.0853L46.5299 29.8412C46.5645 29.6649 46.6264 29.5114 46.7134 29.3816C46.8011 29.2518 46.9059 29.1529 47.0282 29.0847C47.1506 29.0166 47.2819 28.9831 47.4221 28.9831C47.6004 28.9831 47.7354 29.0261 47.8275 29.1127C47.9196 29.1995 47.9661 29.3278 47.9661 29.4978C47.9661 29.563 47.9565 29.6447 47.9374 29.7439L47.6698 31.0853H47.947L48.2242 29.7021C48.2404 29.6153 48.2479 29.5381 48.2479 29.4699C48.2479 29.2468 48.1793 29.0696 48.0427 28.9386C47.9057 28.8072 47.7214 28.7413 47.4892 28.7413C47.3201 28.7413 47.164 28.7786 47.0187 28.8525C46.8741 28.927 46.7503 29.0317 46.6486 29.168L46.7157 28.8153H46.4576L46.0039 31.0853H46.2813Z" fill="#666666"/>
<path fill-rule="evenodd" clip-rule="evenodd" d="M44.9423 30.7463C44.8352 30.8839 44.7002 30.992 44.5387 31.0704C44.3774 31.1488 44.2064 31.1879 44.0259 31.1872C43.8395 31.1872 43.6715 31.1444 43.5226 31.0582C43.3737 30.9717 43.2571 30.8501 43.1714 30.6918C43.0853 30.5339 43.043 30.3517 43.043 30.1451C43.043 29.9045 43.0995 29.6775 43.2117 29.4643C43.3239 29.2512 43.4808 29.0779 43.6818 28.9431C43.8829 28.8088 44.1037 28.7413 44.3443 28.7413C44.5438 28.7413 44.7215 28.7899 44.8763 28.8871C45.0309 28.9843 45.1485 29.1199 45.2276 29.2954L45.3318 28.8169H45.593L45.1462 31.1124H44.8807L44.9423 30.7463ZM43.3223 30.1365C43.3223 30.3802 43.3927 30.5758 43.5337 30.7231C43.6746 30.8702 43.8608 30.9442 44.0919 30.9435C44.2732 30.9435 44.4411 30.8941 44.5982 30.7956C44.7544 30.6969 44.882 30.5593 44.9803 30.3822C45.0787 30.2054 45.128 30.0111 45.128 29.7979C45.128 29.5506 45.0581 29.3534 44.9187 29.2061C44.7793 29.0591 44.5939 28.9858 44.3628 28.9858C44.1823 28.9858 44.0136 29.0352 43.8564 29.1336C43.7003 29.2323 43.5719 29.37 43.472 29.547C43.3722 29.7238 43.3223 29.9205 43.3223 30.1365Z" fill="#666666"/>
<path fill-rule="evenodd" clip-rule="evenodd" d="M39.9532 32.3082H39.6797L40.3487 28.8179H40.6125L40.5464 29.1887C40.6525 29.0491 40.7863 28.9398 40.9461 28.8604C41.1062 28.781 41.2777 28.7413 41.4596 28.7413C41.6441 28.7413 41.8108 28.7846 41.9584 28.872C42.1059 28.9596 42.2215 29.0828 42.3065 29.2431C42.3914 29.4032 42.4337 29.5874 42.4337 29.797C42.4337 30.0415 42.3777 30.2714 42.2665 30.4866C42.1553 30.7026 41.9996 30.8781 41.8006 31.0147C41.6014 31.1508 41.3825 31.2191 41.1441 31.2191C40.9461 31.2191 40.7703 31.1699 40.6169 31.0714C40.4634 30.9737 40.3471 30.8356 40.2688 30.6578L39.9532 32.3082ZM40.3667 30.1488C40.3667 30.3993 40.4359 30.599 40.5741 30.7482C40.712 30.8972 40.896 30.9722 41.125 30.9714C41.3039 30.9714 41.4711 30.9214 41.6268 30.8217C41.7815 30.7217 41.9087 30.5822 42.0077 30.4029C42.1065 30.2238 42.1561 30.0245 42.1561 29.8057C42.1561 29.5588 42.0861 29.3606 41.9467 29.2114C41.807 29.0625 41.6225 28.9882 41.3935 28.9882C41.2138 28.9882 41.0474 29.0382 40.8917 29.138C40.737 29.238 40.6102 29.3774 40.513 29.5568C40.4156 29.7359 40.3667 29.9336 40.3667 30.1488Z" fill="#666666"/>
<path d="M35.5977 31.0853H35.8722L36.1184 29.8412C36.1718 29.5781 36.2769 29.3695 36.4331 29.2146C36.5895 29.0596 36.7713 28.9823 36.9796 28.9823C37.3199 28.9823 37.4902 29.1522 37.4902 29.4928C37.4902 29.5703 37.4807 29.6556 37.4615 29.7481L37.1964 31.0853H37.471L37.7172 29.8412C37.7706 29.5811 37.8749 29.373 38.029 29.2168C38.1832 29.0603 38.3652 28.9823 38.5733 28.9823C38.9202 28.9823 39.0933 29.1522 39.0933 29.4928C39.0933 29.5673 39.0838 29.6505 39.0649 29.7439L38.7998 31.0853H39.0736L39.3481 29.7021C39.3642 29.6098 39.3717 29.53 39.3717 29.4656C39.3717 29.2425 39.3052 29.0661 39.173 28.9363C39.0406 28.8065 38.8624 28.7413 38.6382 28.7413C38.4616 28.7413 38.2949 28.7879 38.1372 28.8805C37.9794 28.973 37.8473 29.1034 37.7399 29.2704C37.7049 29.1064 37.6244 28.9773 37.4988 28.8827C37.3726 28.7879 37.2184 28.7413 37.0359 28.7413C36.8904 28.7413 36.7465 28.7801 36.6033 28.8576C36.4602 28.935 36.3375 29.0367 36.2368 29.1637L36.3032 28.8153H36.0476L35.5977 31.0853Z" fill="#666666"/>
<path fill-rule="evenodd" clip-rule="evenodd" d="M34.9189 30.4665C34.8061 30.6809 34.6475 30.8549 34.443 30.9877C34.2393 31.121 34.0132 31.1872 33.7645 31.1872C33.573 31.1872 33.3999 31.145 33.2463 31.0602C33.0923 30.9753 32.9701 30.8542 32.8789 30.6962C32.788 30.5382 32.7422 30.356 32.7422 30.1495C32.7422 29.9057 32.799 29.6768 32.9118 29.4621C33.0246 29.2476 33.1839 29.0733 33.3897 28.9408C33.5956 28.808 33.8225 28.7413 34.0705 28.7413C34.262 28.7413 34.4343 28.7841 34.5886 28.8703C34.7427 28.9568 34.8641 29.0784 34.9538 29.2367C35.0431 29.3946 35.0882 29.5753 35.0882 29.7791C35.0882 30.0225 35.0317 30.2517 34.9189 30.4665ZM33.021 30.1357C33.021 30.3795 33.0908 30.5751 33.2303 30.7224C33.3701 30.8694 33.5549 30.9435 33.7833 30.9427C33.9623 30.9427 34.1296 30.8934 34.2851 30.7949C34.4402 30.6962 34.5667 30.5586 34.6643 30.3815C34.7618 30.2047 34.8104 30.0103 34.8104 29.7971C34.8104 29.5498 34.7414 29.3527 34.6032 29.2054C34.4657 29.0583 34.2816 28.9851 34.0524 28.9851C33.8727 28.9851 33.7062 29.0344 33.5506 29.1329C33.3955 29.2316 33.2682 29.3692 33.1692 29.5463C33.0704 29.7231 33.021 29.9197 33.021 30.1357Z" fill="#666666"/>
<path d="M31.7446 31.1376C31.8664 31.1046 31.9669 31.0596 32.0446 31.0025L32.0403 30.757C31.9506 30.8138 31.8486 30.8583 31.7358 30.8918C31.6225 30.9248 31.5135 30.9414 31.4084 30.9414C31.1517 30.9414 30.9469 30.867 30.7949 30.7168C30.6427 30.5675 30.5673 30.3654 30.5673 30.1104C30.5673 29.8997 30.6168 29.7081 30.7158 29.5345C30.815 29.3618 30.9434 29.227 31.1014 29.1306C31.2592 29.0344 31.428 28.9871 31.6082 28.9871C31.7257 28.9871 31.8443 29.006 31.9634 29.0439C32.0825 29.0818 32.1888 29.135 32.2822 29.2043L32.333 28.9587C32.2405 28.8922 32.1292 28.8398 32.0008 28.8004C31.8722 28.761 31.7431 28.7413 31.6124 28.7413C31.3647 28.7413 31.1394 28.8078 30.9361 28.9398C30.7331 29.0718 30.5751 29.2421 30.4625 29.4521C30.349 29.6613 30.293 29.8859 30.293 30.125C30.293 30.4493 30.3907 30.7074 30.5859 30.8992C30.7811 31.0908 31.0431 31.1872 31.3713 31.1872C31.4976 31.1872 31.6225 31.1703 31.7446 31.1376Z" fill="#666666"/>
<path d="M27.617 31.0845L27.8303 30.007C27.8944 29.6918 28.0067 29.4451 28.1666 29.2656C28.3267 29.0858 28.5128 28.9962 28.7261 28.9962C28.826 28.9962 28.9197 29.0151 29.0071 29.053L29.0699 28.8028C28.9959 28.7618 28.8972 28.7413 28.7745 28.7413C28.6198 28.7413 28.4709 28.7831 28.3288 28.8668C28.187 28.9501 28.0687 29.0648 27.9753 29.2093L28.0574 28.7741H27.7957L27.3359 31.0853H27.617V31.0845Z" fill="#666666"/>
<path fill-rule="evenodd" clip-rule="evenodd" d="M26.6569 30.4665C26.5441 30.6809 26.3857 30.8549 26.1813 30.9877C25.9769 31.121 25.7513 31.1872 25.5025 31.1872C25.3112 31.1872 25.1381 31.145 24.9846 31.0602C24.8304 30.9753 24.7082 30.8542 24.6172 30.6962C24.5256 30.5382 24.4805 30.356 24.4805 30.1495C24.4805 29.9057 24.5372 29.6768 24.65 29.4621C24.7627 29.2476 24.922 29.0733 25.1279 28.9408C25.3337 28.808 25.5608 28.7413 25.8088 28.7413C26 28.7413 26.1724 28.7841 26.3267 28.8703C26.481 28.9568 26.6024 29.0784 26.6918 29.2367C26.7814 29.3946 26.8265 29.5753 26.8265 29.7791C26.8265 30.0225 26.7697 30.2517 26.6569 30.4665ZM24.7591 30.1357C24.7591 30.3795 24.8289 30.5751 24.9686 30.7224C25.1082 30.8694 25.293 30.9435 25.5221 30.9427C25.7019 30.9427 25.8684 30.8934 26.0242 30.7949C26.179 30.6962 26.3055 30.5586 26.4031 30.3815C26.5006 30.2047 26.5492 30.0103 26.5492 29.7971C26.5492 29.5498 26.4802 29.3527 26.342 29.2054C26.2037 29.0583 26.0196 28.9851 25.7905 28.9851C25.6118 28.9851 25.4443 29.0344 25.2887 29.1329C25.1337 29.2316 25.0064 29.3692 24.9075 29.5463C24.8086 29.7231 24.7591 29.9197 24.7591 30.1357Z" fill="#666666"/>
<path d="M23.5924 31.0016C23.7517 30.8783 23.8314 30.7145 23.8314 30.5109C23.8314 30.3609 23.781 30.2335 23.6801 30.1285C23.5792 30.0232 23.4038 29.9147 23.1546 29.8023C22.9872 29.7271 22.871 29.6566 22.8045 29.5915C22.738 29.5254 22.7051 29.4471 22.7051 29.3566C22.7051 29.2442 22.7533 29.1522 22.8491 29.082C22.9456 29.0116 23.0705 28.9763 23.2255 28.9763C23.4623 28.9763 23.6911 29.0515 23.9118 29.2015L23.9688 28.9669C23.8709 28.8979 23.7554 28.8428 23.6209 28.8024C23.4871 28.7617 23.3563 28.7413 23.2306 28.7413C22.9967 28.7413 22.8074 28.8008 22.6605 28.9198C22.5136 29.0385 22.4405 29.1921 22.4405 29.3797C22.4405 29.5203 22.4873 29.6421 22.5801 29.7436C22.6729 29.845 22.8272 29.9444 23.0413 30.0413C23.2372 30.129 23.3709 30.2081 23.4433 30.2783C23.5156 30.3487 23.5522 30.4341 23.5522 30.5343C23.5522 30.6596 23.5003 30.7603 23.3958 30.8371C23.292 30.9139 23.1509 30.9523 22.9748 30.9523C22.8359 30.9523 22.6985 30.9284 22.5633 30.8798C22.4274 30.8312 22.3046 30.7618 22.1942 30.6711L22.1328 30.9103C22.2242 30.9914 22.3462 31.058 22.4997 31.1096C22.6525 31.161 22.8052 31.1872 22.9565 31.1872C23.2211 31.1864 23.4331 31.1246 23.5924 31.0016Z" fill="#666666"/>
<path d="M21.9698 28.0675C22.0119 28.0255 22.033 27.9733 22.033 27.9102C22.033 27.8534 22.0156 27.8086 21.9814 27.7737C21.9466 27.7396 21.9031 27.7223 21.8501 27.7223C21.784 27.7223 21.7303 27.7432 21.6882 27.7854C21.6461 27.8274 21.625 27.8804 21.625 27.9427C21.625 27.9957 21.6431 28.0408 21.6787 28.0761C21.715 28.1125 21.7593 28.1299 21.813 28.1299C21.8755 28.1314 21.9277 28.1097 21.9698 28.0675Z" fill="#666666"/>
<path d="M21.1133 31.1872H21.3835L21.8273 28.8433H21.5564L21.1133 31.1872Z" fill="#666666"/>
<path d="M19.2711 31.1872H19.5359L20.9115 28.8433H20.6188L19.462 30.8703L19.048 28.8433H18.7695L19.2711 31.1872Z" fill="#666666"/>
<path fill-rule="evenodd" clip-rule="evenodd" d="M17.6108 30.7461C17.5034 30.8836 17.3681 30.9916 17.2064 31.0698C17.0446 31.1481 16.8733 31.1872 16.6924 31.1872C16.5056 31.1872 16.3372 31.1443 16.1879 31.0581C16.0387 30.972 15.9217 30.8503 15.8357 30.6925C15.7497 30.5348 15.707 30.3529 15.707 30.1466C15.707 29.9062 15.7637 29.6796 15.8762 29.4667C15.9887 29.2538 16.146 29.0808 16.3475 28.9461C16.549 28.812 16.7703 28.7447 17.0115 28.7447C17.2115 28.7447 17.3887 28.794 17.5446 28.8925C17.7005 28.9909 17.8159 29.1263 17.8924 29.298L18.2873 27.3146H18.563L17.8159 31.1117H17.549L17.6108 30.7461ZM15.9879 30.1372C15.9879 30.3806 16.0585 30.5759 16.1997 30.723C16.3409 30.8699 16.5269 30.9438 16.7586 30.943C16.9394 30.943 17.1086 30.8937 17.2659 30.7954C17.4226 30.6969 17.5505 30.5594 17.649 30.3826C17.7476 30.206 17.7968 30.0119 17.7968 29.799C17.7968 29.5521 17.727 29.3552 17.5873 29.2081C17.4483 29.0612 17.2622 28.9881 17.0306 28.9881C16.8497 28.9881 16.6806 29.0373 16.5233 29.1357C16.3666 29.2342 16.2379 29.3717 16.1379 29.5485C16.0379 29.7251 15.9879 29.9215 15.9879 30.1372Z" fill="#666666"/>
<path fill-rule="evenodd" clip-rule="evenodd" d="M9.86255 32.3082H9.58984L10.2582 28.8179H10.5222L10.456 29.1887C10.5621 29.0491 10.6959 28.9398 10.8559 28.8604C11.0159 28.781 11.1875 28.7413 11.3694 28.7413C11.5541 28.7413 11.7206 28.7846 11.8682 28.872C12.0159 28.9596 12.1315 29.0828 12.2166 29.2431C12.3017 29.4032 12.3438 29.5874 12.3438 29.797C12.3438 30.0415 12.2878 30.2714 12.1766 30.4866C12.0653 30.7026 11.9097 30.8781 11.7104 31.0147C11.5112 31.1508 11.2923 31.2191 11.0537 31.2191C10.8559 31.2191 10.68 31.1699 10.5265 31.0714C10.3731 30.9737 10.2567 30.8356 10.1782 30.6578L9.86255 32.3082ZM10.2771 30.1488C10.2771 30.3993 10.3462 30.599 10.4843 30.7482C10.6225 30.8972 10.8065 30.9722 11.0356 30.9714C11.2145 30.9714 11.3817 30.9214 11.5373 30.8217C11.6923 30.7217 11.8195 30.5822 11.9184 30.4029C12.0173 30.2238 12.0668 30.0245 12.0668 29.8057C12.0668 29.5588 11.997 29.3606 11.8573 29.2114C11.7177 29.0625 11.533 28.9882 11.3039 28.9882C11.1243 28.9882 10.9578 29.0382 10.8021 29.138C10.6472 29.238 10.5207 29.3774 10.4232 29.5568C10.3258 29.7359 10.2771 29.9336 10.2771 30.1488Z" fill="#666666"/>
<path d="M9.52452 28.0675C9.56662 28.0255 9.58769 27.9733 9.58769 27.9102C9.58769 27.8534 9.57026 27.8086 9.53613 27.7737C9.5013 27.7396 9.45773 27.7223 9.40475 27.7223C9.33869 27.7223 9.28495 27.7432 9.24285 27.7854C9.20075 27.8274 9.17969 27.8804 9.17969 27.9427C9.17969 27.9957 9.19785 28.0408 9.23343 28.0761C9.26971 28.1125 9.31399 28.1299 9.36771 28.1299C9.42942 28.1314 9.48242 28.1097 9.52452 28.0675Z" fill="#666666"/>
<path d="M8.67188 31.1872H8.94278L9.38587 28.8433H9.11497L8.67188 31.1872Z" fill="#666666"/>
<path d="M7.11709 31.0845L7.33019 30.007C7.39449 29.6918 7.50666 29.4451 7.66667 29.2656C7.8267 29.0858 8.01287 28.9962 8.22598 28.9962C8.32616 28.9962 8.41964 29.0151 8.50713 29.053L8.56994 28.8028C8.4959 28.7618 8.39721 28.7413 8.27458 28.7413C8.11981 28.7413 7.971 28.7831 7.82892 28.8668C7.68687 28.9501 7.56947 29.0648 7.47525 29.2093L7.55751 28.7741H7.2958L6.83594 31.0853H7.11709V31.0845Z" fill="#666666"/>
<path d="M4.99756 31.0853H5.28654L5.93543 27.772H7.19517L7.24272 27.5184H4.43427L4.38672 27.772H5.64646L4.99756 31.0853Z" fill="#666666"/>
<path fill-rule="evenodd" clip-rule="evenodd" d="M1.89856 30.7463C1.79145 30.8839 1.65647 30.992 1.49508 31.0704C1.33369 31.1488 1.16276 31.1879 0.983026 31.1872C0.796692 31.1872 0.628696 31.1444 0.479775 31.0582C0.330854 30.9717 0.214212 30.8501 0.12838 30.6918C0.0425489 30.5339 0 30.3517 0 30.1451C0 29.9045 0.0564874 29.6775 0.168728 29.4643C0.280971 29.2512 0.437959 29.0779 0.638967 28.9431C0.839974 28.8088 1.06079 28.7413 1.30141 28.7413C1.50095 28.7413 1.67775 28.7899 1.83327 28.8871C1.98806 28.9843 2.10544 29.1199 2.18467 29.2954L2.28884 28.8169H2.55L2.10324 31.1124H1.83694L1.89856 30.7463ZM0.279502 30.1365C0.279502 30.3802 0.349929 30.5758 0.49078 30.7231C0.631631 30.8702 0.817965 30.9442 1.04905 30.9435C1.22952 30.9435 1.39824 30.8941 1.55523 30.7956C1.71149 30.6969 1.83914 30.5593 1.93744 30.3822C2.03574 30.2054 2.0849 30.0111 2.0849 29.7979C2.0849 29.5506 2.0152 29.3534 1.87582 29.2061C1.73644 29.0591 1.55083 28.9858 1.31975 28.9858C1.13928 28.9858 0.970555 29.0352 0.813564 29.1336C0.657307 29.2323 0.528927 29.37 0.429157 29.547C0.329388 29.7238 0.279502 29.9205 0.279502 30.1365Z" fill="#666666"/>
<path fill-rule="evenodd" clip-rule="evenodd" d="M14.6486 30.7463C14.5414 30.8839 14.4065 30.992 14.2451 31.0704C14.0837 31.1488 13.9127 31.1879 13.733 31.1872C13.5467 31.1872 13.3787 31.1444 13.2298 31.0582C13.0808 30.9717 12.9642 30.8501 12.8784 30.6918C12.7925 30.5339 12.75 30.3517 12.75 30.1451C12.75 29.9045 12.8065 29.6775 12.9187 29.4643C13.031 29.2512 13.188 29.0779 13.389 28.9431C13.59 28.8088 13.8108 28.7413 14.0514 28.7413C14.251 28.7413 14.4278 28.7899 14.5833 28.8871C14.7381 28.9843 14.8554 29.1199 14.9347 29.2954L15.0388 28.8169H15.3L14.8532 31.1124H14.5869L14.6486 30.7463ZM13.0295 30.1365C13.0295 30.3802 13.0999 30.5758 13.2408 30.7231C13.3816 30.8702 13.568 30.9442 13.7991 30.9435C13.9795 30.9435 14.1482 30.8941 14.3052 30.7956C14.4615 30.6969 14.5891 30.5593 14.6874 30.3822C14.7857 30.2054 14.8349 30.0111 14.8349 29.7979C14.8349 29.5506 14.7652 29.3534 14.6258 29.2061C14.4864 29.0591 14.3008 28.9858 14.0698 28.9858C13.8893 28.9858 13.7206 29.0352 13.5635 29.1336C13.4073 29.2323 13.2789 29.37 13.1792 29.547C13.0794 29.7238 13.0295 29.9205 13.0295 30.1365Z" fill="#666666"/>
</svg>
