<svg width="118" height="25" viewBox="0 0 118 25" fill="none" xmlns="http://www.w3.org/2000/svg">
<path fill-rule="evenodd" clip-rule="evenodd" d="M23.7286 1.40507C20.9121 -0.345057 17.2043 0.0719127 13.8973 2.13848C10.6007 0.0719127 6.89055 -0.345057 4.0775 1.40507C-0.372383 4.17078 -0.913399 11.2935 2.87026 17.315C5.65919 21.7543 10.0206 24.3556 13.9031 24.3076C17.7855 24.3556 22.1469 21.7543 24.9359 17.315C28.7149 11.2935 28.1785 4.17078 23.7286 1.40507ZM4.91601 16.0436C4.13583 14.8135 3.54719 13.4732 3.17006 12.0681C2.83499 10.8484 2.70688 9.58158 2.791 8.31992C2.95986 6.09456 3.87074 4.36156 5.3548 3.43966C6.83886 2.51776 8.80075 2.46178 10.8902 3.28658C11.2037 3.4111 11.5139 3.55504 11.8217 3.71383C10.6606 4.76674 9.65104 5.97379 8.82143 7.30091C6.52412 10.9565 5.82345 15.0246 6.62521 18.2678C5.98591 17.5819 5.4136 16.8372 4.91601 16.0436ZM22.8913 16.0424C23.671 14.8121 24.2596 13.4719 24.6372 12.0669C24.9703 10.8465 25.0969 9.57941 25.0117 8.31764C24.8428 6.09227 23.9331 4.36042 22.4479 3.43737C20.9627 2.51433 18.9973 2.45949 16.9137 3.28429C15.7386 3.76272 14.6517 4.43215 13.6975 5.26519C11.4846 7.19059 9.89333 9.72348 9.12353 12.5456C8.78897 13.7654 8.66086 15.0321 8.74447 16.2938C8.91332 18.518 9.8242 20.251 11.3094 21.174C12.0748 21.6397 12.9519 21.8923 13.8491 21.9051H13.9628C14.8599 21.892 15.737 21.6395 16.5025 21.174C17.9865 20.251 18.8974 18.518 19.0663 16.2938C19.1496 15.0336 19.0211 13.7684 18.6861 12.5502C18.5999 12.2075 18.485 11.8647 18.3702 11.522L14.8185 13.7291C14.7179 13.7919 14.5963 13.8122 14.4806 13.7857C14.3648 13.7591 14.2645 13.6878 14.2017 13.5875L13.3977 12.3091C13.3345 12.2089 13.314 12.0877 13.3407 11.9724C13.3674 11.8571 13.4392 11.7572 13.5401 11.6945L19.0192 8.29022C19.1247 8.22274 19.254 8.20287 19.3751 8.23553C19.4961 8.26819 19.5976 8.35032 19.6544 8.46158C21.4118 11.8019 21.8988 15.3639 21.1821 18.2712C21.821 17.5834 22.3933 16.8371 22.8913 16.0424ZM52.9193 9.40861C50.0385 9.40861 47.7102 11.6454 47.7102 14.4911C47.7102 17.3173 50.0385 19.5176 52.9193 19.5176C55.8197 19.5176 58.148 17.3208 58.148 14.4911C58.148 11.6465 55.8231 9.40975 52.9193 9.40975V9.40861ZM50.5807 14.4717C50.5807 15.7923 51.5915 16.8604 52.9193 16.8604V16.8649C54.2667 16.8649 55.2775 15.7957 55.2775 14.4751C55.2775 13.1545 54.2667 12.0669 52.9193 12.0669C51.5915 12.0669 50.5807 13.1511 50.5807 14.4717ZM64.6436 5.50509H59.3426C59.2269 5.50288 59.1153 5.54771 59.0335 5.62921C58.9518 5.71071 58.907 5.82183 58.9096 5.93691V18.7899C58.9012 18.9088 58.9432 19.0258 59.0255 19.1126C59.1077 19.1994 59.2227 19.2481 59.3426 19.2468H64.6436C68.8856 19.2468 71.833 16.4411 71.833 12.3594C71.833 8.25252 68.8856 5.50509 64.6436 5.50509ZM61.8685 16.5325H64.7688C67.1167 16.5325 68.7351 14.7081 68.7351 12.3537C68.7351 9.95924 67.1167 8.21254 64.7688 8.21254H61.8685V16.5325ZM82.3846 9.68507H80.3917C80.1632 9.70303 79.9851 9.88912 79.9781 10.1169V10.7052C79.5244 9.95924 78.4987 9.40975 77.2214 9.40975C74.7357 9.40975 72.4074 11.3518 72.4074 14.4534C72.4074 17.5378 74.715 19.5153 77.2019 19.5153C78.4837 19.5153 79.5302 18.9669 79.9839 18.221V18.8287C79.9851 19.0555 80.1694 19.2392 80.3974 19.2411H82.3903C82.5011 19.2436 82.608 19.201 82.6863 19.1231C82.7646 19.0452 82.8075 18.9388 82.805 18.8287V10.1169C82.8084 10.0037 82.7656 9.89401 82.6865 9.81268C82.6073 9.73135 82.4984 9.68533 82.3846 9.68507ZM75.4375 14.4739C75.4375 15.8734 76.4288 16.8821 77.7486 16.8821V16.8809C79.0696 16.8809 80.0597 15.8722 80.0597 14.4728C80.0597 13.0734 79.0684 12.0669 77.7486 12.0669C76.4288 12.0669 75.4375 13.0745 75.4375 14.4739ZM93.5713 5.50509H91.5784C91.4657 5.50171 91.3564 5.54348 91.2749 5.62102C91.1935 5.69856 91.1468 5.80538 91.1453 5.91749V10.6664C90.6859 9.95924 89.6452 9.40975 88.3438 9.40975C85.8765 9.40975 83.5884 11.3518 83.5884 14.4534C83.5884 17.5378 85.896 19.5153 88.3828 19.5153C89.6647 19.5153 90.6319 18.9669 91.1649 18.221V18.8287C91.1655 19.0558 91.3501 19.2399 91.5784 19.2411H93.5713C93.6821 19.244 93.7893 19.2014 93.8677 19.1235C93.9461 19.0455 93.9888 18.9389 93.986 18.8287V5.91977C93.9895 5.80916 93.947 5.70199 93.8685 5.62352C93.7901 5.54504 93.6825 5.5022 93.5713 5.50509ZM86.638 14.4728C86.638 15.8871 87.6213 16.9061 88.9353 16.9061C90.2505 16.9061 91.2326 15.8871 91.2326 14.4728C91.2326 13.0585 90.2459 12.0395 88.9353 12.0395C87.6247 12.0395 86.638 13.0585 86.638 14.4728ZM104.756 5.50509H102.766C102.653 5.50171 102.544 5.54345 102.462 5.62095C102.381 5.69846 102.334 5.80528 102.332 5.91749V10.6664C101.878 9.95924 100.832 9.40975 99.5305 9.40975C97.0632 9.40975 94.7751 11.3518 94.7751 14.4534C94.7751 17.5378 97.0839 19.5153 99.5696 19.5153C100.853 19.5153 101.819 18.9669 102.352 18.221V18.8287C102.353 19.0559 102.538 19.2399 102.766 19.2411H104.756C104.866 19.244 104.973 19.2014 105.052 19.1234C105.13 19.0454 105.172 18.9388 105.169 18.8287V5.91977C105.173 5.80926 105.131 5.70208 105.053 5.62357C104.974 5.54506 104.867 5.50219 104.756 5.50509ZM97.8225 14.4728C97.8225 15.8871 98.8046 16.9061 100.12 16.9061H100.123C101.437 16.9061 102.417 15.8871 102.417 14.4728C102.417 13.0585 101.43 12.0395 100.12 12.0395C98.8092 12.0395 97.8225 13.0585 97.8225 14.4728ZM115.668 10.3534L112.694 20.4966C112.12 22.3015 110.839 23.3811 108.846 23.3811C107.94 23.3811 107.115 23.1972 106.468 22.8293C106.092 22.6157 105.779 22.4204 105.779 22.1073C105.779 21.9131 105.842 21.8126 105.957 21.631L106.548 20.7513C106.714 20.5057 106.837 20.4258 107.016 20.4258C107.158 20.4292 107.296 20.4768 107.409 20.5617C107.78 20.8005 108.125 21.0061 108.65 21.0061C109.263 21.0061 109.732 20.8107 109.984 20.0842L110.239 19.2422H109.036C108.781 19.2503 108.557 19.077 108.503 18.8298L105.841 10.3534C105.742 10.0198 105.833 9.68621 106.326 9.68621H108.422C108.678 9.68621 108.858 9.77303 108.97 10.1375L110.935 16.9632L112.773 10.1375C112.832 9.90212 112.99 9.68621 113.306 9.68621H115.295C115.686 9.68507 115.805 9.95924 115.668 10.3534ZM46.959 18.7887V13.3704C46.9598 13.2531 46.9119 13.1407 46.8267 13.0597C46.7415 12.9786 46.6265 12.936 46.5087 12.942H41.4259C41.3059 12.9401 41.1903 12.9867 41.1055 13.0711C41.0206 13.1555 40.9738 13.2705 40.9757 13.3898V14.8623C40.9738 14.9817 41.0206 15.0967 41.1055 15.1811C41.1903 15.2655 41.3059 15.312 41.4259 15.3102H43.1604C42.6171 16.063 41.4512 16.7484 39.989 16.7484C37.2092 16.7484 35.716 14.7824 35.716 12.3914C35.716 9.92497 37.47 8.0229 39.9189 8.0229C41.8073 8.0229 43.034 8.90825 43.7232 10.2117C43.7696 10.3212 43.8501 10.4129 43.953 10.4733C44.0703 10.5174 44.2001 10.5154 44.3159 10.4676L46.2365 9.73191C46.4995 9.64166 46.5811 9.54798 46.5811 9.4246C46.5786 9.34942 46.5619 9.27538 46.5317 9.20641C45.4542 6.59606 43.0283 5.29832 39.9936 5.29832C35.8825 5.29832 32.6284 8.2411 32.6284 12.5102C32.6284 16.6182 35.6425 19.5039 39.4996 19.5039C41.5534 19.5039 43.3694 18.6779 44.4136 17.3665V18.7887C44.4114 18.9081 44.4581 19.0233 44.543 19.1078C44.6279 19.1923 44.7438 19.2387 44.8638 19.2365H46.5087C46.6287 19.2384 46.7443 19.1918 46.8292 19.1074C46.914 19.023 46.9609 18.9081 46.959 18.7887ZM115.722 7.67904V7.54767C115.722 7.53846 115.725 7.52952 115.731 7.52254C115.738 7.51669 115.746 7.51344 115.755 7.5134H116.595C116.604 7.5131 116.613 7.51639 116.619 7.52254C116.625 7.52952 116.628 7.53846 116.628 7.54767V7.67904C116.628 7.68788 116.625 7.6964 116.619 7.70303C116.613 7.70918 116.604 7.71247 116.595 7.71217H116.288V8.53583C116.288 8.55451 116.273 8.56951 116.254 8.5701H116.095C116.086 8.57006 116.078 8.56633 116.072 8.55982C116.066 8.55357 116.062 8.5449 116.062 8.53583V7.71217H115.755C115.746 7.71287 115.737 7.7096 115.731 7.70323C115.724 7.69686 115.721 7.68802 115.722 7.67904ZM117.42 8.07202L117.19 7.5431C117.188 7.53445 117.184 7.52652 117.177 7.52025C117.168 7.51547 117.158 7.51311 117.147 7.5134H116.889C116.88 7.51274 116.871 7.51586 116.865 7.52197C116.859 7.52808 116.855 7.5366 116.856 7.54538V8.53697C116.855 8.54551 116.858 8.55387 116.864 8.56013C116.87 8.56639 116.878 8.56999 116.887 8.5701H117.039C117.048 8.57031 117.057 8.56684 117.063 8.56055C117.069 8.55426 117.072 8.54571 117.072 8.53697V7.78871L117.317 8.33249C117.321 8.34296 117.327 8.35217 117.336 8.35876C117.345 8.36381 117.355 8.36618 117.366 8.36562H117.487C117.498 8.36635 117.509 8.36397 117.518 8.35876C117.527 8.35184 117.533 8.34275 117.537 8.33249L117.784 7.78871V8.53697C117.783 8.54594 117.786 8.55476 117.793 8.56096C117.799 8.56711 117.808 8.5704 117.817 8.5701H117.966C117.975 8.57045 117.984 8.56703 117.99 8.56071C117.996 8.55438 117.999 8.54574 117.999 8.53697V7.54538C117.999 7.5366 117.995 7.52808 117.989 7.52197C117.983 7.51586 117.974 7.51274 117.965 7.5134H117.699C117.688 7.51297 117.677 7.51533 117.668 7.52025C117.659 7.52572 117.653 7.53373 117.649 7.5431L117.42 8.07202Z" fill="#171C34"/>
</svg>
