<svg width="41" height="41" viewBox="0 0 41 41" fill="none" xmlns="http://www.w3.org/2000/svg">
<path d="M20.3685 25.4792C22.2094 25.4792 23.7018 23.9868 23.7018 22.1458C23.7018 20.3049 22.2094 18.8125 20.3685 18.8125C18.5275 18.8125 17.0352 20.3049 17.0352 22.1458C17.0352 23.9868 18.5275 25.4792 20.3685 25.4792Z" stroke="#F66035" stroke-width="2" stroke-linecap="round" stroke-linejoin="round"/>
<path d="M22.7852 19.7292L26.2018 16.3125" stroke="#F66035" stroke-width="2" stroke-linecap="round" stroke-linejoin="round"/>
<path d="M11.0339 33.8124C8.59743 31.8759 6.82371 29.2295 5.95849 26.2399C5.09326 23.2503 5.17939 20.0656 6.20493 17.1271C7.23047 14.1886 9.14464 11.6419 11.6822 9.83993C14.2197 8.03791 17.2549 7.06982 20.3672 7.06982C23.4795 7.06982 26.5147 8.03791 29.0522 9.83993C31.5897 11.6419 33.5039 14.1886 34.5294 17.1271C35.555 20.0656 35.6411 23.2503 34.7759 26.2399C33.9107 29.2295 32.1369 31.8759 29.7005 33.8124H11.0339Z" stroke="#F66035" stroke-width="2" stroke-linecap="round" stroke-linejoin="round"/>
</svg>
