<svg width="41" height="40" viewBox="0 0 41 40" fill="none" xmlns="http://www.w3.org/2000/svg">
<path d="M35.3685 23.3333L30.3685 18.3333H18.7018C18.2598 18.3333 17.8359 18.1577 17.5233 17.8452C17.2108 17.5326 17.0352 17.1087 17.0352 16.6667V6.66667C17.0352 6.22464 17.2108 5.80072 17.5233 5.48816C17.8359 5.17559 18.2598 5 18.7018 5H33.7018C34.1439 5 34.5678 5.17559 34.8803 5.48816C35.1929 5.80072 35.3685 6.22464 35.3685 6.66667V23.3333Z" stroke="#F66035" stroke-width="2" stroke-linecap="round" stroke-linejoin="round"/>
<path d="M23.7005 24.9998V28.3332C23.7005 28.7752 23.5249 29.1991 23.2124 29.5117C22.8998 29.8242 22.4759 29.9998 22.0339 29.9998H10.3672L5.36719 34.9998V18.3332C5.36719 17.8911 5.54278 17.4672 5.85534 17.1547C6.1679 16.8421 6.59183 16.6665 7.03385 16.6665H10.3672" stroke="#F66035" stroke-width="2" stroke-linecap="round" stroke-linejoin="round"/>
</svg>
