<svg width="41" height="40" viewBox="0 0 41 40" fill="none" xmlns="http://www.w3.org/2000/svg">
<path d="M20.3672 35C28.6515 35 35.3672 28.2843 35.3672 20C35.3672 11.7157 28.6515 5 20.3672 5C12.0829 5 5.36719 11.7157 5.36719 20C5.36719 28.2843 12.0829 35 20.3672 35Z" stroke="#F66035" stroke-width="2" stroke-linecap="round" stroke-linejoin="round"/>
<path d="M25.0339 15.0001C24.7319 14.4764 24.2933 14.0446 23.7648 13.751C23.2364 13.4574 22.638 13.3131 22.0339 13.3334H18.7005C17.8165 13.3334 16.9686 13.6846 16.3435 14.3097C15.7184 14.9349 15.3672 15.7827 15.3672 16.6668C15.3672 17.5508 15.7184 18.3987 16.3435 19.0238C16.9686 19.6489 17.8165 20.0001 18.7005 20.0001H22.0339C22.9179 20.0001 23.7658 20.3513 24.3909 20.9764C25.016 21.6015 25.3672 22.4494 25.3672 23.3334C25.3672 24.2175 25.016 25.0653 24.3909 25.6905C23.7658 26.3156 22.9179 26.6668 22.0339 26.6668H18.7005C18.0963 26.6871 17.498 26.5428 16.9696 26.2492C16.4411 25.9556 16.0024 25.5238 15.7005 25.0001" stroke="#F66035" stroke-width="2" stroke-linecap="round" stroke-linejoin="round"/>
<path d="M20.3672 10V13.3333M20.3672 26.6667V30" stroke="#F66035" stroke-width="2" stroke-linecap="round" stroke-linejoin="round"/>
</svg>
