<svg width="41" height="41" viewBox="0 0 41 41" fill="none" xmlns="http://www.w3.org/2000/svg">
<path d="M33.7018 13.8125H23.7018C22.7813 13.8125 22.0352 14.5587 22.0352 15.4792V32.1458C22.0352 33.0663 22.7813 33.8125 23.7018 33.8125H33.7018C34.6223 33.8125 35.3685 33.0663 35.3685 32.1458V15.4792C35.3685 14.5587 34.6223 13.8125 33.7018 13.8125Z" stroke="#F66035" stroke-width="2" stroke-linecap="round" stroke-linejoin="round"/>
<path d="M30.3672 13.8127V8.81266C30.3672 8.37064 30.1916 7.94671 29.879 7.63415C29.5665 7.32159 29.1425 7.146 28.7005 7.146H7.03385C6.59183 7.146 6.1679 7.32159 5.85534 7.63415C5.54278 7.94671 5.36719 8.37064 5.36719 8.81266V28.8127C5.36719 29.2547 5.54278 29.6786 5.85534 29.9912C6.1679 30.3037 6.59183 30.4793 7.03385 30.4793H22.0339" stroke="#F66035" stroke-width="2" stroke-linecap="round" stroke-linejoin="round"/>
<path d="M27.0352 15.4792H30.3685" stroke="#F66035" stroke-width="2" stroke-linecap="round" stroke-linejoin="round"/>
</svg>
