<svg width="41" height="41" viewBox="0 0 41 41" fill="none" xmlns="http://www.w3.org/2000/svg">
<path d="M15.3672 20.4793L18.7005 23.8127L25.3672 17.146" stroke="#F66035" stroke-width="2" stroke-linecap="round" stroke-linejoin="round"/>
<path d="M20.3653 5.47925C24.2583 8.92354 29.3394 10.7169 34.532 10.4792C35.2879 13.0509 35.5193 15.7484 35.2122 18.4112C34.9051 21.0741 34.0658 23.648 32.7443 25.9801C31.4228 28.3122 29.6459 30.3549 27.5194 31.9867C25.3928 33.6185 22.9599 34.8062 20.3653 35.4792C17.7706 34.8062 15.3378 33.6185 13.2112 31.9867C11.0846 30.3549 9.3078 28.3122 7.98628 25.9801C6.66475 23.648 5.82551 21.0741 5.51841 18.4112C5.21131 15.7484 5.44263 13.0509 6.19862 10.4792C11.3912 10.7169 16.4722 8.92354 20.3653 5.47925" stroke="#F66035" stroke-width="2" stroke-linecap="round" stroke-linejoin="round"/>
</svg>
