<svg width="40" height="41" viewBox="0 0 40 41" fill="none" xmlns="http://www.w3.org/2000/svg">
<path d="M10.9661 7.146H7.29948C6.32702 7.146 5.39439 7.5323 4.70675 8.21994C4.01912 8.90757 3.63281 9.8402 3.63281 10.8127V32.8127C3.63281 33.7851 4.01912 34.7178 4.70675 35.4054C5.39439 36.093 6.32702 36.4793 7.29948 36.4793H17.744" stroke="#F66035" stroke-width="2" stroke-linecap="round" stroke-linejoin="round"/>
<path d="M29.2982 19.9793V10.8127C29.2982 9.8402 28.9119 8.90757 28.2242 8.21994C27.5366 7.5323 26.604 7.146 25.6315 7.146H21.9648" stroke="#F66035" stroke-width="2" stroke-linecap="round" stroke-linejoin="round"/>
<path d="M18.2982 3.47925H14.6315C12.6065 3.47925 10.9648 5.12087 10.9648 7.14591C10.9648 9.17096 12.6065 10.8126 14.6315 10.8126H18.2982C20.3232 10.8126 21.9648 9.17096 21.9648 7.14591C21.9648 5.12087 20.3232 3.47925 18.2982 3.47925Z" stroke="#F66035" stroke-width="2" stroke-linecap="round" stroke-linejoin="round"/>
<path d="M10.9648 18.146H18.2982" stroke="#F66035" stroke-width="2" stroke-linecap="round" stroke-linejoin="round"/>
<path d="M10.9648 25.4792H16.4648" stroke="#F66035" stroke-width="2" stroke-linecap="round" stroke-linejoin="round"/>
<path d="M26.5482 34.6459C29.0795 34.6459 31.1315 32.5939 31.1315 30.0626C31.1315 27.5313 29.0795 25.4792 26.5482 25.4792C24.0169 25.4792 21.9648 27.5313 21.9648 30.0626C21.9648 32.5939 24.0169 34.6459 26.5482 34.6459Z" stroke="#F66035" stroke-width="2" stroke-linecap="round" stroke-linejoin="round"/>
<path d="M30.2148 33.7292L34.7982 38.3126" stroke="#F66035" stroke-width="2" stroke-linecap="round" stroke-linejoin="round"/>
</svg>
