<svg width="41" height="41" viewBox="0 0 41 41" fill="none" xmlns="http://www.w3.org/2000/svg">
<path d="M32.0352 5.479H25.3685C24.4844 5.479 23.6366 5.83019 23.0115 6.45531C22.3863 7.08044 22.0352 7.92828 22.0352 8.81234V28.8123C22.0352 30.5804 22.7375 32.2761 23.9878 33.5264C25.238 34.7766 26.9337 35.479 28.7018 35.479C30.4699 35.479 32.1656 34.7766 33.4159 33.5264C34.6661 32.2761 35.3685 30.5804 35.3685 28.8123V8.81234C35.3685 7.92828 35.0173 7.08044 34.3922 6.45531C33.7671 5.83019 32.9192 5.479 32.0352 5.479Z" stroke="#F66035" stroke-width="2" stroke-linecap="round" stroke-linejoin="round"/>
<path d="M22.0328 12.7292L18.6995 9.39588C18.0744 8.77097 17.2267 8.41992 16.3428 8.41992C15.4589 8.41992 14.6113 8.77097 13.9862 9.39588L9.27283 14.1092C8.64793 14.7343 8.29687 15.582 8.29688 16.4659C8.29687 17.3498 8.64793 18.1974 9.27283 18.8225L24.2728 33.8225" stroke="#F66035" stroke-width="2" stroke-linecap="round" stroke-linejoin="round"/>
<path d="M12.5339 22.1455H8.70052C7.81647 22.1455 6.96862 22.4967 6.3435 23.1218C5.71838 23.7469 5.36719 24.5948 5.36719 25.4788V32.1455C5.36719 33.0296 5.71838 33.8774 6.3435 34.5025C6.96862 35.1277 7.81647 35.4788 8.70052 35.4788H28.7005" stroke="#F66035" stroke-width="2" stroke-linecap="round" stroke-linejoin="round"/>
<path d="M28.6992 28.8125V28.8292" stroke="#F66035" stroke-width="2" stroke-linecap="round" stroke-linejoin="round"/>
</svg>
